<svg width="14" height="14" viewBox="0 0 14 14" fill="none" xmlns="http://www.w3.org/2000/svg">
<path d="M11.6667 0H2.33333C1.71449 0 1.121 0.245833 0.683418 0.683418C0.245833 1.121 0 1.71449 0 2.33333V11.6667C0 12.2855 0.245833 12.879 0.683418 13.3166C1.121 13.7542 1.71449 14 2.33333 14H11.6667C12.2855 14 12.879 13.7542 13.3166 13.3166C13.7542 12.879 14 12.2855 14 11.6667V2.33333C14 1.71449 13.7542 1.121 13.3166 0.683418C12.879 0.245833 12.2855 0 11.6667 0ZM12.4444 11.6667C12.4444 11.8729 12.3625 12.0708 12.2166 12.2166C12.0708 12.3625 11.8729 12.4444 11.6667 12.4444H2.33333C2.12705 12.4444 1.92922 12.3625 1.78336 12.2166C1.6375 12.0708 1.55556 11.8729 1.55556 11.6667V2.33333C1.55556 2.12705 1.6375 1.92922 1.78336 1.78336C1.92922 1.6375 2.12705 1.55556 2.33333 1.55556H11.6667C11.8729 1.55556 12.0708 1.6375 12.2166 1.78336C12.3625 1.92922 12.4444 2.12705 12.4444 2.33333V11.6667ZM10.8889 3.88889C10.8889 4.92029 10.4792 5.90944 9.74986 6.63875C9.02055 7.36806 8.0314 7.77778 7 7.77778C5.9686 7.77778 4.97945 7.36806 4.25014 6.63875C3.52083 5.90944 3.11111 4.92029 3.11111 3.88889C3.11111 3.68261 3.19306 3.48478 3.33892 3.33892C3.48478 3.19306 3.68261 3.11111 3.88889 3.11111C4.09517 3.11111 4.293 3.19306 4.43886 3.33892C4.58472 3.48478 4.66667 3.68261 4.66667 3.88889C4.66667 4.50773 4.9125 5.10122 5.35008 5.53881C5.78767 5.97639 6.38116 6.22222 7 6.22222C7.61884 6.22222 8.21233 5.97639 8.64992 5.53881C9.0875 5.10122 9.33333 4.50773 9.33333 3.88889C9.33333 3.68261 9.41528 3.48478 9.56114 3.33892C9.707 3.19306 9.90483 3.11111 10.1111 3.11111C10.3174 3.11111 10.5152 3.19306 10.6611 3.33892C10.8069 3.48478 10.8889 3.68261 10.8889 3.88889Z" fill="#F40000"/>
</svg>
