<svg width="20" height="25" viewBox="0 0 20 25" fill="none" xmlns="http://www.w3.org/2000/svg">
<path d="M15 5.2941H14.375C14.375 3.70476 13.2535 2.41175 11.875 2.41175C10.4965 2.41175 9.375 3.70476 9.375 5.2941H8.75C8.75 3.30744 10.1519 1.69116 11.875 1.69116C13.5981 1.69116 15 3.30744 15 5.2941Z" fill="#BCBF35"/>
<path d="M14.375 5.2937H16.875C17.2202 5.2937 17.5 5.6163 17.5 6.01429V22.5878C17.5 22.9858 17.2202 23.3084 16.875 23.3084H13.125C13.4702 23.3084 13.75 22.9858 13.75 22.5878V6.01429C13.75 5.6163 14.0298 5.2937 14.375 5.2937Z" fill="#A00000"/>
<path d="M15.625 5.2937H14.375C14.0298 5.2937 13.75 5.6163 13.75 6.01429V22.5878C13.75 22.9858 13.4702 23.3084 13.125 23.3084H15C15.3452 23.3084 15.625 22.9858 15.625 22.5878V5.2937Z" fill="#680000"/>
<path d="M13.125 5.2937H3.125C2.7798 5.2937 2.5 5.6163 2.5 6.01429V22.5878C2.5 22.9858 2.7798 23.3084 3.125 23.3084H13.125C13.4702 23.3084 13.75 22.9858 13.75 22.5878V6.01429C13.75 5.6163 13.4702 5.2937 13.125 5.2937Z" fill="#F40000"/>
<path d="M5.3125 8.89704C5.83027 8.89704 6.25 8.41311 6.25 7.81616C6.25 7.2192 5.83027 6.73528 5.3125 6.73528C4.79473 6.73528 4.375 7.2192 4.375 7.81616C4.375 8.41311 4.79473 8.89704 5.3125 8.89704Z" fill="#680000"/>
<path d="M10.9375 8.89704C11.4553 8.89704 11.875 8.41311 11.875 7.81616C11.875 7.2192 11.4553 6.73528 10.9375 6.73528C10.4197 6.73528 10 7.2192 10 7.81616C10 8.41311 10.4197 8.89704 10.9375 8.89704Z" fill="#680000"/>
<path d="M10.9375 8.17646C10.7649 8.17646 10.625 8.01514 10.625 7.81616V5.2941C10.625 3.70476 9.50352 2.41175 8.125 2.41175C6.74648 2.41175 5.625 3.70476 5.625 5.2941V7.81616C5.625 8.01514 5.48508 8.17646 5.3125 8.17646C5.13992 8.17646 5 8.01514 5 7.81616V5.2941C5 3.30744 6.40188 1.69116 8.125 1.69116C9.84812 1.69116 11.25 3.30744 11.25 5.2941V7.81616C11.25 8.01514 11.1101 8.17646 10.9375 8.17646Z" fill="#FBFF46"/>
</svg>
