<svg width="14" height="14" viewBox="0 0 14 14" fill="none" xmlns="http://www.w3.org/2000/svg">
<path d="M2.625 7.7C2.625 7.52694 2.67632 7.35777 2.77246 7.21388C2.86861 7.06998 3.00527 6.95783 3.16515 6.89161C3.32504 6.82538 3.50097 6.80805 3.6707 6.84181C3.84044 6.87557 3.99635 6.95891 4.11872 7.08128C4.24109 7.20365 4.32443 7.35956 4.35819 7.5293C4.39195 7.69903 4.37462 7.87496 4.30839 8.03485C4.24217 8.19473 4.13002 8.33139 3.98612 8.42754C3.84223 8.52368 3.67306 8.575 3.5 8.575C3.26794 8.575 3.04538 8.48281 2.88128 8.31872C2.71719 8.15462 2.625 7.93206 2.625 7.7ZM3.5 11.375C3.67306 11.375 3.84223 11.3237 3.98612 11.2275C4.13002 11.1314 4.24217 10.9947 4.30839 10.8348C4.37462 10.675 4.39195 10.499 4.35819 10.3293C4.32443 10.1596 4.24109 10.0037 4.11872 9.88128C3.99635 9.75891 3.84044 9.67557 3.6707 9.64181C3.50097 9.60805 3.32504 9.62538 3.16515 9.69161C3.00527 9.75783 2.86861 9.86998 2.77246 10.0139C2.67632 10.1578 2.625 10.3269 2.625 10.5C2.625 10.7321 2.71719 10.9546 2.88128 11.1187C3.04538 11.2828 3.26794 11.375 3.5 11.375ZM7 8.575C7.17306 8.575 7.34223 8.52368 7.48612 8.42754C7.63002 8.33139 7.74217 8.19473 7.80839 8.03485C7.87462 7.87496 7.89195 7.69903 7.85819 7.5293C7.82443 7.35956 7.74109 7.20365 7.61872 7.08128C7.49635 6.95891 7.34044 6.87557 7.1707 6.84181C7.00097 6.80805 6.82504 6.82538 6.66515 6.89161C6.50527 6.95783 6.36861 7.06998 6.27246 7.21388C6.17632 7.35777 6.125 7.52694 6.125 7.7C6.125 7.93206 6.21719 8.15462 6.38128 8.31872C6.54538 8.48281 6.76794 8.575 7 8.575ZM7 11.375C7.17306 11.375 7.34223 11.3237 7.48612 11.2275C7.63002 11.1314 7.74217 10.9947 7.80839 10.8348C7.87462 10.675 7.89195 10.499 7.85819 10.3293C7.82443 10.1596 7.74109 10.0037 7.61872 9.88128C7.49635 9.75891 7.34044 9.67557 7.1707 9.64181C7.00097 9.60805 6.82504 9.62538 6.66515 9.69161C6.50527 9.75783 6.36861 9.86998 6.27246 10.0139C6.17632 10.1578 6.125 10.3269 6.125 10.5C6.125 10.7321 6.21719 10.9546 6.38128 11.1187C6.54538 11.2828 6.76794 11.375 7 11.375ZM10.5 8.575C10.6731 8.575 10.8422 8.52368 10.9861 8.42754C11.13 8.33139 11.2422 8.19473 11.3084 8.03485C11.3746 7.87496 11.3919 7.69903 11.3582 7.5293C11.3244 7.35956 11.2411 7.20365 11.1187 7.08128C10.9963 6.95891 10.8404 6.87557 10.6707 6.84181C10.501 6.80805 10.325 6.82538 10.1652 6.89161C10.0053 6.95783 9.86861 7.06998 9.77246 7.21388C9.67632 7.35777 9.625 7.52694 9.625 7.7C9.625 7.93206 9.71719 8.15462 9.88128 8.31872C10.0454 8.48281 10.2679 8.575 10.5 8.575ZM14 3.5V11.9C14 12.457 13.7788 12.9911 13.3849 13.3849C12.9911 13.7788 12.457 14 11.9 14H2.1C1.54305 14 1.0089 13.7788 0.615076 13.3849C0.221249 12.9911 0 12.457 0 11.9V3.5C0 2.94305 0.221249 2.4089 0.615076 2.01508C1.0089 1.62125 1.54305 1.4 2.1 1.4H2.8V0.7C2.8 0.514348 2.87375 0.336301 3.00503 0.205025C3.1363 0.0737498 3.31435 0 3.5 0C3.68565 0 3.8637 0.0737498 3.99497 0.205025C4.12625 0.336301 4.2 0.514348 4.2 0.7V1.4H9.8V0.7C9.8 0.514348 9.87375 0.336301 10.005 0.205025C10.1363 0.0737498 10.3143 0 10.5 0C10.6857 0 10.8637 0.0737498 10.995 0.205025C11.1263 0.336301 11.2 0.514348 11.2 0.7V1.4H11.9C12.457 1.4 12.9911 1.62125 13.3849 2.01508C13.7788 2.4089 14 2.94305 14 3.5ZM1.4 3.5V4.2H12.6V3.5C12.6 3.31435 12.5263 3.1363 12.395 3.00503C12.2637 2.87375 12.0857 2.8 11.9 2.8H2.1C1.91435 2.8 1.7363 2.87375 1.60503 3.00503C1.47375 3.1363 1.4 3.31435 1.4 3.5ZM12.6 5.6H1.4V11.9C1.4 12.0857 1.47375 12.2637 1.60503 12.395C1.7363 12.5263 1.91435 12.6 2.1 12.6H11.9C12.0857 12.6 12.2637 12.5263 12.395 12.395C12.5263 12.2637 12.6 12.0857 12.6 11.9V5.6Z" fill="#6D6D6D"/>
</svg>
