<svg width="24" height="23" viewBox="0 0 24 23" fill="none" xmlns="http://www.w3.org/2000/svg">
<path d="M20.4377 21.4955C21.963 21.4955 23.1996 20.2589 23.1996 18.7336C23.1996 17.2082 21.963 15.9717 20.4377 15.9717C18.9123 15.9717 17.6758 17.2082 17.6758 18.7336C17.6758 20.2589 18.9123 21.4955 20.4377 21.4955Z" stroke="#F40000" stroke-width="1.4" stroke-linecap="round" stroke-linejoin="round"/>
<path d="M4.97089 21.4955C6.49625 21.4955 7.73279 20.2589 7.73279 18.7336C7.73279 17.2082 6.49625 15.9717 4.97089 15.9717C3.44553 15.9717 2.20898 17.2082 2.20898 18.7336C2.20898 20.2589 3.44553 21.4955 4.97089 21.4955Z" stroke="#F40000" stroke-width="1.4" stroke-linecap="round" stroke-linejoin="round"/>
<path d="M0.7 2.50488C0.7 1.78691 1.28203 1.20488 2 1.20488H15.6762C16.3942 1.20488 16.9762 1.78691 16.9762 2.50488V15.2716H2C1.28203 15.2716 0.7 14.6895 0.7 13.9715V2.50488Z" fill="#F40000" stroke="#F40000" stroke-width="1.4"/>
<path d="M20.2999 6.02832H17.3999C17.1801 6.02832 16.9694 6.12144 16.814 6.28718C16.6586 6.45293 16.5713 6.67773 16.5713 6.91213V13.9826C16.5713 14.217 16.6586 14.4418 16.814 14.6076C16.9694 14.7733 17.1801 14.8664 17.3999 14.8664H22.3713C22.591 14.8664 22.8018 14.7733 22.9572 14.6076C23.1126 14.4418 23.1999 14.217 23.1999 13.9826V9.12165L20.2999 6.02832Z" stroke="#F40000" stroke-width="1.4" stroke-linecap="round" stroke-linejoin="round"/>
</svg>
