<svg width="34" height="34" viewBox="0 0 34 34" fill="none" xmlns="http://www.w3.org/2000/svg">
<path d="M26.8996 30.86C28.7221 30.86 30.1996 29.3825 30.1996 27.56C30.1996 25.7375 28.7221 24.26 26.8996 24.26C25.0771 24.26 23.5996 25.7375 23.5996 27.56C23.5996 29.3825 25.0771 30.86 26.8996 30.86Z" stroke="white" stroke-width="1.4" stroke-linecap="round" stroke-linejoin="round"/>
<path d="M8.41914 30.86C10.2417 30.86 11.7191 29.3825 11.7191 27.56C11.7191 25.7375 10.2417 24.26 8.41914 24.26C6.5966 24.26 5.11914 25.7375 5.11914 27.56C5.11914 29.3825 6.5966 30.86 8.41914 30.86Z" stroke="white" stroke-width="1.4" stroke-linecap="round" stroke-linejoin="round"/>
<path d="M3.18047 7.78003C3.18047 7.06206 3.7625 6.48003 4.48047 6.48003H21.6005C22.3184 6.48003 22.9005 7.06206 22.9005 7.78003V23.56H4.48047C3.7625 23.56 3.18047 22.978 3.18047 22.26V7.78003Z" fill="white" stroke="white" stroke-width="1.4"/>
<path d="M26.7363 12.38H23.2713C23.0087 12.38 22.7569 12.4913 22.5712 12.6893C22.3856 12.8873 22.2812 13.1559 22.2812 13.436V21.884C22.2812 22.1641 22.3856 22.4327 22.5712 22.6307C22.7569 22.8287 23.0087 22.94 23.2713 22.94H29.2113C29.4738 22.94 29.7256 22.8287 29.9113 22.6307C30.0969 22.4327 30.2013 22.1641 30.2013 21.884V16.076L26.7363 12.38Z" stroke="white" stroke-width="1.4" stroke-linecap="round" stroke-linejoin="round"/>
</svg>
