<svg width="27" height="25" viewBox="0 0 27 25" fill="none" xmlns="http://www.w3.org/2000/svg">
<path d="M12.1027 0H14.4046C14.6206 0.0396857 14.7628 0.248448 14.7833 0.469268C14.7323 0.557146 14.6582 0.650015 14.6859 0.760601C14.7666 1.04434 14.9407 1.3052 14.9396 1.61017C14.8894 1.73882 14.7164 1.77608 14.6977 1.92196C14.6806 2.13677 14.7069 2.35196 14.705 2.56716C14.727 3.11499 14.7308 3.66841 14.8452 4.2058C14.9243 4.58491 14.9859 4.97164 15.1232 5.33391C15.4068 6.1459 15.6901 6.95852 16.0174 7.75231C16.133 8.05686 16.2489 8.36784 16.2801 8.69647C16.2893 8.8086 16.2701 8.9213 16.2246 9.02309C16.5744 10.4069 16.7576 11.854 16.6136 13.2842C16.6029 13.4635 16.5314 13.6489 16.5936 13.8252C16.6852 14.0961 16.6506 14.3899 16.6202 14.6692C16.5469 15.2363 16.4643 15.8017 16.383 16.3676C16.2894 17.0533 16.1674 17.7365 16.1324 18.4294C16.0697 19.1733 16.1416 19.9231 16.3442 20.6387C16.5141 21.2695 16.9438 21.9359 16.9146 22.6047C16.9146 23.2695 16.8026 23.7792 16.4159 24.1006C15.9217 24.5138 15.1986 24.5211 14.5876 24.5992C13.7769 24.6827 12.7383 24.6897 11.9282 24.5992C11.3282 24.5159 10.5733 24.5242 10.0999 24.1006C9.72918 23.7686 9.59599 23.2714 9.60129 22.7709C9.58077 22.102 10.0165 21.2336 10.1819 20.6012C10.3671 19.9373 10.438 19.2437 10.391 18.5534C10.3697 18.2801 10.3594 18.005 10.3233 17.7331C10.1993 16.7921 10.0537 15.8544 9.92685 14.9139C9.88961 14.619 9.83977 14.3199 9.87592 14.0223C9.88848 13.8864 9.96586 13.761 9.94474 13.622C9.72688 12.0863 9.91396 10.5158 10.2907 9.02418C10.2457 8.92167 10.2268 8.80854 10.236 8.69598C10.2653 8.37698 10.3759 8.07482 10.4877 7.77948C10.8097 6.99361 11.0937 6.19093 11.3738 5.38744C11.5453 4.92978 11.6221 4.44128 11.7141 3.96118C11.8038 3.35405 11.7993 2.7369 11.8232 2.12415C11.8224 2.0348 11.8323 1.9402 11.7993 1.85567C11.7361 1.76107 11.6187 1.7158 11.5746 1.60641C11.5795 1.31708 11.7301 1.0642 11.8202 0.798916C11.8668 0.678699 11.7932 0.565688 11.7312 0.471096C11.7529 0.252069 11.8905 0.0464698 12.1027 0Z" fill="white"/>
<path fill-rule="evenodd" clip-rule="evenodd" d="M23.8953 3.61821C22.9831 3.5842 21.7537 3.82772 20.0112 4.38181C17.1018 5.30755 13.3901 7.41665 11.8963 8.35716C7.25162 11.3431 5.15401 13.3865 3.94166 14.654L3.93974 14.656L3.93972 14.656C3.25247 15.3432 2.29686 16.4725 1.663 17.6238C1.34595 18.1997 1.11324 18.7743 1.03136 19.2975C0.950527 19.8139 1.01791 20.2693 1.28338 20.631C1.65482 20.9352 2.17509 21.1008 2.78884 21.1595C3.4076 21.2187 4.10976 21.1682 4.82456 21.0515C6.25419 20.818 7.71535 20.3229 8.62282 19.9379L8.72019 20.1674C7.79941 20.558 6.31876 21.0601 4.86474 21.2976C4.13771 21.4163 3.41259 21.4697 2.76508 21.4077C2.11879 21.3458 1.53812 21.1679 1.1125 20.8132L1.10131 20.8039L1.09258 20.7923C0.766894 20.358 0.696728 19.8232 0.78504 19.259C0.873168 18.6959 1.12037 18.0925 1.4446 17.5036C2.09298 16.3258 3.06473 15.1786 3.76245 14.4807C4.98785 13.1996 7.10076 11.1437 11.762 8.14712L11.763 8.14649C13.2612 7.20317 16.9949 5.07991 19.9356 4.14423L19.9356 4.14422C21.6834 3.58848 22.9471 3.33337 23.9046 3.36907C24.8721 3.40513 25.5288 3.73836 26.0514 4.3481L26.0541 4.3512L26.0565 4.35446C26.2578 4.62294 26.3467 5.17871 26.1011 5.9947C25.8535 6.81724 25.2608 7.92661 24.057 9.33106C21.6542 12.1343 17.7925 15.1663 16.5681 16.0011L16.4276 15.7952C17.6408 14.968 21.4838 11.9501 23.8677 9.16881C25.0572 7.78099 25.6279 6.70174 25.8623 5.92285C26.0973 5.14198 25.9894 4.68431 25.8593 4.50708C25.3852 3.95544 24.7959 3.65178 23.8953 3.61821Z" fill="white"/>
<circle cx="8.76953" cy="20.1117" r="0.831055" fill="white"/>
<path d="M9.60059 20.1117C9.60059 20.5707 9.22851 20.9427 8.76953 20.9427C8.31055 20.9427 7.93848 20.5707 7.93848 20.1117C7.93848 19.6527 8.31055 19.2806 8.76953 19.2806C9.22851 19.2806 9.60059 19.6527 9.60059 20.1117Z" fill="#F40000"/>
<path fill-rule="evenodd" clip-rule="evenodd" d="M8.76953 20.6934C9.09082 20.6934 9.35127 20.433 9.35127 20.1117C9.35127 19.7904 9.09082 19.53 8.76953 19.53C8.44825 19.53 8.18779 19.7904 8.18779 20.1117C8.18779 20.433 8.44825 20.6934 8.76953 20.6934ZM8.76953 20.9427C9.22851 20.9427 9.60059 20.5707 9.60059 20.1117C9.60059 19.6527 9.22851 19.2806 8.76953 19.2806C8.31055 19.2806 7.93848 19.6527 7.93848 20.1117C7.93848 20.5707 8.31055 20.9427 8.76953 20.9427Z" fill="white"/>
<path d="M19.7404 15.6658C19.7404 16.8823 18.7542 17.8685 17.5377 17.8685C16.3211 17.8685 15.335 16.8823 15.335 15.6658C15.335 14.4493 16.3211 13.4631 17.5377 13.4631C18.7542 13.4631 19.7404 14.4493 19.7404 15.6658Z" fill="#F40000"/>
<path fill-rule="evenodd" clip-rule="evenodd" d="M17.5377 17.6192C18.6165 17.6192 19.4911 16.7446 19.4911 15.6658C19.4911 14.587 18.6165 13.7124 17.5377 13.7124C16.4588 13.7124 15.5843 14.587 15.5843 15.6658C15.5843 16.7446 16.4588 17.6192 17.5377 17.6192ZM17.5377 17.8685C18.7542 17.8685 19.7404 16.8823 19.7404 15.6658C19.7404 14.4493 18.7542 13.4631 17.5377 13.4631C16.3211 13.4631 15.335 14.4493 15.335 15.6658C15.335 16.8823 16.3211 17.8685 17.5377 17.8685Z" fill="white"/>
<path d="M22.4829 3.82328C22.4829 4.42018 21.999 4.90407 21.4021 4.90407C20.8052 4.90407 20.3213 4.42018 20.3213 3.82328C20.3213 3.22638 20.8052 2.74249 21.4021 2.74249C21.999 2.74249 22.4829 3.22638 22.4829 3.82328Z" fill="#F40000"/>
<path fill-rule="evenodd" clip-rule="evenodd" d="M21.4021 4.65475C21.8613 4.65475 22.2335 4.28249 22.2335 3.82328C22.2335 3.36407 21.8613 2.99181 21.4021 2.99181C20.9429 2.99181 20.5706 3.36407 20.5706 3.82328C20.5706 4.28249 20.9429 4.65475 21.4021 4.65475ZM21.4021 4.90407C21.999 4.90407 22.4829 4.42018 22.4829 3.82328C22.4829 3.22638 21.999 2.74249 21.4021 2.74249C20.8052 2.74249 20.3213 3.22638 20.3213 3.82328C20.3213 4.42018 20.8052 4.90407 21.4021 4.90407Z" fill="white"/>
</svg>
