<svg width="32" height="31" viewBox="0 0 32 31" fill="none" xmlns="http://www.w3.org/2000/svg">
<path d="M14.175 0.150024H17.0492C17.3188 0.199576 17.4963 0.46024 17.522 0.735959C17.4584 0.845684 17.3658 0.961642 17.4004 1.09972C17.5011 1.454 17.7185 1.77971 17.7171 2.1605C17.6544 2.32114 17.4384 2.36766 17.4152 2.54981C17.3938 2.81802 17.4265 3.08672 17.4242 3.35541C17.4517 4.03944 17.4565 4.73045 17.5993 5.40144C17.6981 5.8748 17.775 6.35768 17.9464 6.81001C18.3005 7.82387 18.6542 8.83853 19.0629 9.82966C19.2072 10.2099 19.352 10.5982 19.3909 11.0085C19.4024 11.1486 19.3784 11.2893 19.3216 11.4164C19.7583 13.1442 19.9871 14.951 19.8073 16.7369C19.794 16.9607 19.7047 17.1922 19.7823 17.4124C19.8967 17.7507 19.8535 18.1174 19.8156 18.4662C19.7241 19.1742 19.621 19.8802 19.5193 20.5868C19.4025 21.443 19.2502 22.2961 19.2065 23.1612C19.1282 24.0901 19.2179 25.0263 19.4709 25.9198C19.6831 26.7074 20.2196 27.5394 20.1831 28.3745C20.1831 29.2047 20.0433 29.841 19.5605 30.2423C18.9434 30.7582 18.0406 30.7674 17.2777 30.8649C16.2654 30.9691 14.9685 30.9779 13.9571 30.8649C13.208 30.7609 12.2653 30.7712 11.6742 30.2423C11.2113 29.8278 11.045 29.207 11.0517 28.5821C11.026 27.7469 11.5701 26.6625 11.7766 25.8729C12.0079 25.044 12.0963 24.1779 12.0377 23.316C12.0111 22.9748 11.9983 22.6313 11.9531 22.2917C11.7984 21.1169 11.6166 19.946 11.4582 18.7718C11.4117 18.4035 11.3494 18.03 11.3946 17.6584C11.4102 17.4888 11.5069 17.3322 11.4805 17.1586C11.2085 15.2411 11.4421 13.2802 11.9125 11.4177C11.8563 11.2897 11.8327 11.1485 11.8442 11.0079C11.8807 10.6096 12.0189 10.2323 12.1584 9.86358C12.5605 8.88233 12.9151 7.8801 13.2648 6.87686C13.4789 6.30541 13.5748 5.69546 13.6897 5.09601C13.8017 4.33794 13.7961 3.56736 13.826 2.80226C13.825 2.6907 13.8374 2.57259 13.7961 2.46703C13.7173 2.34892 13.5706 2.29239 13.5155 2.15581C13.5217 1.79455 13.7097 1.4788 13.8222 1.14756C13.8804 0.997456 13.7885 0.856349 13.7111 0.738241C13.7382 0.464761 13.91 0.208047 14.175 0.150024Z" fill="white"/>
<path fill-rule="evenodd" clip-rule="evenodd" d="M28.8996 4.66711C27.7605 4.62465 26.2256 4.9287 24.0498 5.62055C20.417 6.77644 15.7826 9.4099 13.9174 10.5842C8.118 14.3125 5.49891 16.8639 3.98515 18.4465L3.98276 18.449L3.98273 18.449C3.12461 19.3071 1.93143 20.7171 1.13999 22.1547C0.744117 22.8738 0.45355 23.5912 0.351307 24.2445C0.250381 24.8893 0.334515 25.4579 0.665985 25.9095C1.12978 26.2894 1.77939 26.4961 2.54572 26.5694C3.31832 26.6434 4.19503 26.5803 5.08754 26.4346C6.8726 26.143 8.69703 25.5248 9.8301 25.0441L9.95168 25.3307C8.80198 25.8184 6.95322 26.4453 5.13772 26.7418C4.22994 26.89 3.32454 26.9567 2.51606 26.8793C1.70909 26.8021 0.984061 26.5799 0.452622 26.137L0.438655 26.1254L0.427747 26.1109C0.0210945 25.5687 -0.0665157 24.9009 0.0437515 24.1963C0.153789 23.4933 0.462451 22.7399 0.867282 22.0046C1.67686 20.534 2.89021 19.1015 3.76138 18.2301C5.29144 16.6306 7.92964 14.0635 13.7497 10.322L13.7509 10.3212C15.6216 9.14334 20.2836 6.49221 23.9554 5.32391L23.9554 5.3239C26.1377 4.62999 27.7156 4.31146 28.9112 4.35603C30.1192 4.40106 30.9391 4.81713 31.5917 5.57846L31.595 5.58233L31.598 5.5864C31.8493 5.92164 31.9603 6.61558 31.6537 7.63443C31.3446 8.66146 30.6044 10.0466 29.1014 11.8003C26.1012 15.3005 21.2795 19.0862 19.7506 20.1286L19.5753 19.8714C21.0901 18.8385 25.8884 15.0704 28.865 11.5977C30.3503 9.86481 31.0629 8.51724 31.3556 7.54471C31.649 6.56972 31.5143 5.99826 31.3518 5.77696C30.7598 5.08819 30.024 4.70903 28.8996 4.66711Z" fill="white"/>
<circle cx="10.0142" cy="25.2625" r="1.03767" fill="white"/>
<path d="M11.0519 25.2625C11.0519 25.8356 10.5873 26.3002 10.0142 26.3002C9.44114 26.3002 8.97656 25.8356 8.97656 25.2625C8.97656 24.6894 9.44114 24.2249 10.0142 24.2249C10.5873 24.2249 11.0519 24.6894 11.0519 25.2625Z" fill="white"/>
<path fill-rule="evenodd" clip-rule="evenodd" d="M10.0142 25.9889C10.4154 25.9889 10.7406 25.6637 10.7406 25.2625C10.7406 24.8614 10.4154 24.5362 10.0142 24.5362C9.61307 24.5362 9.28786 24.8614 9.28786 25.2625C9.28786 25.6637 9.61307 25.9889 10.0142 25.9889ZM10.0142 26.3002C10.5873 26.3002 11.0519 25.8356 11.0519 25.2625C11.0519 24.6894 10.5873 24.2249 10.0142 24.2249C9.44114 24.2249 8.97656 24.6894 8.97656 25.2625C8.97656 25.8356 9.44114 26.3002 10.0142 26.3002Z" fill="white"/>
<path d="M23.7116 19.7103C23.7116 21.2293 22.4802 22.4606 20.9613 22.4606C19.4423 22.4606 18.2109 21.2293 18.2109 19.7103C18.2109 18.1913 19.4423 16.96 20.9613 16.96C22.4802 16.96 23.7116 18.1913 23.7116 19.7103Z" fill="#F40000"/>
<path fill-rule="evenodd" clip-rule="evenodd" d="M20.9613 22.1493C22.3083 22.1493 23.4003 21.0573 23.4003 19.7103C23.4003 18.3633 22.3083 17.2713 20.9613 17.2713C19.6142 17.2713 18.5222 18.3633 18.5222 19.7103C18.5222 21.0573 19.6142 22.1493 20.9613 22.1493ZM20.9613 22.4606C22.4802 22.4606 23.7116 21.2293 23.7116 19.7103C23.7116 18.1913 22.4802 16.96 20.9613 16.96C19.4423 16.96 18.2109 18.1913 18.2109 19.7103C18.2109 21.2293 19.4423 22.4606 20.9613 22.4606Z" fill="white"/>
<path d="M27.1365 4.92346C27.1365 5.66876 26.5323 6.27294 25.787 6.27294C25.0417 6.27294 24.4375 5.66876 24.4375 4.92346C24.4375 4.17816 25.0417 3.57397 25.787 3.57397C26.5323 3.57397 27.1365 4.17816 27.1365 4.92346Z" fill="white"/>
<path fill-rule="evenodd" clip-rule="evenodd" d="M25.787 5.96164C26.3604 5.96164 26.8252 5.49683 26.8252 4.92346C26.8252 4.35009 26.3604 3.88527 25.787 3.88527C25.2136 3.88527 24.7488 4.35009 24.7488 4.92346C24.7488 5.49683 25.2136 5.96164 25.787 5.96164ZM25.787 6.27294C26.5323 6.27294 27.1365 5.66876 27.1365 4.92346C27.1365 4.17816 26.5323 3.57397 25.787 3.57397C25.0417 3.57397 24.4375 4.17816 24.4375 4.92346C24.4375 5.66876 25.0417 6.27294 25.787 6.27294Z" fill="white"/>
</svg>
