<svg width="46" height="126" viewBox="0 0 46 126" fill="none" xmlns="http://www.w3.org/2000/svg">
  <g clip-path="url(#clip0_2867_98985)">
    <path fill-rule="evenodd" clip-rule="evenodd"
      d="M19.4469 0.00162479H29.248C29.6018 -0.00310021 29.946 0.10085 30.2093 0.293C30.3334 0.37806 30.4382 0.48803 30.5169 0.615808C30.5956 0.743586 30.6464 0.886331 30.6661 1.03482V6.30005H17.9764V1.03482C17.9967 0.88236 18.0497 0.735986 18.1318 0.605573C18.2139 0.47516 18.3232 0.363739 18.4523 0.278825C18.7267 0.0850998 19.082 -0.0141252 19.4453 0.00162479H19.4469ZM32.6504 10.6896C32.5214 10.9586 32.3182 11.1857 32.0644 11.3446C31.8106 11.5035 31.5166 11.5877 31.2165 11.5873H30.7375C30.753 11.6478 30.753 11.7111 30.7375 11.7716C30.7295 11.8188 30.7169 11.874 30.7042 11.9338C30.6709 12.0882 30.6264 12.285 30.609 12.5323C30.5853 12.9199 30.6282 13.3087 30.7359 13.6821C30.82 13.9797 30.9484 14.3121 31.1404 14.6838L31.2165 14.8318C31.7366 15.8241 32.2707 16.8091 32.8186 17.7865C33.4589 18.92 34.1167 20.0437 34.7918 21.157C36.6271 24.2125 38.3973 27.1609 40.748 32.9884C42.0963 36.3337 42.7784 38.7293 43.1115 40.3783C43.2701 41.1532 43.3526 41.7643 43.3922 42.229C43.4652 43.1046 43.3922 43.4732 43.3922 43.4732V45.2451C43.4097 45.3522 43.4113 46.9303 43.4002 49.3495H39.1698C39.1743 48.1772 39.1759 47.0049 39.1745 45.8326V45.7176L39.1729 45.6609L39.1618 45.5947V43.0574L39.1935 42.8952C39.1935 42.829 39.1888 42.7267 39.1777 42.5833C39.1336 42.1225 39.0631 41.6644 38.9667 41.2115C38.6923 39.8601 38.0959 37.7103 36.8222 34.5493C34.5935 29.0289 32.9518 26.2931 31.1721 23.3289L31.1594 23.3069L31.1483 23.288C30.5138 22.2312 29.8365 21.1035 29.1211 19.8277C28.5216 18.7622 27.94 17.6868 27.3763 16.6021C26.6229 15.1437 26.35 13.8002 26.3738 12.6H22.3528C22.375 13.8002 22.1038 15.1437 21.3487 16.6005C20.1703 18.8724 18.9128 21.1029 17.5783 23.288L17.5672 23.3069L17.5545 23.3289C15.7748 26.2931 14.1315 29.0289 11.9044 34.5508C10.6291 37.7103 10.0343 39.8586 9.75989 41.2115C9.66351 41.6639 9.59308 42.1214 9.54893 42.5817C9.53782 42.7251 9.53307 42.829 9.53307 42.8967L9.56479 43.0574V45.5979L9.55051 45.6766L9.54734 45.9444C9.54258 46.3129 9.53782 46.8405 9.53465 47.5068C9.52672 48.8377 9.52196 50.6835 9.51879 52.8177C9.51403 57.0828 9.51879 62.4724 9.52672 67.1187L9.52831 68.2873C9.53307 70.5931 9.53624 72.5808 9.53624 73.8581H13.0386L7.9072 80.829L1.55762 73.8581H5.30741C5.30741 72.4406 5.30107 70.0135 5.29631 67.1265C5.28044 57.8277 5.28203 45.549 5.33438 45.2451V43.4732C5.33438 43.4732 5.25982 43.1046 5.33438 42.229C5.37403 41.7627 5.45651 41.1532 5.61355 40.3783C5.94982 38.7293 6.62872 36.3337 7.977 32.9884C10.3293 27.1609 12.0995 24.2125 13.9332 21.157C14.5756 20.0892 15.2244 19.0071 15.908 17.7865C16.4828 16.7605 17.0422 15.7262 17.5862 14.6838C17.7766 14.3121 17.9067 13.9797 17.9891 13.6805C18.0992 13.3001 18.1422 12.9036 18.116 12.5087C18.097 12.2724 18.0558 12.0834 18.0209 11.9338C18.0082 11.874 17.9971 11.8204 17.9891 11.7716C17.9739 11.7116 17.9739 11.6489 17.9891 11.5889H17.4165C17.1355 11.589 16.8595 11.515 16.6167 11.3744C16.374 11.2338 16.1732 11.0317 16.0349 10.7888C15.8961 10.547 15.8234 10.2733 15.824 9.995C15.824 9.113 16.5378 8.39952 17.4165 8.39952H31.2165C31.4871 8.40288 31.7524 8.47382 31.9881 8.6058C32.2237 8.73777 32.4221 8.92654 32.565 9.15469C32.7079 9.38284 32.7906 9.64303 32.8055 9.91128C32.8204 10.1795 32.7671 10.4472 32.6504 10.6896ZM39.0127 67.1171C38.9699 70.9632 38.935 74.0676 38.9334 74.9952C38.7938 76.5545 38.0404 83.4404 37.5962 87.4881V87.4913L37.3282 89.942V89.9593C37.141 91.7532 37.1109 95.5443 37.1854 99.0234C37.2186 100.731 37.2878 102.438 37.3932 104.142C37.4884 105.564 37.6264 107.083 37.8738 108.116L37.877 108.132L37.8802 108.144C38.3989 110.236 38.6051 112.386 38.494 114.531V114.543L38.4924 114.555C38.4382 115.705 38.122 116.829 37.5677 117.842C36.9945 118.886 36.1961 119.791 35.2296 120.494L35.1424 120.557L35.0583 120.626C34.381 121.177 33.5355 121.54 32.6219 121.658C31.7685 121.748 30.1664 121.8 27.5159 121.8H20.9775C18.3191 121.8 16.7075 121.746 15.87 121.658C14.9544 121.552 14.0886 121.188 13.3749 120.609L13.2892 120.54L13.1988 120.472C12.2356 119.77 11.4396 118.867 10.8671 117.826C10.3134 116.816 9.99627 115.695 9.93913 114.547L26.3738 12.6L9.94072 114.545C9.8378 112.409 10.0532 110.27 10.58 108.196L10.5863 108.173L10.5911 108.151C10.8417 107.117 10.9797 105.594 11.0717 104.175C11.1732 102.641 11.2398 100.843 11.2779 99.0565C11.335 96.3003 11.3255 93.3503 11.2287 91.35H6.99355C7.20769 95.2623 7.04113 104.851 6.47962 107.168C5.84971 109.643 5.59154 112.197 5.71348 114.747C5.80147 116.525 6.29214 118.262 7.149 119.826C8.0166 121.409 9.22419 122.784 10.6862 123.852C12.0311 124.946 13.665 125.633 15.3925 125.83C16.487 125.95 18.3191 126 20.9775 126H27.5159C30.1839 126 32.008 125.95 33.1104 125.83C34.8075 125.626 36.4117 124.949 37.7374 123.877C39.2047 122.808 40.4163 121.431 41.2858 119.843C42.1446 118.274 42.6343 116.531 42.7181 114.747C42.8501 112.19 42.6043 109.628 41.9884 107.143C41.3746 104.585 41.2239 93.3912 41.5348 90.3909L41.8013 87.9465V87.9433C42.2422 83.9271 43.0131 76.8774 43.1511 75.3008L43.1559 75.2425L43.1606 75.1905V75.1716L43.1622 75.1905V75.1638V75.0015C43.1638 74.2125 43.1987 71.1003 43.2431 67.1187H45.9555L41.0113 59.85L35.4279 67.1171H39.0143H39.0127ZM39.1682 45.4215V45.4104C39.1671 45.4346 39.1676 45.4588 39.1698 45.4829V45.4435L39.1682 45.4199V45.4215Z"
      fill="#F40000" />
  </g>
  <defs>
    <clipPath id="clip0_2867_98985">
      <rect width="46" height="126" fill="white" />
    </clipPath>
  </defs>
</svg>