<svg width="21" height="22" viewBox="0 0 21 22" fill="none" xmlns="http://www.w3.org/2000/svg">
<path d="M20.1232 13.6311L17.3204 2.02499C17.1541 1.3361 16.6556 0.784496 15.987 0.549268C15.319 0.313908 14.5851 0.432403 14.0238 0.864576L8.71147 4.96015L4.67816 5.93415C1.92467 6.59909 0.225445 9.38021 0.890393 12.1338C1.47838 14.5686 3.72105 16.1758 6.13652 16.0565L7.02316 19.7281C7.36892 21.1598 8.81532 22.044 10.2476 21.6981C11.6798 21.3523 12.5636 19.906 12.2177 18.4736L11.3775 14.9945L17.7195 16.1676C18.0133 16.222 18.3084 16.2126 18.5887 16.1449C18.9731 16.0521 19.3286 15.8497 19.6102 15.5522C20.0976 15.0379 20.2896 14.3195 20.1232 13.6306L20.1232 13.6311ZM2.47434 11.7511C2.02027 9.87082 3.18081 7.97124 5.06116 7.51716L8.47155 6.69359L10.1186 13.5141L6.70823 14.3377C4.82793 14.7917 2.92835 13.6312 2.47427 11.7509L2.47434 11.7511ZM9.86504 20.1143C9.30609 20.2493 8.74143 19.9046 8.60636 19.3453L7.74152 15.7641L9.76872 15.2745L10.6336 18.8558C10.7685 19.4147 10.4239 19.9794 9.86454 20.1145L9.86504 20.1143ZM18.5397 14.0132C18.5919 14.2293 18.4791 14.3781 18.4279 14.4318C18.3769 14.486 18.2342 14.6063 18.0158 14.5661L11.7686 13.4107L9.98707 6.03326L15.0185 2.1542C15.1945 2.01874 15.3762 2.06033 15.4465 2.08563C15.516 2.11035 15.6847 2.19099 15.7369 2.40712L18.5397 14.0132Z" fill="#F40000"/>
</svg>
