<svg width="32" height="28" viewBox="0 0 32 28" fill="none" xmlns="http://www.w3.org/2000/svg">
<path d="M26.1232 16.6311L23.3204 5.02499C23.1541 4.3361 22.6556 3.7845 21.987 3.54927C21.319 3.31391 20.5851 3.4324 20.0238 3.86458L14.7115 7.96015L10.6782 8.93415C7.92467 9.59909 6.22544 12.3802 6.89039 15.1338C7.47838 17.5686 9.72105 19.1758 12.1365 19.0565L13.0232 22.7281C13.3689 24.1598 14.8153 25.044 16.2476 24.6981C17.6798 24.3523 18.5636 22.906 18.2177 21.4736L17.3775 17.9945L23.7195 19.1676C24.0133 19.222 24.3084 19.2126 24.5887 19.1449C24.9731 19.0521 25.3286 18.8497 25.6102 18.5522C26.0976 18.0379 26.2896 17.3195 26.1232 16.6306L26.1232 16.6311ZM8.47434 14.7511C8.02027 12.8708 9.18081 10.9712 11.0612 10.5172L14.4715 9.69359L16.1186 16.5141L12.7082 17.3377C10.8279 17.7917 8.92835 16.6312 8.47427 14.7509L8.47434 14.7511ZM15.865 23.1143C15.3061 23.2493 14.7414 22.9046 14.6064 22.3453L13.7415 18.7641L15.7687 18.2745L16.6336 21.8558C16.7685 22.4147 16.4239 22.9794 15.8645 23.1145L15.865 23.1143ZM24.5397 17.0132C24.5919 17.2293 24.4791 17.3781 24.4279 17.4318C24.3769 17.486 24.2342 17.6063 24.0158 17.5661L17.7686 16.4107L15.9871 9.03326L21.0185 5.1542C21.1945 5.01874 21.3762 5.06033 21.4465 5.08563C21.516 5.11035 21.6847 5.19099 21.7369 5.40712L24.5397 17.0132Z" fill="#F40000"/>
</svg>
