<svg width="26" height="26" viewBox="0 0 26 26" fill="none" xmlns="http://www.w3.org/2000/svg">
  <path
    d="M13 9.38666C12.2445 9.38666 11.506 9.59545 10.8778 9.98662C10.2497 10.3778 9.76009 10.9338 9.47098 11.5843C9.18187 12.2348 9.10623 12.9506 9.25361 13.6412C9.401 14.3317 9.7648 14.9661 10.299 15.464C10.8332 15.9618 11.5138 16.3009 12.2548 16.4382C12.9958 16.5756 13.7638 16.5051 14.4618 16.2357C15.1597 15.9662 15.7563 15.5099 16.176 14.9245C16.5958 14.339 16.8198 13.6508 16.8198 12.9467C16.8198 12.0025 16.4173 11.097 15.701 10.4294C14.9846 9.76173 14.0131 9.38666 13 9.38666ZM13 14.1333C12.7482 14.1333 12.502 14.0637 12.2926 13.9333C12.0832 13.8029 11.92 13.6176 11.8237 13.4008C11.7273 13.1839 11.7021 12.9453 11.7512 12.7151C11.8003 12.485 11.9216 12.2735 12.0997 12.1076C12.2777 11.9416 12.5046 11.8286 12.7516 11.7828C12.9986 11.737 13.2546 11.7605 13.4873 11.8503C13.7199 11.9401 13.9188 12.0922 14.0587 12.2874C14.1986 12.4825 14.2733 12.712 14.2733 12.9467C14.2733 13.2614 14.1391 13.5632 13.9003 13.7858C13.6615 14.0083 13.3377 14.1333 13 14.1333ZM24.2174 13.9079C24.0098 13.6885 23.8964 13.4053 23.8991 13.1128V12.7805C23.8964 12.488 24.0098 12.2048 24.2174 11.9855L25.0323 11.1311C25.6569 10.4777 26.0014 9.63279 26 8.75772C25.9939 8.13388 25.8187 7.52159 25.4907 6.97773L24.7777 5.79106C24.4422 5.24954 23.9596 4.79992 23.3785 4.48744C22.7973 4.17497 22.1381 4.01066 21.4672 4.01106C21.2106 4.01122 20.9547 4.03507 20.7032 4.08226L19.5064 4.30773H19.239C19.0206 4.30457 18.8064 4.25161 18.6151 4.15346L18.2968 3.97546C18.0505 3.86343 17.8495 3.68031 17.7238 3.45333L17.3291 2.37346C17.065 1.67717 16.575 1.07466 15.9271 0.64943C15.2792 0.224198 14.5055 -0.00271335 13.713 0.000133697H12.287C11.5007 -0.00621612 10.7314 0.213758 10.0842 0.630027C9.43705 1.0463 8.94348 1.63857 8.67091 2.326L8.2762 3.45333C8.17739 3.72893 7.97352 3.96116 7.70323 4.106L7.39765 4.284C7.20107 4.38055 6.98317 4.43335 6.76102 4.43826H6.50637L5.36043 4.1416C5.10893 4.0944 4.85303 4.07055 4.59648 4.0704C3.9173 4.05706 3.2466 4.21278 2.6535 4.52149C2.06041 4.8302 1.56638 5.28074 1.22233 5.82666L0.509309 7.01333C0.10968 7.66114 -0.0610978 8.40972 0.0211702 9.15302C0.103438 9.89632 0.43458 10.5966 0.967683 11.1548L1.78257 12.0092C1.9902 12.2286 2.10356 12.5117 2.10089 12.8043V13.1365C2.10356 13.429 1.9902 13.7122 1.78257 13.9316L0.967683 14.786C0.343111 15.4394 -0.00137336 16.2843 4.11508e-06 17.1593C0.00614708 17.7832 0.181338 18.3954 0.509309 18.9393L1.22233 20.126C1.5578 20.6675 2.04039 21.1171 2.62153 21.4296C3.20268 21.7421 3.86189 21.9064 4.53281 21.906C4.78936 21.9058 5.04527 21.882 5.29677 21.8348L6.49364 21.6093H6.74829C6.96665 21.6125 7.18086 21.6654 7.37219 21.7636L7.6905 21.9416C7.96079 22.0864 8.16466 22.3186 8.26347 22.5942L8.67091 23.6266C8.93505 24.3229 9.42501 24.9254 10.0729 25.3507C10.7208 25.7759 11.4946 26.0028 12.287 26H13.713C14.5055 26.0028 15.2792 25.7759 15.9271 25.3507C16.575 24.9254 17.065 24.3229 17.3291 23.6266L17.7238 22.5468C17.8226 22.2712 18.0265 22.0389 18.2968 21.8941L18.6023 21.7161C18.7989 21.6196 19.0168 21.5668 19.239 21.5618H19.4936L20.7032 21.7873C20.9547 21.8345 21.2106 21.8584 21.4672 21.8585C22.1381 21.8589 22.7973 21.6946 23.3785 21.3821C23.9596 21.0697 24.4422 20.62 24.7777 20.0785L25.4907 18.8918C25.8187 18.348 25.9939 17.7357 26 17.1118C26.0014 16.2368 25.6569 15.3919 25.0323 14.7385L24.2174 13.9079ZM22.3203 15.4743L23.1352 16.3286C23.3428 16.548 23.4561 16.8312 23.4535 17.1237C23.4511 17.3327 23.3897 17.5373 23.2752 17.717L22.5622 18.9037C22.4511 19.0831 22.2916 19.2322 22.0995 19.3363C21.9074 19.4404 21.6894 19.4958 21.4672 19.497H21.2125L20.0157 19.2716C19.0974 19.0941 18.1411 19.2377 17.3291 19.675L17.0235 19.8412C16.2126 20.2757 15.601 20.9724 15.3046 21.7992L14.9226 22.8909C14.8372 23.1266 14.6745 23.3313 14.4574 23.4761C14.2404 23.6209 13.98 23.6985 13.713 23.6978H12.287C12.02 23.6985 11.7596 23.6209 11.5426 23.4761C11.3255 23.3313 11.1628 23.1266 11.0774 22.8909L10.6954 21.7992C10.399 20.9724 9.78736 20.2757 8.9765 19.8412L8.65818 19.675C8.08101 19.3654 7.42699 19.2018 6.76102 19.2004C6.50026 19.2005 6.24013 19.2244 5.98433 19.2716L4.78747 19.497H4.53281C4.30845 19.4979 4.08784 19.4434 3.89331 19.3392C3.69879 19.2351 3.53726 19.0848 3.42508 18.9037L2.72478 17.717C2.61035 17.5373 2.54886 17.3327 2.54653 17.1237C2.52961 16.8373 2.6246 16.5548 2.81391 16.3286L3.6288 15.4743C4.25337 14.8209 4.59785 13.976 4.59648 13.1009V12.7687C4.59785 11.8936 4.25337 11.0487 3.6288 10.3953L2.81391 9.56466C2.60628 9.34526 2.49292 9.06212 2.4956 8.76959C2.51759 8.56439 2.59658 8.36807 2.72478 8.19999L3.43781 7.01333C3.54891 6.83398 3.70843 6.68485 3.90053 6.58076C4.09263 6.47667 4.31061 6.42124 4.53281 6.41999H4.78747L5.98433 6.64546C6.24004 6.6932 6.50023 6.71705 6.76102 6.71666C7.42699 6.71528 8.08101 6.55165 8.65818 6.24199L8.9765 6.07586C9.77784 5.65295 10.3883 4.97446 10.6954 4.16533L11.0774 3.0736C11.1628 2.8379 11.3255 2.63318 11.5426 2.48838C11.7596 2.34358 12.02 2.26602 12.287 2.26666H13.713C13.98 2.26602 14.2404 2.34358 14.4574 2.48838C14.6745 2.63318 14.8372 2.8379 14.9226 3.0736L15.3046 4.16533C15.601 4.99212 16.2126 5.68881 17.0235 6.12333L17.3418 6.28946C17.919 6.59911 18.573 6.76275 19.239 6.76413C19.4998 6.76452 19.76 6.74067 20.0157 6.69293L21.2125 6.46746H21.4672C21.6915 6.46663 21.9122 6.52107 22.1067 6.62526C22.3012 6.72945 22.4627 6.8797 22.5749 7.06079L23.2752 8.24746C23.3897 8.42716 23.4511 8.63184 23.4535 8.84079C23.4561 9.13332 23.3428 9.41646 23.1352 9.63586L22.3203 10.4903C21.6957 11.1436 21.3512 11.9885 21.3526 12.8636V13.1959C21.3512 14.0709 21.6957 14.9158 22.3203 15.5692"
    fill="#F40000" />
</svg>