<svg width="18" height="21" viewBox="0 0 18 21" fill="none" xmlns="http://www.w3.org/2000/svg">
  <path
    d="M17.12 5.9955L12.29 0.924C11.7279 0.333092 10.9654 0.000735219 10.17 0H3C2.20435 0 1.44129 0.331874 0.87868 0.922614C0.316071 1.51335 0 2.31457 0 3.15V17.85C0 18.6854 0.316071 19.4866 0.87868 20.0774C1.44129 20.6681 2.20435 21 3 21H15C15.7956 21 16.5587 20.6681 17.1213 20.0774C17.6839 19.4866 18 18.6854 18 17.85V8.2215C17.9993 7.38635 17.6828 6.58567 17.12 5.9955ZM15.59 7.35H12C11.7348 7.35 11.4804 7.23937 11.2929 7.04246C11.1054 6.84555 11 6.57848 11 6.3V2.5305L15.59 7.35ZM15 18.9H3C2.73478 18.9 2.48043 18.7894 2.29289 18.5925C2.10536 18.3955 2 18.1285 2 17.85V3.15C2 2.87152 2.10536 2.60445 2.29289 2.40754C2.48043 2.21062 2.73478 2.1 3 2.1H9V6.3C9 7.13543 9.31607 7.93665 9.87868 8.52739C10.4413 9.11813 11.2044 9.45 12 9.45H16V17.85C16 18.1285 15.8946 18.3955 15.7071 18.5925C15.5196 18.7894 15.2652 18.9 15 18.9Z"
    fill="#028b2a" />
</svg>