<svg width="22" height="21" viewBox="0 0 22 21" fill="none" xmlns="http://www.w3.org/2000/svg">
<path d="M6.68556 11.2041C6.56969 11.1183 6.47268 11.0092 6.40064 10.8836C6.32861 10.7581 6.28312 10.6188 6.26705 10.4745C6.25098 10.3303 6.26468 10.1842 6.30728 10.0456C6.34987 9.90697 6.42045 9.77878 6.51454 9.66911C6.60864 9.55944 6.72421 9.47069 6.85395 9.40845C6.9837 9.3462 7.12481 9.31183 7.26837 9.30749C7.41192 9.30315 7.55481 9.32895 7.68801 9.38324C7.8212 9.43754 7.94181 9.51915 8.04222 9.62294L9.77778 11.1176V1.23529C9.77778 0.907674 9.90655 0.593472 10.1358 0.361809C10.365 0.130147 10.6758 0 11 0C11.3242 0 11.635 0.130147 11.8642 0.361809C12.0935 0.593472 12.2222 0.907674 12.2222 1.23529V11.1176L13.9578 9.59824C14.0582 9.49445 14.1788 9.41283 14.312 9.35854C14.4452 9.30424 14.5881 9.27845 14.7316 9.28279C14.8752 9.28712 15.0163 9.3215 15.146 9.38374C15.2758 9.44598 15.3914 9.53474 15.4855 9.6444C15.5796 9.75407 15.6501 9.88226 15.6927 10.0209C15.7353 10.1595 15.749 10.3056 15.7329 10.4498C15.7169 10.594 15.6714 10.7334 15.5994 10.8589C15.5273 10.9845 15.4303 11.0936 15.3144 11.1794L11.6478 14.3665C11.6099 14.3956 11.5689 14.4205 11.5256 14.4406C11.4686 14.4808 11.407 14.514 11.3422 14.5394H11.1589H10.9633H10.7678H10.5844C10.5196 14.514 10.4581 14.4808 10.4011 14.4406C10.3578 14.4205 10.3168 14.3956 10.2789 14.3665L6.68556 11.2041ZM20.7778 12.3529C20.4536 12.3529 20.1427 12.4831 19.9135 12.7148C19.6843 12.9464 19.5556 13.2606 19.5556 13.5882V17.2941C19.5556 17.6217 19.4268 17.9359 19.1976 18.1676C18.9684 18.3993 18.6575 18.5294 18.3333 18.5294H3.66667C3.34251 18.5294 3.03164 18.3993 2.80243 18.1676C2.57321 17.9359 2.44444 17.6217 2.44444 17.2941V13.5882C2.44444 13.2606 2.31567 12.9464 2.08646 12.7148C1.85725 12.4831 1.54638 12.3529 1.22222 12.3529C0.898069 12.3529 0.587192 12.4831 0.357981 12.7148C0.128769 12.9464 0 13.2606 0 13.5882V17.2941C0 18.277 0.386309 19.2196 1.07394 19.9146C1.76158 20.6096 2.69421 21 3.66667 21H18.3333C19.3058 21 20.2384 20.6096 20.9261 19.9146C21.6137 19.2196 22 18.277 22 17.2941V13.5882C22 13.2606 21.8712 12.9464 21.642 12.7148C21.4128 12.4831 21.1019 12.3529 20.7778 12.3529Z" fill="#6D6D6D"/>
</svg>
