<svg width="20" height="16" viewBox="0 0 20 16" fill="none" xmlns="http://www.w3.org/2000/svg">
<path d="M17 0H3C2.20435 0 1.44129 0.316071 0.87868 0.87868C0.316071 1.44129 0 2.20435 0 3V13C0 13.7956 0.316071 14.5587 0.87868 15.1213C1.44129 15.6839 2.20435 16 3 16H17C17.7956 16 18.5587 15.6839 19.1213 15.1213C19.6839 14.5587 20 13.7956 20 13V3C20 2.20435 19.6839 1.44129 19.1213 0.87868C18.5587 0.316071 17.7956 0 17 0ZM18 13C18 13.2652 17.8946 13.5196 17.7071 13.7071C17.5196 13.8946 17.2652 14 17 14H3C2.73478 14 2.48043 13.8946 2.29289 13.7071C2.10536 13.5196 2 13.2652 2 13V3C2 2.73478 2.10536 2.48043 2.29289 2.29289C2.48043 2.10536 2.73478 2 3 2H17C17.2652 2 17.5196 2.10536 17.7071 2.29289C17.8946 2.48043 18 2.73478 18 3V13ZM15.78 5.38C15.9435 5.58723 16.0184 5.85071 15.9885 6.11297C15.9585 6.37523 15.826 6.615 15.62 6.78L11.87 9.78C11.3387 10.2035 10.6794 10.4341 10 10.4341C9.32058 10.4341 8.66128 10.2035 8.13 9.78L4.38 6.78C4.19782 6.60803 4.08682 6.37394 4.06897 6.12405C4.05112 5.87416 4.12771 5.62667 4.2836 5.43056C4.43949 5.23444 4.66332 5.10397 4.91079 5.06498C5.15827 5.02599 5.41136 5.08131 5.62 5.22L9.38 8.22C9.55655 8.35951 9.77499 8.4354 10 8.4354C10.225 8.4354 10.4435 8.35951 10.62 8.22L14.38 5.22C14.5872 5.05649 14.8507 4.98155 15.113 5.01153C15.3752 5.0415 15.615 5.17395 15.78 5.38Z" fill="#F40000"/>
</svg>
