<svg width="20" height="20" viewBox="0 0 20 20" fill="none" xmlns="http://www.w3.org/2000/svg">
<path d="M14.6667 3H5.33333C4.71449 3 4.121 3.24583 3.68342 3.68342C3.24583 4.121 3 4.71449 3 5.33333V14.6667C3 15.2855 3.24583 15.879 3.68342 16.3166C4.121 16.7542 4.71449 17 5.33333 17H14.6667C15.2855 17 15.879 16.7542 16.3166 16.3166C16.7542 15.879 17 15.2855 17 14.6667V5.33333C17 4.71449 16.7542 4.121 16.3166 3.68342C15.879 3.24583 15.2855 3 14.6667 3ZM15.4444 14.6667C15.4444 14.8729 15.3625 15.0708 15.2166 15.2166C15.0708 15.3625 14.8729 15.4444 14.6667 15.4444H5.33333C5.12705 15.4444 4.92922 15.3625 4.78336 15.2166C4.6375 15.0708 4.55556 14.8729 4.55556 14.6667V5.33333C4.55556 5.12705 4.6375 4.92922 4.78336 4.78336C4.92922 4.6375 5.12705 4.55556 5.33333 4.55556H14.6667C14.8729 4.55556 15.0708 4.6375 15.2166 4.78336C15.3625 4.92922 15.4444 5.12705 15.4444 5.33333V14.6667ZM13.8889 6.88889C13.8889 7.92029 13.4792 8.90944 12.7499 9.63875C12.0206 10.3681 11.0314 10.7778 10 10.7778C8.9686 10.7778 7.97945 10.3681 7.25014 9.63875C6.52083 8.90944 6.11111 7.92029 6.11111 6.88889C6.11111 6.68261 6.19306 6.48478 6.33892 6.33892C6.48478 6.19306 6.68261 6.11111 6.88889 6.11111C7.09517 6.11111 7.293 6.19306 7.43886 6.33892C7.58472 6.48478 7.66667 6.68261 7.66667 6.88889C7.66667 7.50773 7.9125 8.10122 8.35008 8.53881C8.78767 8.97639 9.38116 9.22222 10 9.22222C10.6188 9.22222 11.2123 8.97639 11.6499 8.53881C12.0875 8.10122 12.3333 7.50773 12.3333 6.88889C12.3333 6.68261 12.4153 6.48478 12.5611 6.33892C12.707 6.19306 12.9048 6.11111 13.1111 6.11111C13.3174 6.11111 13.5152 6.19306 13.6611 6.33892C13.8069 6.48478 13.8889 6.68261 13.8889 6.88889Z" fill="#F40000"/>
</svg>
