<svg width="20" height="20" viewBox="0 0 20 20" fill="none" xmlns="http://www.w3.org/2000/svg">
<path d="M12.1 9.895C11.7277 9.52332 11.226 9.3101 10.7 9.3H10.658H9.958H9.342C9.17874 9.29369 9.02383 9.22623 8.908 9.111C8.85313 9.05849 8.80936 8.9955 8.7793 8.92576C8.74924 8.85601 8.73349 8.78094 8.733 8.705V8.642C8.76116 8.43418 8.86603 8.24441 9.027 8.11C9.30729 7.9012 9.65077 7.79494 10 7.809C10.1002 7.8018 10.2008 7.8018 10.301 7.809C10.693 7.86062 11.0596 8.0317 11.351 8.299C11.4199 8.36013 11.5003 8.40708 11.5873 8.43717C11.6744 8.46727 11.7666 8.47991 11.8586 8.47439C11.9506 8.46886 12.0405 8.44528 12.1234 8.40497C12.2063 8.36467 12.2804 8.30844 12.3415 8.2395C12.4026 8.17055 12.4496 8.09025 12.4797 8.00316C12.5098 7.91607 12.5224 7.8239 12.5169 7.73193C12.5114 7.63995 12.4878 7.54996 12.4475 7.4671C12.4072 7.38424 12.3509 7.31013 12.282 7.249C11.829 6.86563 11.2836 6.60741 10.7 6.5V5.8C10.7 5.61435 10.6263 5.4363 10.495 5.30502C10.3637 5.17375 10.1857 5.1 10 5.1C9.81435 5.1 9.6363 5.17375 9.50503 5.30502C9.37375 5.4363 9.3 5.61435 9.3 5.8V6.5C8.86849 6.58483 8.46456 6.77477 8.124 7.053C7.69025 7.42265 7.41262 7.94289 7.347 8.509C7.34338 8.57428 7.34338 8.63971 7.347 8.705C7.35004 9.23108 7.56148 9.73452 7.935 10.105C8.29861 10.4685 8.78622 10.681 9.3 10.7H9.342H10.042H10.658C10.8193 10.7088 10.9727 10.7731 11.092 10.882C11.202 10.9916 11.2648 11.1398 11.267 11.295V11.351C11.2392 11.5609 11.1344 11.753 10.973 11.89C10.6927 12.0988 10.3492 12.2051 10 12.191C9.8998 12.1982 9.79921 12.1982 9.699 12.191C9.30883 12.1331 8.94396 11.9629 8.649 11.701C8.58153 11.6341 8.50115 11.5816 8.41275 11.5468C8.32435 11.512 8.22978 11.4955 8.13481 11.4984C8.03984 11.5013 7.94645 11.5235 7.86033 11.5636C7.77421 11.6038 7.69717 11.661 7.6339 11.7319C7.57062 11.8028 7.52245 11.8858 7.49229 11.9759C7.46214 12.066 7.45065 12.1613 7.45852 12.256C7.46639 12.3507 7.49345 12.4428 7.53806 12.5267C7.58267 12.6106 7.6439 12.6845 7.718 12.744C8.16876 13.1321 8.71484 13.3931 9.3 13.5V14.2C9.3 14.3856 9.37375 14.5637 9.50503 14.695C9.6363 14.8262 9.81435 14.9 10 14.9C10.1857 14.9 10.3637 14.8262 10.495 14.695C10.6263 14.5637 10.7 14.3856 10.7 14.2V13.5C11.132 13.4126 11.5358 13.2203 11.876 12.94C12.3126 12.5726 12.5908 12.0512 12.653 11.484C12.6565 11.4187 12.6565 11.3533 12.653 11.288C12.6575 10.7693 12.459 10.2694 12.1 9.895ZM17 10C17 11.3845 16.5895 12.7378 15.8203 13.889C15.0511 15.0401 13.9579 15.9373 12.6788 16.4672C11.3997 16.997 9.99224 17.1356 8.63437 16.8655C7.2765 16.5954 6.02922 15.9287 5.05026 14.9497C4.07129 13.9708 3.4046 12.7235 3.13451 11.3656C2.86441 10.0078 3.00303 8.6003 3.53285 7.32121C4.06266 6.04213 4.95987 4.94888 6.11101 4.17971C7.26215 3.41054 8.61553 3 10 3C10.9193 3 11.8295 3.18106 12.6788 3.53284C13.5281 3.88463 14.2997 4.40024 14.9497 5.05025C15.5998 5.70026 16.1154 6.47194 16.4672 7.32121C16.8189 8.17049 17 9.08075 17 10ZM15.6 10C15.599 8.70446 15.1488 7.44936 14.3262 6.44852C13.5035 5.44768 12.3593 4.76303 11.0885 4.51121C9.81768 4.25939 8.49886 4.45598 7.35673 5.06749C6.21459 5.679 5.31982 6.6676 4.82484 7.86485C4.32987 9.0621 4.26531 10.3939 4.64218 11.6334C5.01905 12.8729 5.81403 13.9434 6.89167 14.6625C7.96931 15.3816 9.26294 15.7049 10.5522 15.5771C11.8414 15.4494 13.0464 14.8786 13.962 13.962C14.4819 13.4415 14.8941 12.8238 15.1752 12.144C15.4562 11.4641 15.6006 10.7356 15.6 10Z" fill="#F40000"/>
</svg>
