<svg width="20" height="20" viewBox="0 0 20 20" fill="none" xmlns="http://www.w3.org/2000/svg">
<path d="M2 15H18V5H2V15ZM3.24997 6.25L16.75 6.24988V13.7499H3.24997V6.25Z" fill="#F40000"/>
<path d="M14.9285 7.19643L14.8929 6.60724H5.08934V7.19652C5.06829 7.41339 4.97026 7.61531 4.81306 7.76601C4.65574 7.91673 4.4497 8.00604 4.23223 8.01787H3.60717V11.9643H4.21428C4.43176 11.976 4.63791 12.0654 4.79511 12.2162C4.95243 12.3668 5.05046 12.5689 5.07151 12.7856V13.3928H14.8929L14.9287 12.8035C14.9497 12.5866 15.0477 12.3847 15.205 12.234C15.3622 12.0833 15.5683 11.994 15.7858 11.9821H16.3929V8.0357H15.7858C15.5655 8.02336 15.3572 7.93156 15.1995 7.77723C15.0418 7.62277 14.9456 7.41655 14.9285 7.19643ZM15.1428 10.8393C14.5217 11.0483 14.0293 11.5279 13.8036 12.143H6.19648C5.97078 11.5279 5.47828 11.0484 4.8572 10.8394V9.16081C5.47828 8.95179 5.97078 8.47235 6.19648 7.85727H13.8036C14.0293 8.47235 14.5218 8.95178 15.1429 9.16081L15.1428 10.8393Z" fill="#F40000"/>
<path d="M9.99997 8.03571C9.47905 8.03571 8.97943 8.24274 8.61097 8.61107C8.24263 8.97953 8.03562 9.47915 8.03562 10.0001C8.03562 10.521 8.24264 11.0206 8.61097 11.3891C8.97943 11.7574 9.47905 11.9644 9.99997 11.9644C10.5209 11.9644 11.0205 11.7574 11.389 11.3891C11.7573 11.0206 11.9643 10.521 11.9643 10.0001C11.9643 9.47915 11.7573 8.97953 11.389 8.61107C11.0205 8.24273 10.5209 8.03571 9.99997 8.03571ZM9.99997 10.7143C9.81051 10.7143 9.62889 10.6391 9.49487 10.5051C9.36096 10.3711 9.28573 10.1895 9.28573 10C9.28573 9.81058 9.36096 9.62897 9.49487 9.49494C9.62889 9.36104 9.8105 9.2858 9.99997 9.2858C10.1894 9.2858 10.371 9.36104 10.5051 9.49494C10.639 9.62897 10.7142 9.81058 10.7142 10C10.7142 10.1895 10.639 10.3711 10.5051 10.5051C10.371 10.6391 10.1894 10.7143 9.99997 10.7143Z" fill="#F40000"/>
<path d="M6.3214 10C6.3214 10.286 6.08946 10.5178 5.80348 10.5178C5.51749 10.5178 5.28568 10.286 5.28568 10C5.28568 9.71402 5.51749 9.48221 5.80348 9.48221C6.08946 9.48221 6.3214 9.71402 6.3214 10Z" fill="#F40000"/>
<path d="M14.7143 10C14.7143 10.286 14.4824 10.5178 14.1965 10.5178C13.9105 10.5178 13.6785 10.286 13.6785 10C13.6785 9.71402 13.9105 9.48221 14.1965 9.48221C14.4824 9.48221 14.7143 9.71402 14.7143 10Z" fill="#F40000"/>
</svg>
