<svg width="18" height="17" viewBox="0 0 18 17" fill="none" xmlns="http://www.w3.org/2000/svg">
<path d="M11.1429 10.2857C11.8248 10.2857 12.4789 10.0148 12.9611 9.53256C13.4434 9.05032 13.7143 8.39627 13.7143 7.71429V2.57143C13.7143 1.88944 13.4434 1.23539 12.9611 0.753154C12.4789 0.270918 11.8248 0 11.1429 0H2.57143C1.88944 0 1.23539 0.270918 0.753154 0.753154C0.270918 1.23539 0 1.88944 0 2.57143V7.71429C0 8.39627 0.270918 9.05032 0.753154 9.53256C1.23539 10.0148 1.88944 10.2857 2.57143 10.2857H3.42857V12C3.42558 12.1516 3.46288 12.3014 3.53667 12.4339C3.61046 12.5664 3.71809 12.677 3.84857 12.7543C3.97887 12.8295 4.12668 12.8691 4.27714 12.8691C4.4276 12.8691 4.57541 12.8295 4.70571 12.7543L8.80286 10.2857H11.1429ZM5.14286 10.4743V9.42857C5.14465 9.31433 5.12358 9.20088 5.08089 9.0949C5.03821 8.98892 4.97476 8.89254 4.89429 8.81143C4.73114 8.65412 4.51232 8.56783 4.28571 8.57143H2.57143C2.3441 8.57143 2.12608 8.48112 1.96534 8.32038C1.80459 8.15963 1.71429 7.94161 1.71429 7.71429V2.57143C1.71429 2.3441 1.80459 2.12608 1.96534 1.96534C2.12608 1.80459 2.3441 1.71429 2.57143 1.71429H11.1429C11.3702 1.71429 11.5882 1.80459 11.7489 1.96534C11.9097 2.12608 12 2.3441 12 2.57143V7.71429C12 7.94161 11.9097 8.15963 11.7489 8.32038C11.5882 8.48112 11.3702 8.57143 11.1429 8.57143H8.57143C8.41759 8.57147 8.26659 8.61292 8.13429 8.69143L5.14286 10.4743ZM18 7.71429V11.1429C18 11.8248 17.7291 12.4789 17.2468 12.9611C16.7646 13.4434 16.1106 13.7143 15.4286 13.7143H14.5714V15.4286C14.5714 15.5878 14.5271 15.7438 14.4434 15.8792C14.3597 16.0146 14.24 16.124 14.0976 16.1952C13.9552 16.2664 13.7958 16.2965 13.6373 16.2823C13.4788 16.268 13.3273 16.2098 13.2 16.1143L10.0029 13.7143H8.57143C8.3441 13.7143 8.12608 13.624 7.96534 13.4632C7.80459 13.3025 7.71429 13.0845 7.71429 12.8571C7.71429 12.6298 7.80459 12.4118 7.96534 12.251C8.12608 12.0903 8.3441 12 8.57143 12H10.2857C10.3911 12.0034 10.4953 12.0236 10.5943 12.06L10.68 12.1114L10.8 12.1714L12.8571 13.7143V12.8571C12.8571 12.6298 12.9474 12.4118 13.1082 12.251C13.2689 12.0903 13.487 12 13.7143 12H15.4286C15.6559 12 15.8739 11.9097 16.0347 11.7489C16.1954 11.5882 16.2857 11.3702 16.2857 11.1429V7.71429C16.2857 7.48696 16.1954 7.26894 16.0347 7.10819C15.8739 6.94745 15.6559 6.85714 15.4286 6.85714C15.2012 6.85714 14.9832 6.76684 14.8225 6.60609C14.6617 6.44535 14.5714 6.22733 14.5714 6C14.5714 5.77267 14.6617 5.55465 14.8225 5.39391C14.9832 5.23316 15.2012 5.14286 15.4286 5.14286C16.1106 5.14286 16.7646 5.41377 17.2468 5.89601C17.7291 6.37825 18 7.0323 18 7.71429Z" fill="#0D0D0D"/>
</svg>
