<svg width="24" height="24" viewBox="0 0 24 24" fill="none" xmlns="http://www.w3.org/2000/svg">
<path d="M15.4999 11.8247C14.8794 11.2052 14.0432 10.8498 13.1666 10.833H13.0966H11.9299H10.9033C10.6312 10.8225 10.373 10.7101 10.1799 10.518C10.0885 10.4305 10.0155 10.3255 9.96542 10.2093C9.91532 10.093 9.88908 9.96791 9.88826 9.84134V9.73634C9.93518 9.38998 10.11 9.0737 10.3783 8.84967C10.8454 8.50167 11.4179 8.32458 11.9999 8.34801C12.1669 8.33601 12.3346 8.33601 12.5016 8.34801C13.155 8.43404 13.766 8.71918 14.2516 9.16467C14.3665 9.26656 14.5003 9.34481 14.6455 9.39497C14.7906 9.44512 14.9443 9.4662 15.0975 9.45699C15.2508 9.44778 15.4008 9.40847 15.5389 9.3413C15.677 9.27413 15.8005 9.18041 15.9024 9.06551C16.0043 8.9506 16.0826 8.81675 16.1327 8.6716C16.1829 8.52645 16.2039 8.37285 16.1947 8.21955C16.1855 8.06626 16.1462 7.91628 16.079 7.77818C16.0119 7.64008 15.9182 7.51656 15.8033 7.41467C15.0483 6.77572 14.1393 6.34536 13.1666 6.16634V4.99967C13.1666 4.69026 13.0437 4.39351 12.8249 4.17472C12.6061 3.95592 12.3093 3.83301 11.9999 3.83301C11.6905 3.83301 11.3938 3.95592 11.175 4.17472C10.9562 4.39351 10.8333 4.69026 10.8333 4.99967V6.16634C10.1141 6.30772 9.44086 6.62429 8.87326 7.08801C8.15033 7.7041 7.68762 8.57116 7.57826 9.51467C7.57223 9.62348 7.57223 9.73254 7.57826 9.84134C7.58331 10.7182 7.93572 11.5572 8.55826 12.1747C9.16427 12.7805 9.97695 13.1347 10.8333 13.1663H10.9033H12.0699H13.0966C13.3655 13.1809 13.621 13.2881 13.8199 13.4697C14.0032 13.6523 14.1079 13.8993 14.1116 14.158V14.2513C14.0653 14.6012 13.8906 14.9213 13.6216 15.1497C13.1544 15.4977 12.582 15.6748 11.9999 15.6513C11.8329 15.6633 11.6653 15.6633 11.4983 15.6513C10.848 15.5549 10.2399 15.2711 9.74826 14.8347C9.63581 14.7232 9.50184 14.6357 9.3545 14.5777C9.20717 14.5196 9.04955 14.4922 8.89127 14.497C8.73298 14.5018 8.57733 14.5388 8.4338 14.6057C8.29027 14.6726 8.16187 14.7681 8.05642 14.8862C7.95096 15.0043 7.87066 15.1427 7.82041 15.2929C7.77016 15.4431 7.75101 15.6019 7.76412 15.7597C7.77724 15.9175 7.82234 16.071 7.89669 16.2108C7.97104 16.3507 8.07308 16.4739 8.19659 16.573C8.94785 17.2199 9.85799 17.6548 10.8333 17.833V18.9997C10.8333 19.3091 10.9562 19.6058 11.175 19.8246C11.3938 20.0434 11.6905 20.1663 11.9999 20.1663C12.3093 20.1663 12.6061 20.0434 12.8249 19.8246C13.0437 19.6058 13.1666 19.3091 13.1666 18.9997V17.833C13.8866 17.6873 14.5597 17.3668 15.1266 16.8997C15.8542 16.2874 16.318 15.4183 16.4216 14.473C16.4274 14.3642 16.4274 14.2552 16.4216 14.1463C16.429 13.2818 16.0983 12.4487 15.4999 11.8247ZM23.6666 11.9997C23.6666 14.3071 22.9823 16.5628 21.7004 18.4813C20.4185 20.3999 18.5964 21.8952 16.4646 22.7783C14.3328 23.6613 11.987 23.8923 9.72387 23.4422C7.46076 22.992 5.38196 21.8809 3.75034 20.2493C2.11873 18.6176 1.00759 16.5388 0.557429 14.2757C0.107268 12.0126 0.338307 9.66684 1.22133 7.53503C2.10435 5.40323 3.5997 3.58115 5.51827 2.2992C7.43684 1.01725 9.69248 0.333008 11.9999 0.333008C13.532 0.333008 15.0491 0.634775 16.4646 1.22108C17.88 1.80738 19.1662 2.66675 20.2495 3.7501C21.3329 4.83345 22.1922 6.11957 22.7785 7.53503C23.3648 8.9505 23.6666 10.4676 23.6666 11.9997ZM21.3333 11.9997C21.3316 9.84045 20.5813 7.74861 19.2102 6.08055C17.8391 4.41248 15.9321 3.27139 13.8141 2.85169C11.6961 2.43199 9.49802 2.75965 7.59446 3.77883C5.69091 4.79801 4.19962 6.44567 3.37466 8.44109C2.5497 10.4365 2.44211 12.6562 3.07023 14.7221C3.69834 16.7879 5.0233 18.5721 6.81937 19.7706C8.61543 20.9691 10.7715 21.5078 12.9202 21.2949C15.0689 21.082 17.0773 20.1307 18.6033 18.603C19.4697 17.7356 20.1568 16.706 20.6252 15.5729C21.0936 14.4399 21.3342 13.2257 21.3333 11.9997Z" fill="#0D0D0D"/>
</svg>
