<svg width="46" height="40" viewBox="0 0 46 40" fill="none" xmlns="http://www.w3.org/2000/svg">
  <path
    d="M12.6694 39.8207L45.331 20.9636L33.331 0.178989L0.669449 19.0361L12.6694 39.8207ZM4.72107 20.161L32.2791 4.25006L41.2791 19.8385L13.7209 35.7492L4.72107 20.161Z"
    fill="#F40000" />
  <path
    d="M29.6968 8.36412L28.917 7.18149L8.90455 18.7357L9.6117 19.9605C9.82896 20.4361 9.87115 20.9713 9.7311 21.4698C9.59082 21.9685 9.27739 22.3969 8.84765 22.6778L7.57168 23.4145L12.3074 31.617L13.5467 30.9015C14.0047 30.6695 14.5329 30.6124 15.0346 30.7404C15.5365 30.868 15.9792 31.1726 16.2822 31.5983L17.0108 32.8602L37.0597 21.2849L36.4255 20.018C36.2083 19.5424 36.1658 19.0073 36.3061 18.5087C36.4462 18.0102 36.7599 17.5815 37.1896 17.3006L38.4289 16.5851L33.6932 8.38262L32.4539 9.09815C31.9893 9.33222 31.454 9.38685 30.9468 9.25196C30.4396 9.11678 29.9958 8.80152 29.6968 8.36412ZM34.5056 15.6831C33.4885 16.8496 33.0589 18.4266 33.3363 19.9711L17.8075 28.9366C16.6086 27.9242 15.0279 27.5082 13.5093 27.8057L11.4949 24.3168C12.512 23.1504 12.942 21.5734 12.6646 20.029L28.1935 11.0634C29.3923 12.0759 30.973 12.4919 32.4916 12.1943L34.5056 15.6831Z"
    fill="#F40000" />
  <path
    d="M20.643 15.9172C19.5796 16.5312 18.8082 17.5503 18.498 18.7501C18.1883 19.95 18.3652 21.2325 18.9903 22.3152C19.6154 23.3979 20.6376 24.1923 21.8316 24.5241C23.0258 24.8554 24.2941 24.6968 25.3574 24.0829C26.4208 23.4689 27.1923 22.4498 27.5025 21.25C27.8122 20.05 27.6352 18.7676 27.0101 17.6849C26.385 16.6022 25.3629 15.8078 24.1689 15.476C22.9747 15.1447 21.7064 15.3033 20.643 15.9172ZM23.8573 21.4845C23.4705 21.7078 23.0095 21.7655 22.5752 21.6451C22.1411 21.5244 21.7695 21.2356 21.5422 20.8418C21.3148 20.448 21.2505 19.9818 21.363 19.5455C21.4759 19.1092 21.7564 18.7388 22.1431 18.5155C22.5299 18.2922 22.9909 18.2345 23.4252 18.3549C23.8593 18.4756 24.2309 18.7644 24.4582 19.1582C24.6856 19.552 24.7499 20.0182 24.6374 20.4545C24.5245 20.8908 24.2441 21.2612 23.8573 21.4845Z"
    fill="#F40000" />
  <path
    d="M15.4909 24.3354C15.8341 24.9298 15.6388 25.6849 15.055 26.022C14.4712 26.359 13.7198 26.1504 13.3767 25.556C13.0335 24.9616 13.2285 24.2066 13.8123 23.8696C14.3961 23.5325 15.1477 23.741 15.4909 24.3354Z"
    fill="#F40000" />
  <path
    d="M32.6236 14.4438C32.9668 15.0382 32.7718 15.7932 32.188 16.1303C31.6042 16.4673 30.8526 16.2589 30.5094 15.6644C30.1662 15.07 30.3615 14.3149 30.9453 13.9778C31.5291 13.6408 32.2805 13.8494 32.6236 14.4438Z"
    fill="#F40000" />
</svg>