<svg width="28" height="28" viewBox="0 0 28 28" fill="none" xmlns="http://www.w3.org/2000/svg">
  <path
    d="M24 7V18.9782H21.9348V7H24ZM21.3152 7V18.9782H20.2826V7H21.3152ZM19.8696 7V18.9782H19.4566V7H19.8696ZM19.0436 7V18.9782H17.8044V7H19.0436ZM17.3914 7V18.9782H16.9784V7H17.3914ZM16.1522 7V18.9782H15.7392V7H16.1522ZM15.1196 7V18.9782H14.7066V7H15.1196ZM14.2936 7V18.9782H13.8806V7H14.2936ZM13.0544 7V18.9782H11.4022V7H13.0544ZM10.7826 7V18.9782H9.54341V7H10.7826ZM8.7174 7V18.9782H8.3044V7H8.7174ZM7.89139 7V18.9782H7.06539V7H7.89139ZM6.6522 7V18.9782H5V7H6.6522Z"
    fill="#F40000" />
</svg>
  