<svg width="29" height="31" viewBox="0 0 29 31" fill="none" xmlns="http://www.w3.org/2000/svg">
<path d="M16.9662 29.1663C16.9662 29.6084 16.7906 30.0323 16.478 30.3449C16.1655 30.6574 15.7415 30.833 15.2995 30.833H5.2995C3.97342 30.833 2.70165 30.3062 1.76397 29.3685C0.826284 28.4309 0.2995 27.1591 0.2995 25.833V5.83301C0.2995 4.50693 0.826284 3.23516 1.76397 2.29747C2.70165 1.35979 3.97342 0.833008 5.2995 0.833008H15.2995C15.7415 0.833008 16.1655 1.0086 16.478 1.32116C16.7906 1.63372 16.9662 2.05765 16.9662 2.49967C16.9662 2.9417 16.7906 3.36562 16.478 3.67819C16.1655 3.99075 15.7415 4.16634 15.2995 4.16634H5.2995C4.85747 4.16634 4.43355 4.34194 4.12099 4.6545C3.80843 4.96706 3.63283 5.39098 3.63283 5.83301V25.833C3.63283 26.275 3.80843 26.699 4.12099 27.0115C4.43355 27.3241 4.85747 27.4997 5.2995 27.4997H15.2995C15.7415 27.4997 16.1655 27.6753 16.478 27.9878C16.7906 28.3004 16.9662 28.7243 16.9662 29.1663ZM27.9662 14.833L21.2995 8.16634C21.1713 8.02204 21.0149 7.90546 20.8399 7.82378C20.665 7.74211 20.4752 7.69704 20.2823 7.69136C20.0893 7.68568 19.8972 7.7195 19.7178 7.79075C19.5383 7.862 19.3754 7.96917 19.2388 8.10568C19.1023 8.24219 18.9952 8.40517 18.9239 8.5846C18.8527 8.76403 18.8188 8.95613 18.8245 9.1491C18.8302 9.34207 18.8753 9.53185 18.9569 9.70678C19.0386 9.88171 19.1552 10.0381 19.2995 10.1663L23.2995 14.1663H10.2995C9.85747 14.1663 9.43355 14.3419 9.12099 14.6545C8.80843 14.9671 8.63283 15.391 8.63283 15.833C8.63283 16.275 8.80843 16.699 9.12099 17.0115C9.43355 17.3241 9.85747 17.4997 10.2995 17.4997H23.2995L19.2995 21.4997C19.0595 21.7697 18.9317 22.1213 18.9424 22.4824C18.953 22.8436 19.1012 23.187 19.3567 23.4425C19.6122 23.698 19.9556 23.8462 20.3167 23.8568C20.6779 23.8674 21.0294 23.7397 21.2995 23.4997L27.9662 16.833C28.2308 16.5675 28.3794 16.2079 28.3794 15.833C28.3794 15.4581 28.2308 15.0985 27.9662 14.833Z" fill="#F40000"/>
</svg>
