<svg width="89" height="91" viewBox="0 0 89 91" fill="none" xmlns="http://www.w3.org/2000/svg">
<path d="M89.3761 77.2118C89.3704 79.786 88.6018 82.3008 87.1674 84.4384C85.733 86.576 83.6972 88.2404 81.3172 89.2214C78.9372 90.2023 76.3199 90.4558 73.7959 89.9498C71.2719 89.4438 68.9545 88.201 67.1365 86.3785L37.449 56.7431C34.6055 57.6649 31.6361 58.1393 28.6469 58.1493C27.0401 58.1635 25.4356 58.0239 23.8553 57.7326C18.201 56.7997 12.9595 54.1832 8.81544 50.2249C4.67135 46.2667 1.81731 41.1507 0.626096 35.5451C0.208812 33.5584 -0.000647661 31.5336 0.00109629 29.5035C-0.0388868 24.979 1.01535 20.5119 3.07401 16.4826C3.44087 15.7471 3.97661 15.1088 4.63743 14.62C5.29825 14.1311 6.06538 13.8057 6.8761 13.6701C7.69292 13.5356 8.53005 13.5977 9.31807 13.8514C10.1061 14.105 10.8223 14.5428 11.4073 15.1285L24.5323 28.4097C24.7307 28.6082 24.9661 28.7656 25.2253 28.873C25.4844 28.9803 25.7622 29.0356 26.0428 29.0356C26.3233 29.0356 26.6011 28.9803 26.8602 28.873C27.1194 28.7656 27.3549 28.6082 27.5532 28.4097C27.7516 28.2114 27.909 27.976 28.0164 27.7168C28.1238 27.4576 28.1791 27.1798 28.1791 26.8993C28.1791 26.6188 28.1238 26.341 28.0164 26.0818C27.909 25.8227 27.7516 25.5872 27.5532 25.3889L14.4282 12.2639C13.8425 11.6789 13.4047 10.9626 13.1511 10.1746C12.8975 9.3866 12.8353 8.54947 12.9698 7.73265C13.0888 6.93677 13.3905 6.17928 13.8514 5.51961C14.3123 4.85994 14.9197 4.31603 15.6261 3.93056C16.6985 3.36048 17.8129 2.87296 18.9594 2.47223C22.0726 1.38439 25.3492 0.838289 28.6469 0.857644C30.3911 0.863793 32.1323 1.00309 33.8553 1.27431C39.6816 2.35295 45.0335 5.20232 49.1812 9.43391C53.3289 13.6655 56.0706 19.0734 57.0323 24.9201C57.2482 26.4378 57.3353 27.9711 57.2928 29.5035C57.2828 32.4926 56.8084 35.4621 55.8865 38.3056L85.5219 67.9931C86.7444 69.1967 87.7148 70.6319 88.3765 72.2147C89.0383 73.7975 89.3781 75.4962 89.3761 77.2118ZM78.9594 77.2118C78.9518 76.8596 78.8742 76.5125 78.7311 76.1906C78.588 75.8687 78.3824 75.5785 78.1261 75.3368L46.8761 44.0868V43.7743L45.7823 42.5243C45.2267 41.7891 44.8761 40.9196 44.7663 40.0046C44.6565 39.0896 44.7914 38.1618 45.1573 37.316C46.3033 34.8717 46.8904 32.203 46.8761 29.5035C46.9789 28.5166 46.9789 27.5216 46.8761 26.5347C46.2541 22.7957 44.4788 19.3446 41.7985 16.6644C39.1183 13.9841 35.6672 12.2088 31.9282 11.5868C30.8467 11.3796 29.7481 11.275 28.6469 11.2743H28.2303L34.949 18.0451C36.1206 19.2029 37.0508 20.5817 37.6856 22.1015C38.3205 23.6214 38.6474 25.2522 38.6474 26.8993C38.6474 28.5464 38.3205 30.1772 37.6856 31.6971C37.0508 33.217 36.1206 34.5957 34.949 35.7535C32.5725 38.0883 29.3743 39.3965 26.0428 39.3965C22.7113 39.3965 19.513 38.0883 17.1365 35.7535L10.4178 29.0868C10.4178 29.0868 10.4178 29.3472 10.4178 29.5035C10.4046 30.8173 10.5444 32.1282 10.8344 33.4097C11.5625 36.9954 13.3526 40.279 15.9721 42.8334C18.5916 45.3879 21.9191 47.095 25.5219 47.7326C26.5562 47.8927 27.6004 47.9797 28.6469 47.9931C31.3664 47.9262 34.0362 47.2499 36.4594 46.0139C37.3052 45.648 38.233 45.513 39.148 45.6228C40.063 45.7326 40.9325 46.0832 41.6678 46.6389L42.8136 47.5243L43.2823 47.941L74.5323 79.191C75.0292 79.6895 75.7035 79.9705 76.4073 79.9722C77.0938 79.9589 77.7485 79.6802 78.234 79.1947C78.7195 78.7092 78.9982 78.0546 79.0115 77.3681L78.9594 77.2118Z" fill="#F40000"/>
</svg>
