<svg width="20" height="20" viewBox="0 0 20 20" fill="none" xmlns="http://www.w3.org/2000/svg">
  <path
    d="M3 5.33247C3 5.12619 3.08194 4.92836 3.22781 4.78249C3.37367 4.63663 3.5715 4.55469 3.77778 4.55469H16.2222C16.4285 4.55469 16.6263 4.63663 16.7722 4.78249C16.9181 4.92836 17 5.12619 17 5.33247C17 5.53874 16.9181 5.73658 16.7722 5.88244C16.6263 6.0283 16.4285 6.11024 16.2222 6.11024H3.77778C3.5715 6.11024 3.37367 6.0283 3.22781 5.88244C3.08194 5.73658 3 5.53874 3 5.33247ZM16.2222 9.22135H3.77778C3.5715 9.22135 3.37367 9.3033 3.22781 9.44916C3.08194 9.59502 3 9.79285 3 9.99913C3 10.2054 3.08194 10.4032 3.22781 10.5491C3.37367 10.695 3.5715 10.7769 3.77778 10.7769H16.2222C16.4285 10.7769 16.6263 10.695 16.7722 10.5491C16.9181 10.4032 17 10.2054 17 9.99913C17 9.79285 16.9181 9.59502 16.7722 9.44916C16.6263 9.3033 16.4285 9.22135 16.2222 9.22135ZM16.2222 13.888H3.77778C3.5715 13.888 3.37367 13.97 3.22781 14.1158C3.08194 14.2617 3 14.4595 3 14.6658C3 14.8721 3.08194 15.0699 3.22781 15.2158C3.37367 15.3616 3.5715 15.4436 3.77778 15.4436H16.2222C16.4285 15.4436 16.6263 15.3616 16.7722 15.2158C16.9181 15.0699 17 14.8721 17 14.6658C17 14.4595 16.9181 14.2617 16.7722 14.1158C16.6263 13.97 16.4285 13.888 16.2222 13.888Z"
    fill="#f40000" />
</svg>
  