<svg width="36" height="36" viewBox="0 0 36 36" fill="none" xmlns="http://www.w3.org/2000/svg">
  <path
    d="M35.1818 31.0909H33.5455V14.6108C34.9532 14.2436 35.9996 12.9651 35.9976 11.3918L35.1794 0.75546C35.1467 0.32919 34.7911 0 34.3636 0H29.4545H24.5455H20.4545H15.5455H11.4545H6.54545H1.63636C1.2089 0 0.853338 0.32919 0.820579 0.75546L0 11.4545C0 12.975 1.04705 14.2451 2.45455 14.6111V31.0909H0.818182C0.366344 31.0909 0 31.4569 0 31.9091V35.1818C0 35.6341 0.366344 36 0.818182 36H35.1818C35.6341 36 36 35.6341 36 35.1818V31.9091C36 31.4569 35.6341 31.0909 35.1818 31.0909ZM33.6062 1.63636L34.3636 11.4545C34.3636 12.357 33.6293 13.0909 32.7273 13.0909C31.8252 13.0909 31.0909 12.357 31.0885 11.3918L30.3382 1.63636H33.6062ZM28.697 1.63636L29.4545 11.4545C29.4545 12.357 28.7203 13.0909 27.8182 13.0909C26.9161 13.0909 26.1818 12.357 26.1794 11.3918L25.4292 1.63636H28.697ZM21.2727 1.63636H23.7879L24.5455 11.4545C24.5455 12.357 23.8112 13.0909 22.9091 13.0909C22.007 13.0909 21.2727 12.357 21.2727 11.4545V1.63636ZM16.3636 1.63636H19.6364V11.4545C19.6364 12.357 18.9021 13.0909 18 13.0909C17.0975 13.0909 16.3636 12.357 16.3636 11.4545V1.63636ZM12.2124 1.63636H14.7273V11.4545C14.7273 12.357 13.9934 13.0909 13.0909 13.0909C12.1884 13.0909 11.4545 12.357 11.4521 11.5173L12.2124 1.63636ZM7.30331 1.63636H10.5712L9.81818 11.4545C9.81818 12.357 9.0843 13.0909 8.18182 13.0909C7.27934 13.0909 6.54545 12.357 6.54306 11.5173L7.30331 1.63636ZM8.18182 14.7273C9.16644 14.7273 10.0404 14.2814 10.6405 13.6013C11.2408 14.2857 12.1112 14.7273 13.0909 14.7273C14.073 14.7273 14.9451 14.2835 15.5455 13.5962C16.1458 14.2835 17.0179 14.7273 18 14.7273C18.9822 14.7273 19.8542 14.2835 20.4545 13.5964C21.0548 14.2835 21.9269 14.7273 22.9091 14.7273C23.889 14.7273 24.7593 14.2853 25.3591 13.5909C25.9595 14.2812 26.8335 14.7273 27.8182 14.7273C28.7981 14.7273 29.6684 14.2853 30.2682 13.5909C30.6954 14.082 31.2606 14.4426 31.9091 14.6111V31.0909H15.5455V18.8182C15.5455 18.3663 15.1791 18 14.7273 18H7.36364C6.9118 18 6.54545 18.3663 6.54545 18.8182V31.0909H4.09091V14.6114C4.73935 14.4434 5.3045 14.0851 5.73142 13.6013C6.33172 14.2857 7.20209 14.7273 8.18182 14.7273ZM13.9091 19.6364V31.0909H8.18182V19.6364H13.9091ZM1.63397 11.5173L2.39422 1.63636H5.6621L4.90909 11.4545C4.90909 12.357 4.1752 13.0909 3.27273 13.0909C2.37025 13.0909 1.63636 12.357 1.63397 11.5173ZM34.3636 34.3636H1.63636V32.7273H3.27273H7.36364H14.7273H32.7273H34.3636V34.3636ZM18 27H29.4545C29.9068 27 30.2727 26.6341 30.2727 26.1818V18.8182C30.2727 18.3663 29.9068 18 29.4545 18H18C17.5482 18 17.1818 18.3663 17.1818 18.8182V26.1818C17.1818 26.6341 17.5482 27 18 27ZM18.8182 19.6364H28.6364V25.3636H18.8182V19.6364Z"
    fill="#F40000" />
</svg>
  