<svg width="26" height="26" viewBox="0 0 26 26" fill="none" xmlns="http://www.w3.org/2000/svg">
  <path
    d="M21.6667 0H4.33333C3.18406 0 2.08186 0.456546 1.2692 1.2692C0.456546 2.08186 0 3.18406 0 4.33333V21.6667C0 22.8159 0.456546 23.9181 1.2692 24.7308C2.08186 25.5435 3.18406 26 4.33333 26H21.6667C22.8159 26 23.9181 25.5435 24.7308 24.7308C25.5435 23.9181 26 22.8159 26 21.6667V4.33333C26 3.18406 25.5435 2.08186 24.7308 1.2692C23.9181 0.456546 22.8159 0 21.6667 0ZM23.1111 21.6667C23.1111 22.0498 22.9589 22.4172 22.688 22.688C22.4172 22.9589 22.0498 23.1111 21.6667 23.1111H4.33333C3.95024 23.1111 3.58284 22.9589 3.31196 22.688C3.04107 22.4172 2.88889 22.0498 2.88889 21.6667V4.33333C2.88889 3.95024 3.04107 3.58284 3.31196 3.31196C3.58284 3.04107 3.95024 2.88889 4.33333 2.88889H21.6667C22.0498 2.88889 22.4172 3.04107 22.688 3.31196C22.9589 3.58284 23.1111 3.95024 23.1111 4.33333V21.6667ZM20.2222 7.22222C20.2222 9.13767 19.4613 10.9747 18.1069 12.3291C16.7525 13.6835 14.9155 14.4444 13 14.4444C11.0845 14.4444 9.24755 13.6835 7.89312 12.3291C6.53869 10.9747 5.77778 9.13767 5.77778 7.22222C5.77778 6.83913 5.92996 6.47173 6.20085 6.20085C6.47173 5.92996 6.83913 5.77778 7.22222 5.77778C7.60531 5.77778 7.97271 5.92996 8.2436 6.20085C8.51448 6.47173 8.66667 6.83913 8.66667 7.22222C8.66667 8.37149 9.12321 9.47369 9.93587 10.2864C10.7485 11.099 11.8507 11.5556 13 11.5556C14.1493 11.5556 15.2515 11.099 16.0641 10.2864C16.8768 9.47369 17.3333 8.37149 17.3333 7.22222C17.3333 6.83913 17.4855 6.47173 17.7564 6.20085C18.0273 5.92996 18.3947 5.77778 18.7778 5.77778C19.1609 5.77778 19.5283 5.92996 19.7992 6.20085C20.07 6.47173 20.2222 6.83913 20.2222 7.22222Z"
    fill="#F40000" />
</svg>