<svg width="20" height="20" viewBox="0 0 20 20" fill="none" xmlns="http://www.w3.org/2000/svg">
  <path
    d="M8.5912 1H10.3331C10.4966 1.03003 10.6042 1.18801 10.6197 1.35511C10.5811 1.42161 10.525 1.49189 10.546 1.57557C10.607 1.79029 10.7388 1.98769 10.7379 2.21847C10.6999 2.31583 10.569 2.34402 10.5549 2.45441C10.542 2.61697 10.5619 2.77981 10.5604 2.94266C10.5771 3.35722 10.58 3.77601 10.6666 4.18268C10.7264 4.46956 10.773 4.76221 10.8769 5.03636C11.0915 5.65082 11.3059 6.26576 11.5536 6.86644C11.641 7.09691 11.7288 7.33224 11.7524 7.58092C11.7593 7.66578 11.7448 7.75106 11.7104 7.82809C11.9751 8.87523 12.1137 9.9703 12.0047 11.0526C11.9966 11.1883 11.9426 11.3286 11.9896 11.462C12.0589 11.667 12.0327 11.8893 12.0098 12.1007C11.9543 12.5298 11.8918 12.9577 11.8302 13.3859C11.7594 13.9048 11.6671 14.4219 11.6406 14.9462C11.5932 15.5091 11.6475 16.0765 11.8009 16.618C11.9294 17.0954 12.2546 17.5996 12.2325 18.1058C12.2325 18.6089 12.1478 18.9946 11.8552 19.2378C11.4812 19.5504 10.934 19.556 10.4716 19.6151C9.85811 19.6782 9.07215 19.6836 8.45915 19.6151C8.00513 19.552 7.43381 19.5583 7.07559 19.2378C6.79507 18.9865 6.69428 18.6103 6.69828 18.2315C6.68276 17.7254 7.01246 17.0682 7.13763 16.5896C7.27783 16.0872 7.33142 15.5624 7.29586 15.04C7.27975 14.8332 7.27199 14.625 7.24464 14.4192C7.15083 13.7072 7.04065 12.9976 6.94465 12.2859C6.91647 12.0627 6.87875 11.8364 6.90611 11.6112C6.91561 11.5083 6.97417 11.4134 6.95819 11.3082C6.79332 10.1461 6.93489 8.95766 7.22001 7.82892C7.18594 7.75134 7.17167 7.66573 7.17859 7.58055C7.20075 7.33915 7.28447 7.1105 7.36904 6.887C7.61274 6.29231 7.82764 5.68489 8.0396 5.07687C8.16935 4.73053 8.22748 4.36087 8.29711 3.99757C8.365 3.53813 8.36157 3.07111 8.37969 2.60742C8.37911 2.5398 8.3866 2.46822 8.36157 2.40425C8.3138 2.33267 8.22491 2.2984 8.19153 2.21563C8.19527 1.99668 8.30921 1.80532 8.3774 1.60457C8.41269 1.5136 8.35698 1.42808 8.31007 1.35649C8.3265 1.19075 8.43062 1.03517 8.5912 1Z"
    fill="#D8D8D8" />
  <path fill-rule="evenodd" clip-rule="evenodd"
    d="M17.5149 3.7379C16.8246 3.71216 15.8943 3.89643 14.5756 4.31574C12.374 5.01627 9.56521 6.61231 8.43479 7.32403C4.92 9.5836 3.33267 11.1299 2.41524 12.0891L2.41379 12.0906L2.41377 12.0906C1.89371 12.6106 1.17056 13.4652 0.690901 14.3364C0.45098 14.7722 0.274879 15.2071 0.212913 15.603C0.151746 15.9938 0.202736 16.3384 0.403627 16.6121C0.684713 16.8423 1.07842 16.9676 1.54286 17.012C2.0111 17.0568 2.54244 17.0186 3.08336 16.9303C4.16521 16.7536 5.27093 16.3789 5.95764 16.0876L6.03132 16.2613C5.33453 16.5569 4.21407 16.9368 3.11377 17.1165C2.5636 17.2063 2.01487 17.2467 1.52488 17.1998C1.03581 17.153 0.5964 17.0184 0.274316 16.75L0.265852 16.7429L0.25924 16.7341C0.0127845 16.4055 -0.0403125 16.0008 0.026516 15.5738C0.0932054 15.1477 0.280273 14.6911 0.525625 14.2454C1.01628 13.3542 1.75164 12.486 2.27962 11.9579C3.20693 10.9885 4.80584 9.43266 8.33315 7.16508L8.3339 7.1646C9.46763 6.45076 12.2931 4.84401 14.5184 4.13595L14.5184 4.13595C15.841 3.7154 16.7973 3.52235 17.5219 3.54936C18.254 3.57665 18.751 3.82882 19.1465 4.29023L19.1485 4.29257L19.1503 4.29504C19.3026 4.49821 19.3699 4.91878 19.184 5.53627C18.9967 6.15871 18.5481 6.99821 17.6372 8.06101C15.8189 10.1824 12.8967 12.4767 11.9701 13.1085L11.8638 12.9526C12.7819 12.3266 15.69 10.0429 17.4939 7.93823C18.3941 6.88802 18.826 6.07131 19.0034 5.4819C19.1812 4.89099 19.0996 4.54465 19.0011 4.41053C18.6423 3.99309 18.1964 3.7633 17.5149 3.7379Z"
    fill="#D8D8D8" />
  <circle cx="6.06883" cy="16.2187" r="0.628888" fill="white" />
  <path
    d="M6.69772 16.2187C6.69772 16.5661 6.41616 16.8476 6.06883 16.8476C5.7215 16.8476 5.43994 16.5661 5.43994 16.2187C5.43994 15.8714 5.7215 15.5898 6.06883 15.5898C6.41616 15.5898 6.69772 15.8714 6.69772 16.2187Z"
    fill="#D8D8D8" />
  <path fill-rule="evenodd" clip-rule="evenodd"
    d="M6.06883 16.659C6.31196 16.659 6.50905 16.4619 6.50905 16.2187C6.50905 15.9756 6.31196 15.7785 6.06883 15.7785C5.8257 15.7785 5.62861 15.9756 5.62861 16.2187C5.62861 16.4619 5.8257 16.659 6.06883 16.659ZM6.06883 16.8476C6.41616 16.8476 6.69772 16.5661 6.69772 16.2187C6.69772 15.8714 6.41616 15.5898 6.06883 15.5898C5.7215 15.5898 5.43994 15.8714 5.43994 16.2187C5.43994 16.5661 5.7215 16.8476 6.06883 16.8476Z"
    fill="white" />
  <path
    d="M14.3708 12.8544C14.3708 13.775 13.6246 14.5212 12.704 14.5212C11.7834 14.5212 11.0371 13.775 11.0371 12.8544C11.0371 11.9338 11.7834 11.1875 12.704 11.1875C13.6246 11.1875 14.3708 11.9338 14.3708 12.8544Z"
    fill="white" />
  <path fill-rule="evenodd" clip-rule="evenodd"
    d="M12.704 14.3326C13.5204 14.3326 14.1822 13.6708 14.1822 12.8544C14.1822 12.038 13.5204 11.3762 12.704 11.3762C11.8876 11.3762 11.2258 12.038 11.2258 12.8544C11.2258 13.6708 11.8876 14.3326 12.704 14.3326ZM12.704 14.5212C13.6246 14.5212 14.3708 13.775 14.3708 12.8544C14.3708 11.9338 13.6246 11.1875 12.704 11.1875C11.7834 11.1875 11.0371 11.9338 11.0371 12.8544C11.0371 13.775 11.7834 14.5212 12.704 14.5212Z"
    fill="#D8D8D8" />
  <path
    d="M16.4458 3.89209C16.4458 4.34378 16.0796 4.70996 15.6279 4.70996C15.1762 4.70996 14.8101 4.34378 14.8101 3.89209C14.8101 3.44039 15.1762 3.07422 15.6279 3.07422C16.0796 3.07422 16.4458 3.44039 16.4458 3.89209Z"
    fill="white" />
  <path fill-rule="evenodd" clip-rule="evenodd"
    d="M15.6279 4.52129C15.9754 4.52129 16.2571 4.23959 16.2571 3.89209C16.2571 3.54459 15.9754 3.26289 15.6279 3.26289C15.2804 3.26289 14.9987 3.54459 14.9987 3.89209C14.9987 4.23959 15.2804 4.52129 15.6279 4.52129ZM15.6279 4.70996C16.0796 4.70996 16.4458 4.34378 16.4458 3.89209C16.4458 3.44039 16.0796 3.07422 15.6279 3.07422C15.1762 3.07422 14.8101 3.44039 14.8101 3.89209C14.8101 4.34378 15.1762 4.70996 15.6279 4.70996Z"
    fill="#D8D8D8" />
</svg>
  