<svg width="153" height="105" viewBox="0 0 153 105" fill="none" xmlns="http://www.w3.org/2000/svg">
<g clip-path="url(#clip0_5524_102951)">
<path d="M138.172 75.2145L40.9764 73.2045C39.2076 73.1725 37.5197 71.8888 37.2056 70.3366L30.062 14.6092C29.7425 13.0453 30.8787 11.7213 32.6008 11.6522L123.182 8.52866C124.912 8.4778 126.628 9.82199 127.015 11.5301L140.702 72.2352C141.082 73.9308 139.95 75.2639 138.173 75.2145L138.172 75.2145Z" fill="url(#paint0_linear_5524_102951)"/>
<path d="M109.775 84.754L14.8232 81.9866C13.0938 81.9415 11.9694 80.4675 12.3118 78.6941L28.6929 15.0245C29.0356 13.2367 30.7119 11.7299 32.4373 11.6607L123.027 8.53438C124.753 8.48535 125.88 10.0283 125.543 11.9801L113.519 81.3658C113.182 83.3042 111.506 84.821 109.776 84.7556L109.775 84.754Z" fill="url(#paint1_linear_5524_102951)"/>
<path d="M104.653 76.4292L19.6217 74.1085C18.0019 74.0731 16.9519 72.7945 17.2777 71.2515L28.8726 15.9903C29.1971 14.4356 30.7715 13.1218 32.3879 13.0572L117.24 10.1299C118.857 10.0829 119.909 11.4221 119.588 13.1198L108.167 73.4733C107.847 75.1593 106.273 76.4823 104.653 76.4292L104.653 76.4292Z" fill="url(#paint2_linear_5524_102951)"/>
<path d="M104.653 76.4292L19.6217 74.1085C18.0019 74.0731 16.9519 72.7945 17.2777 71.2515L28.8726 15.9903C29.1971 14.4356 30.7715 13.1218 32.3879 13.0572L117.24 10.1299C118.857 10.0829 119.909 11.4221 119.588 13.1198L108.167 73.4733C107.847 75.1593 106.273 76.4823 104.653 76.4292L104.653 76.4292Z" fill="url(#paint3_linear_5524_102951)"/>
<mask id="mask0_5524_102951" style="mask-type:luminance" maskUnits="userSpaceOnUse" x="11" y="7" width="105" height="63">
<path d="M100.63 69.5504L14.335 68.5169C12.2811 68.445 10.9648 66.3148 11.8287 64.4603C11.8965 64.314 11.9462 64.2079 11.9717 64.159C16.1477 56.014 19.5536 47.3405 22.0553 38.5564C24.5078 29.9433 26.7588 20.985 26.5215 11.9571C26.4798 10.3678 27.7534 9.05084 29.3517 9.0264L112.767 7.30208C114.435 7.27695 115.775 8.66179 115.681 10.3181C115.19 18.9575 114.146 27.9039 112.435 36.3922C110.802 44.4905 108.312 52.3882 105.959 60.299C105.221 62.7791 104.344 65.2496 103.429 67.6878C102.995 68.842 101.869 69.5939 100.63 69.5504Z" fill="white"/>
</mask>
<g mask="url(#mask0_5524_102951)">
<path d="M100.63 69.5504L14.335 68.5169C12.2811 68.445 10.9648 66.3148 11.8287 64.4603C11.8965 64.314 11.9462 64.2079 11.9717 64.159C16.1477 56.014 19.5536 47.3405 22.0553 38.5564C24.5078 29.9433 26.7588 20.985 26.5215 11.9571C26.4798 10.3678 27.7534 9.05084 29.3517 9.0264L112.767 7.30208C114.435 7.27695 115.775 8.66179 115.681 10.3181C115.19 18.9575 114.146 27.9039 112.435 36.3922C110.802 44.4905 108.312 52.3882 105.959 60.299C105.221 62.7791 104.344 65.2496 103.429 67.6878C102.995 68.842 101.869 69.5939 100.63 69.5504Z" fill="url(#paint4_radial_5524_102951)"/>
<path d="M100.63 69.5504L14.335 68.5169C12.2811 68.445 10.9648 66.3148 11.8287 64.4603C11.8965 64.314 11.9462 64.2079 11.9717 64.159C16.1477 56.014 19.5536 47.3405 22.0553 38.5564C24.5078 29.9433 26.7588 20.985 26.5215 11.9571C26.4798 10.3678 27.7534 9.05084 29.3517 9.0264L112.767 7.30208C114.435 7.27695 115.775 8.66179 115.681 10.3181C115.19 18.9575 114.146 27.9039 112.435 36.3922C110.802 44.4905 108.312 52.3882 105.959 60.299C105.221 62.7791 104.344 65.2496 103.429 67.6878C102.995 68.842 101.869 69.5939 100.63 69.5504Z" fill="url(#paint5_linear_5524_102951)"/>
</g>
<path d="M45.8679 30.6273C43.5923 30.6328 41.3158 30.6376 39.0401 30.6431C37.9535 30.6458 37.2036 29.8698 37.3478 28.9116C37.6509 26.9053 37.8992 24.9052 38.0926 22.912C38.1853 21.9597 39.1304 21.1879 40.2203 21.1851C42.5027 21.1794 44.7852 21.1736 47.0667 21.167C48.1567 21.1642 48.9766 21.9319 48.8805 22.8843C48.6803 24.8786 48.4253 26.8798 48.1163 28.8862C47.9687 29.8446 46.9545 30.6246 45.8679 30.6264L45.8679 30.6273ZM65.4501 28.8465C65.7693 26.8388 66.0335 24.8365 66.2438 22.841C66.3442 21.8885 65.5284 21.1198 64.4393 21.1226C62.1577 21.1283 59.8753 21.1341 57.5938 21.1398C56.5038 21.1426 55.5554 21.9154 55.4576 22.8678C55.2532 24.8622 54.9948 26.8644 54.6824 28.8709C54.5332 29.8293 55.2789 30.6055 56.3663 30.6028C58.6419 30.5972 60.9176 30.5925 63.1933 30.587C64.2799 30.5843 65.2983 29.8041 65.4501 28.8456L65.4501 28.8465ZM82.7805 28.806C83.1098 26.7972 83.3842 24.7945 83.6046 22.797C83.71 21.8434 82.8985 21.0746 81.8094 21.0774C79.5278 21.0831 77.2462 21.0889 74.9646 21.0946C73.8747 21.0974 72.9229 21.8703 72.82 22.8237C72.6064 24.8201 72.3379 26.8227 72.0145 28.8304C71.8602 29.789 72.6025 30.5661 73.6891 30.5634C75.9648 30.5579 78.2396 30.5532 80.5152 30.5477C81.601 30.545 82.6237 29.7647 82.7805 28.8052L82.7805 28.806ZM100.108 28.7665C100.448 26.7573 100.732 24.7526 100.963 22.7547C101.073 21.801 100.265 21.0312 99.1761 21.034C96.8954 21.0397 94.6138 21.0454 92.3322 21.0512C91.2422 21.054 90.2871 21.8278 90.1792 22.7814C89.9554 24.779 89.6768 26.7827 89.3433 28.7917C89.1847 29.7504 89.922 30.5277 91.0086 30.525C93.2834 30.5195 95.5582 30.5148 97.833 30.5093C98.9187 30.5066 99.9448 29.7262 100.107 28.7665L100.108 28.7665ZM42.5799 44.4195C40.3118 44.4248 38.0438 44.4292 35.7757 44.4345C34.6925 44.4371 34.0306 43.658 34.2789 42.6962C34.8002 40.6825 35.2667 38.6749 35.6784 36.6742C35.8752 35.7184 36.9006 34.9439 37.9872 34.9412C40.262 34.9357 42.536 34.9302 44.8099 34.9239C45.8956 34.9212 46.6284 35.6919 46.4283 36.6478C46.0107 38.6496 45.5374 40.6583 45.0093 42.6722C44.7577 43.6341 43.6614 44.417 42.5782 44.4187L42.5799 44.4195ZM62.2839 42.6345C62.8221 40.6194 63.3047 38.6095 63.7332 36.6066C63.9376 35.6505 63.209 34.8788 62.1233 34.8815C59.8493 34.8869 57.5754 34.8924 55.3014 34.8979C54.2148 34.9006 53.1861 35.6761 52.9842 36.6321C52.5624 38.634 52.0858 40.6436 51.5543 42.6577C51.3009 43.6196 51.9586 44.3988 53.0418 44.3962C55.3099 44.391 57.5771 44.3865 59.8451 44.3813C60.9275 44.3787 62.028 43.5957 62.2847 42.6336L62.2839 42.6345ZM79.5542 42.5961C80.1026 40.5798 80.5953 38.5696 81.0339 36.5646C81.2434 35.6075 80.519 34.8357 79.4333 34.8383C77.1602 34.8438 74.8862 34.8493 72.6122 34.8548C71.5265 34.8574 70.4926 35.6331 70.2866 36.5901C69.8547 38.594 69.3679 40.604 68.8263 42.6192C68.5679 43.5814 69.2214 44.3615 70.3046 44.3589C72.5718 44.3537 74.839 44.3493 77.1062 44.344C78.1885 44.3415 79.2924 43.5584 79.5542 42.5953L79.5542 42.5961ZM96.8212 42.5587C97.3797 40.542 97.8825 38.5298 98.3313 36.5244C98.5458 35.5672 97.8257 34.7943 96.7399 34.797C94.4668 34.8024 92.1937 34.8079 89.9206 34.8134C88.8348 34.816 87.7976 35.5926 87.5865 36.5498C87.1445 38.5549 86.6476 40.5661 86.095 42.5825C85.8315 43.5449 86.4816 44.3251 87.564 44.3226C89.8312 44.3173 92.0975 44.313 94.3647 44.3077C95.4471 44.3051 96.5544 43.5219 96.8212 42.5587ZM38.0305 58.0343C35.7701 58.0393 33.5096 58.0435 31.2492 58.0485C30.1694 58.051 29.5921 57.269 29.9401 56.3038C30.6713 54.2829 31.3468 52.2681 31.9674 50.2603C32.264 49.3011 33.3673 48.5239 34.4496 48.5213C36.7168 48.5161 38.9832 48.5108 41.2495 48.5048C42.3318 48.5022 42.9809 49.2758 42.6817 50.2351C42.0552 52.244 41.373 54.2599 40.6359 56.281C40.2836 57.2463 39.1095 58.0318 38.0305 58.0334L38.0305 58.0343ZM57.8504 56.2453C58.5976 54.223 59.2899 52.206 59.9275 50.1959C60.2317 49.2364 59.5868 48.4618 58.5045 48.4644C56.2382 48.4696 53.9718 48.4748 51.7055 48.48C50.6231 48.4826 49.5157 49.2608 49.2148 50.2201C48.584 52.2292 47.8985 54.246 47.1572 56.2672C46.804 57.2326 47.3771 58.0147 48.4569 58.0122C50.7174 58.0072 52.977 58.0031 55.2374 57.998C56.3163 57.9956 57.4947 57.2099 57.8512 56.2444L57.8504 56.2453ZM75.0624 56.2089C75.8197 54.1854 76.523 52.168 77.1698 50.1559C77.4791 49.1954 76.8385 48.4207 75.7561 48.4232C73.4898 48.4285 71.2243 48.4336 68.9579 48.4389C67.8756 48.4414 66.7647 49.2197 66.4588 50.1801C65.818 52.1912 65.1223 54.2083 64.3708 56.2308C64.0126 57.1963 64.5823 57.9794 65.6613 57.9769C67.9209 57.9719 70.1805 57.9678 72.4401 57.9628C73.519 57.9604 74.7007 57.1746 75.0623 56.2081L75.0624 56.2089ZM92.2718 56.1734C93.0401 54.1496 93.7527 52.1302 94.4096 50.1177C94.724 49.157 94.0867 48.3813 93.0052 48.3839C90.7397 48.3891 88.4742 48.3943 86.2087 48.3994C85.1264 48.402 84.0113 49.1813 83.7004 50.1419C83.0494 52.1541 82.3427 54.1725 81.5811 56.1961C81.2178 57.1618 81.7834 57.945 82.8623 57.9426C85.1219 57.9376 87.3807 57.9335 89.6402 57.9285C90.7184 57.9261 91.9043 57.1402 92.271 56.1735L92.2718 56.1734Z" fill="url(#paint6_linear_5524_102951)"/>
<path d="M38.8167 9.99277C39.0451 9.63882 39.2379 9.25831 39.4568 8.87438C39.5383 8.73095 39.6206 8.58666 39.6694 8.42919C39.6983 8.33472 39.7161 8.23474 39.7691 8.1504C39.9096 7.92495 40.2283 7.90645 40.494 7.92598C41.5545 8.00249 41.8784 8.58088 41.8704 9.58413C41.8572 11.3236 41.23 13.0167 40.0245 14.2707C39.0619 15.2713 37.8487 15.8316 36.4532 15.8642C36.19 15.8707 35.9194 15.8581 35.6763 15.7595C35.1876 15.5615 34.8873 15.0294 34.8694 14.5054C34.8046 12.6162 36.8546 11.8588 38.0493 10.8822C38.3681 10.6212 38.6085 10.3191 38.8192 9.99352L38.8167 9.99277Z" fill="url(#paint7_radial_5524_102951)"/>
<path d="M41.6798 8.13599C41.6114 7.86969 41.5354 7.60534 41.4477 7.34476C41.2872 6.8635 41.0924 6.39185 40.85 5.94372C40.4461 5.20385 39.8901 4.50035 39.1253 4.10801C38.6417 3.861 38.0972 3.76428 37.5568 3.81311C35.4823 4.00292 34.2513 6.11926 33.9487 8.93056C33.8617 9.73103 33.8497 10.5896 33.9164 11.4757C33.9739 12.2393 34.0965 12.998 34.2938 13.7382C34.5321 14.6387 34.8983 16.2784 36.1928 15.9916C36.9569 15.8222 36.9382 14.8544 36.6452 14.2893C36.3931 13.8011 36.0838 13.426 35.944 12.8808C35.8157 12.3757 35.7791 11.8498 35.7807 11.3285C35.7843 10.5191 35.8432 9.66736 35.9723 8.88817C36.2294 7.31806 36.7667 6.04151 37.6921 5.98201C38.2888 5.94389 38.6914 6.37389 38.932 6.87093C39.0887 7.19146 39.192 7.53741 39.2742 7.88324C39.3433 8.17056 39.3561 8.46992 39.4336 8.75527C39.4394 8.77613 39.4452 8.79698 39.4518 8.81612L41.8615 8.76641C41.8545 8.56286 41.7208 8.29459 41.6797 8.1343L41.6798 8.13599Z" fill="url(#paint8_radial_5524_102951)"/>
<path d="M41.6798 8.13599C41.6114 7.86969 41.5354 7.60534 41.4477 7.34476C41.2872 6.8635 41.0924 6.39185 40.85 5.94372C40.4461 5.20385 39.8901 4.50035 39.1253 4.10801C38.6417 3.861 38.0972 3.76428 37.5568 3.81311C35.4823 4.00292 34.2513 6.11926 33.9487 8.93056C33.8617 9.73103 33.8497 10.5896 33.9164 11.4757C33.9739 12.2393 34.0965 12.998 34.2938 13.7382C34.5321 14.6387 34.8983 16.2784 36.1928 15.9916C36.9569 15.8222 36.9382 14.8544 36.6452 14.2893C36.3931 13.8011 36.0838 13.426 35.944 12.8808C35.8157 12.3757 35.7791 11.8498 35.7807 11.3285C35.7843 10.5191 35.8432 9.66736 35.9723 8.88817C36.2294 7.31806 36.7667 6.04151 37.6921 5.98201C38.2888 5.94389 38.6914 6.37389 38.932 6.87093C39.0887 7.19146 39.192 7.53741 39.2742 7.88324C39.3433 8.17056 39.3561 8.46992 39.4336 8.75527C39.4394 8.77613 39.4452 8.79698 39.4518 8.81612L41.8615 8.76641C41.8545 8.56286 41.7208 8.29459 41.6797 8.1343L41.6798 8.13599Z" fill="url(#paint9_radial_5524_102951)"/>
<path d="M41.6798 8.13599C41.6114 7.86969 41.5354 7.60534 41.4477 7.34476C41.2872 6.8635 41.0924 6.39185 40.85 5.94372C40.4461 5.20385 39.8901 4.50035 39.1253 4.10801C38.6417 3.861 38.0972 3.76428 37.5568 3.81311C35.4823 4.00292 34.2513 6.11926 33.9487 8.93056C33.8617 9.73103 33.8497 10.5896 33.9164 11.4757C33.9739 12.2393 34.0965 12.998 34.2938 13.7382C34.5321 14.6387 34.8983 16.2784 36.1928 15.9916C36.9569 15.8222 36.9382 14.8544 36.6452 14.2893C36.3931 13.8011 36.0838 13.426 35.944 12.8808C35.8157 12.3757 35.7791 11.8498 35.7807 11.3285C35.7843 10.5191 35.8432 9.66736 35.9723 8.88817C36.2294 7.31806 36.7667 6.04151 37.6921 5.98201C38.2888 5.94389 38.6914 6.37389 38.932 6.87093C39.0887 7.19146 39.192 7.53741 39.2742 7.88324C39.3433 8.17056 39.3561 8.46992 39.4336 8.75527C39.4394 8.77613 39.4452 8.79698 39.4518 8.81612L41.8615 8.76641C41.8545 8.56286 41.7208 8.29459 41.6797 8.1343L41.6798 8.13599Z" fill="url(#paint10_radial_5524_102951)"/>
<path d="M55.679 9.61972C55.9074 9.26578 56.1002 8.88527 56.3191 8.50134C56.4006 8.35791 56.4829 8.21361 56.5317 8.05614C56.5606 7.96168 56.5784 7.8617 56.6314 7.77735C56.7719 7.5519 57.0906 7.5334 57.3563 7.55293C58.4168 7.62944 58.7407 8.20784 58.7328 9.21109C58.7195 10.9505 58.0923 12.6437 56.8868 13.8976C55.9242 14.8982 54.711 15.4585 53.3155 15.4912C53.0523 15.4977 52.7817 15.485 52.5386 15.3864C52.0499 15.1884 51.7496 14.6564 51.7317 14.1323C51.6669 12.2431 53.7169 11.4857 54.9116 10.5092C55.2304 10.2482 55.4708 9.94602 55.6816 9.62047L55.679 9.61972Z" fill="url(#paint11_radial_5524_102951)"/>
<path d="M58.5411 7.76294C58.4727 7.49664 58.3967 7.23229 58.309 6.97171C58.1486 6.49046 57.9537 6.0188 57.7113 5.57067C57.3074 4.8308 56.7514 4.12731 55.9867 3.73497C55.5031 3.48795 54.9585 3.39123 54.4181 3.44006C52.3436 3.62988 51.1126 5.74622 50.81 8.55751C50.7231 9.35798 50.711 10.2165 50.7778 11.1027C50.8353 11.8662 50.9578 12.625 51.1551 13.3652C51.3935 14.2657 51.7596 15.9054 53.0542 15.6185C53.8183 15.4492 53.7995 14.4814 53.5066 13.9162C53.2544 13.428 52.9451 13.0529 52.8053 12.5078C52.677 12.0027 52.6404 11.4768 52.642 10.9554C52.6456 10.146 52.7045 9.29431 52.8337 8.51513C53.0907 6.94501 53.628 5.66846 54.5534 5.60897C55.1501 5.57084 55.5527 6.00085 55.7934 6.49788C55.95 6.81842 56.0534 7.16436 56.1355 7.51019C56.2046 7.79751 56.2174 8.09687 56.295 8.38222C56.3008 8.40308 56.3066 8.42393 56.3131 8.44308L58.7228 8.39337C58.7158 8.18981 58.5821 7.92154 58.5411 7.76126L58.5411 7.76294Z" fill="url(#paint12_radial_5524_102951)"/>
<path d="M58.5411 7.76294C58.4727 7.49664 58.3967 7.23229 58.309 6.97171C58.1486 6.49046 57.9537 6.0188 57.7113 5.57067C57.3074 4.8308 56.7514 4.12731 55.9867 3.73497C55.5031 3.48795 54.9585 3.39123 54.4181 3.44006C52.3436 3.62988 51.1126 5.74622 50.81 8.55751C50.7231 9.35798 50.711 10.2165 50.7778 11.1027C50.8353 11.8662 50.9578 12.625 51.1551 13.3652C51.3935 14.2657 51.7596 15.9054 53.0542 15.6185C53.8183 15.4492 53.7995 14.4814 53.5066 13.9162C53.2544 13.428 52.9451 13.0529 52.8053 12.5078C52.677 12.0027 52.6404 11.4768 52.642 10.9554C52.6456 10.146 52.7045 9.29431 52.8337 8.51513C53.0907 6.94501 53.628 5.66846 54.5534 5.60897C55.1501 5.57084 55.5527 6.00085 55.7934 6.49788C55.95 6.81842 56.0534 7.16436 56.1355 7.51019C56.2046 7.79751 56.2174 8.09687 56.295 8.38222C56.3008 8.40308 56.3066 8.42393 56.3131 8.44308L58.7228 8.39337C58.7158 8.18981 58.5821 7.92154 58.5411 7.76126L58.5411 7.76294Z" fill="url(#paint13_radial_5524_102951)"/>
<path d="M58.5411 7.76294C58.4727 7.49664 58.3967 7.23229 58.309 6.97171C58.1486 6.49046 57.9537 6.0188 57.7113 5.57067C57.3074 4.8308 56.7514 4.12731 55.9867 3.73497C55.5031 3.48795 54.9585 3.39123 54.4181 3.44006C52.3436 3.62988 51.1126 5.74622 50.81 8.55751C50.7231 9.35798 50.711 10.2165 50.7778 11.1027C50.8353 11.8662 50.9578 12.625 51.1551 13.3652C51.3935 14.2657 51.7596 15.9054 53.0542 15.6185C53.8183 15.4492 53.7995 14.4814 53.5066 13.9162C53.2544 13.428 52.9451 13.0529 52.8053 12.5078C52.677 12.0027 52.6404 11.4768 52.642 10.9554C52.6456 10.146 52.7045 9.29431 52.8337 8.51513C53.0907 6.94501 53.628 5.66846 54.5534 5.60897C55.1501 5.57084 55.5527 6.00085 55.7934 6.49788C55.95 6.81842 56.0534 7.16436 56.1355 7.51019C56.2046 7.79751 56.2174 8.09687 56.295 8.38222C56.3008 8.40308 56.3066 8.42393 56.3131 8.44308L58.7228 8.39337C58.7158 8.18981 58.5821 7.92154 58.5411 7.76126L58.5411 7.76294Z" fill="url(#paint14_radial_5524_102951)"/>
<path d="M72.5413 9.24667C72.7697 8.89273 72.9625 8.51222 73.1814 8.12829C73.2629 7.98486 73.3452 7.84056 73.394 7.6831C73.4229 7.58863 73.4407 7.48865 73.4937 7.40431C73.6342 7.17885 73.9529 7.16036 74.2187 7.17988C75.2792 7.2564 75.603 7.83479 75.5951 8.83804C75.5818 10.5767 74.9546 12.2706 73.7491 13.5246C72.7865 14.5252 71.5733 15.0855 70.1778 15.1181C69.9146 15.1246 69.644 15.112 69.4009 15.0134C68.9122 14.8154 68.6119 14.2833 68.594 13.7593C68.5292 11.8701 70.5792 11.1127 71.7739 10.1361C72.0927 9.87511 72.3331 9.57297 72.5439 9.24743L72.5413 9.24667Z" fill="url(#paint15_radial_5524_102951)"/>
<path d="M75.4034 7.38989C75.335 7.1236 75.259 6.85924 75.1713 6.59866C75.0109 6.11741 74.816 5.64576 74.5737 5.19762C74.1697 4.45776 73.6137 3.75426 72.849 3.36192C72.3654 3.1149 71.8208 3.01819 71.2804 3.06702C69.2059 3.25683 67.9749 5.37317 67.6723 8.18446C67.5854 8.98494 67.5733 9.84348 67.6401 10.7296C67.6976 11.4932 67.8201 12.2519 68.0174 12.9921C68.2558 13.8926 68.6219 15.5324 69.9165 15.2455C70.6806 15.0761 70.6618 14.1083 70.3689 13.5432C70.1167 13.055 69.8074 12.6799 69.6676 12.1347C69.5393 11.6297 69.5027 11.1037 69.5043 10.5824C69.5079 9.77299 69.5668 8.92126 69.696 8.14208C69.953 6.57196 70.4903 5.29541 71.4157 5.23592C72.0124 5.19779 72.415 5.6278 72.6557 6.12483C72.8123 6.44537 72.9157 6.79131 72.9978 7.13714C73.0669 7.42447 73.0797 7.72383 73.1573 8.00918C73.1631 8.03003 73.1689 8.05089 73.1754 8.07003L75.5851 8.02032C75.5781 7.81676 75.4444 7.54849 75.4034 7.38821L75.4034 7.38989Z" fill="url(#paint16_radial_5524_102951)"/>
<path d="M75.4034 7.38989C75.335 7.1236 75.259 6.85924 75.1713 6.59866C75.0109 6.11741 74.816 5.64576 74.5737 5.19762C74.1697 4.45776 73.6137 3.75426 72.849 3.36192C72.3654 3.1149 71.8208 3.01819 71.2804 3.06702C69.2059 3.25683 67.9749 5.37317 67.6723 8.18446C67.5854 8.98494 67.5733 9.84348 67.6401 10.7296C67.6976 11.4932 67.8201 12.2519 68.0174 12.9921C68.2558 13.8926 68.6219 15.5324 69.9165 15.2455C70.6806 15.0761 70.6618 14.1083 70.3689 13.5432C70.1167 13.055 69.8074 12.6799 69.6676 12.1347C69.5393 11.6297 69.5027 11.1037 69.5043 10.5824C69.5079 9.77299 69.5668 8.92126 69.696 8.14208C69.953 6.57196 70.4903 5.29541 71.4157 5.23592C72.0124 5.19779 72.415 5.6278 72.6557 6.12483C72.8123 6.44537 72.9157 6.79131 72.9978 7.13714C73.0669 7.42447 73.0797 7.72383 73.1573 8.00918C73.1631 8.03003 73.1689 8.05089 73.1754 8.07003L75.5851 8.02032C75.5781 7.81676 75.4444 7.54849 75.4034 7.38821L75.4034 7.38989Z" fill="url(#paint17_radial_5524_102951)"/>
<path d="M75.4034 7.38989C75.335 7.1236 75.259 6.85924 75.1713 6.59866C75.0109 6.11741 74.816 5.64576 74.5737 5.19762C74.1697 4.45776 73.6137 3.75426 72.849 3.36192C72.3654 3.1149 71.8208 3.01819 71.2804 3.06702C69.2059 3.25683 67.9749 5.37317 67.6723 8.18446C67.5854 8.98494 67.5733 9.84348 67.6401 10.7296C67.6976 11.4932 67.8201 12.2519 68.0174 12.9921C68.2558 13.8926 68.6219 15.5324 69.9165 15.2455C70.6806 15.0761 70.6618 14.1083 70.3689 13.5432C70.1167 13.055 69.8074 12.6799 69.6676 12.1347C69.5393 11.6297 69.5027 11.1037 69.5043 10.5824C69.5079 9.77299 69.5668 8.92126 69.696 8.14208C69.953 6.57196 70.4903 5.29541 71.4157 5.23592C72.0124 5.19779 72.415 5.6278 72.6557 6.12483C72.8123 6.44537 72.9157 6.79131 72.9978 7.13714C73.0669 7.42447 73.0797 7.72383 73.1573 8.00918C73.1631 8.03003 73.1689 8.05089 73.1754 8.07003L75.5851 8.02032C75.5781 7.81676 75.4444 7.54849 75.4034 7.38821L75.4034 7.38989Z" fill="url(#paint18_radial_5524_102951)"/>
<path d="M89.4046 8.91757C89.633 8.56363 89.8258 8.18312 90.0447 7.79919C90.1262 7.65576 90.2085 7.51146 90.2573 7.354C90.2862 7.25953 90.304 7.15955 90.357 7.0752C90.4975 6.84975 90.8162 6.83125 91.0819 6.85078C92.1424 6.92729 92.4663 7.50569 92.4583 8.50894C92.4451 10.2484 91.8179 11.9415 90.6124 13.1955C89.6498 14.1961 88.4366 14.7564 87.0411 14.789C86.7778 14.7947 86.5073 14.7829 86.2642 14.6843C85.7755 14.4863 85.4752 13.9542 85.4572 13.4302C85.3925 11.541 87.4425 10.7836 88.6372 9.80704C88.956 9.54601 89.1964 9.24387 89.4071 8.91832L89.4046 8.91757Z" fill="url(#paint19_radial_5524_102951)"/>
<path d="M92.2677 7.06177C92.1993 6.79547 92.1233 6.53112 92.0356 6.27054C91.8751 5.78928 91.6803 5.31763 91.4379 4.8695C91.034 4.12963 90.478 3.42613 89.7132 3.03379C89.2296 2.78678 88.6851 2.69006 88.1447 2.73889C86.0702 2.92871 84.8392 5.04505 84.5365 7.85634C84.4496 8.65681 84.4375 9.51536 84.5043 10.4015C84.5618 11.165 84.6844 11.9238 84.8817 12.664C85.12 13.5645 85.4862 15.2042 86.7807 14.9173C87.5448 14.748 87.5261 13.7802 87.2331 13.2151C86.981 12.7268 86.6717 12.3517 86.5319 11.8066C86.4036 11.3015 86.367 10.7756 86.3686 10.2543C86.3722 9.44486 86.4311 8.59314 86.5602 7.81395C86.8173 6.24384 87.3546 4.96729 88.28 4.90779C88.8766 4.86967 89.2793 5.29967 89.5199 5.79671C89.6766 6.11725 89.7799 6.46319 89.8621 6.80902C89.9312 7.09634 89.944 7.3957 90.0215 7.68105C90.0273 7.70191 90.0331 7.72276 90.0397 7.74191L92.4494 7.69219C92.4424 7.48864 92.3087 7.22037 92.2676 7.06009L92.2677 7.06177Z" fill="url(#paint20_radial_5524_102951)"/>
<path d="M92.2677 7.06177C92.1993 6.79547 92.1233 6.53112 92.0356 6.27054C91.8751 5.78928 91.6803 5.31763 91.4379 4.8695C91.034 4.12963 90.478 3.42613 89.7132 3.03379C89.2296 2.78678 88.6851 2.69006 88.1447 2.73889C86.0702 2.92871 84.8392 5.04505 84.5365 7.85634C84.4496 8.65681 84.4375 9.51536 84.5043 10.4015C84.5618 11.165 84.6844 11.9238 84.8817 12.664C85.12 13.5645 85.4862 15.2042 86.7807 14.9173C87.5448 14.748 87.5261 13.7802 87.2331 13.2151C86.981 12.7268 86.6717 12.3517 86.5319 11.8066C86.4036 11.3015 86.367 10.7756 86.3686 10.2543C86.3722 9.44486 86.4311 8.59314 86.5602 7.81395C86.8173 6.24384 87.3546 4.96729 88.28 4.90779C88.8766 4.86967 89.2793 5.29967 89.5199 5.79671C89.6766 6.11725 89.7799 6.46319 89.8621 6.80902C89.9312 7.09634 89.944 7.3957 90.0215 7.68105C90.0273 7.70191 90.0331 7.72276 90.0397 7.74191L92.4494 7.69219C92.4424 7.48864 92.3087 7.22037 92.2676 7.06009L92.2677 7.06177Z" fill="url(#paint21_radial_5524_102951)"/>
<path d="M92.2677 7.06177C92.1993 6.79547 92.1233 6.53112 92.0356 6.27054C91.8751 5.78928 91.6803 5.31763 91.4379 4.8695C91.034 4.12963 90.478 3.42613 89.7132 3.03379C89.2296 2.78678 88.6851 2.69006 88.1447 2.73889C86.0702 2.92871 84.8392 5.04505 84.5365 7.85634C84.4496 8.65681 84.4375 9.51536 84.5043 10.4015C84.5618 11.165 84.6844 11.9238 84.8817 12.664C85.12 13.5645 85.4862 15.2042 86.7807 14.9173C87.5448 14.748 87.5261 13.7802 87.2331 13.2151C86.981 12.7268 86.6717 12.3517 86.5319 11.8066C86.4036 11.3015 86.367 10.7756 86.3686 10.2543C86.3722 9.44486 86.4311 8.59314 86.5602 7.81395C86.8173 6.24384 87.3546 4.96729 88.28 4.90779C88.8766 4.86967 89.2793 5.29967 89.5199 5.79671C89.6766 6.11725 89.7799 6.46319 89.8621 6.80902C89.9312 7.09634 89.944 7.3957 90.0215 7.68105C90.0273 7.70191 90.0331 7.72276 90.0397 7.74191L92.4494 7.69219C92.4424 7.48864 92.3087 7.22037 92.2676 7.06009L92.2677 7.06177Z" fill="url(#paint22_radial_5524_102951)"/>
<path d="M106.27 8.60507C106.498 8.25113 106.691 7.87062 106.91 7.48669C106.991 7.34326 107.074 7.19896 107.123 7.0415C107.151 6.94703 107.169 6.84705 107.222 6.7627C107.363 6.53725 107.681 6.51875 107.947 6.53828C109.008 6.61479 109.332 7.19319 109.324 8.19644C109.31 9.93589 108.683 11.629 107.478 12.883C106.515 13.8836 105.302 14.4439 103.906 14.4765C103.643 14.483 103.372 14.4704 103.129 14.3718C102.641 14.1738 102.34 13.6417 102.322 13.1177C102.258 11.2285 104.308 10.4711 105.502 9.49454C105.821 9.23351 106.062 8.93137 106.272 8.60582L106.27 8.60507Z" fill="url(#paint23_radial_5524_102951)"/>
<path d="M109.132 6.74927C109.064 6.48297 108.988 6.21862 108.9 5.95804C108.739 5.47678 108.545 5.00513 108.302 4.557C107.898 3.81713 107.342 3.11363 106.578 2.72129C106.094 2.47428 105.549 2.37756 105.009 2.42639C102.934 2.61621 101.703 4.73255 101.401 7.54384C101.314 8.34431 101.302 9.20286 101.369 10.089C101.426 10.8525 101.549 11.6113 101.746 12.3515C101.984 13.252 102.35 14.8917 103.645 14.6048C104.409 14.4355 104.39 13.4677 104.097 12.9026C103.845 12.4143 103.536 12.0392 103.396 11.4941C103.268 10.989 103.231 10.4631 103.233 9.94178C103.236 9.13237 103.295 8.28064 103.424 7.50145C103.682 5.93134 104.219 4.65479 105.144 4.59529C105.741 4.55717 106.144 4.98717 106.384 5.48421C106.541 5.80475 106.644 6.15069 106.726 6.49652C106.795 6.78384 106.808 7.0832 106.886 7.36855C106.892 7.38941 106.897 7.41026 106.904 7.42941L109.314 7.37969C109.307 7.17614 109.173 6.90787 109.132 6.74759L109.132 6.74927Z" fill="url(#paint24_radial_5524_102951)"/>
<path d="M109.132 6.74927C109.064 6.48297 108.988 6.21862 108.9 5.95804C108.739 5.47678 108.545 5.00513 108.302 4.557C107.898 3.81713 107.342 3.11363 106.578 2.72129C106.094 2.47428 105.549 2.37756 105.009 2.42639C102.934 2.61621 101.703 4.73255 101.401 7.54384C101.314 8.34431 101.302 9.20286 101.369 10.089C101.426 10.8525 101.549 11.6113 101.746 12.3515C101.984 13.252 102.35 14.8917 103.645 14.6048C104.409 14.4355 104.39 13.4677 104.097 12.9026C103.845 12.4143 103.536 12.0392 103.396 11.4941C103.268 10.989 103.231 10.4631 103.233 9.94178C103.236 9.13237 103.295 8.28064 103.424 7.50145C103.682 5.93134 104.219 4.65479 105.144 4.59529C105.741 4.55717 106.144 4.98717 106.384 5.48421C106.541 5.80475 106.644 6.15069 106.726 6.49652C106.795 6.78384 106.808 7.0832 106.886 7.36855C106.892 7.38941 106.897 7.41026 106.904 7.42941L109.314 7.37969C109.307 7.17614 109.173 6.90787 109.132 6.74759L109.132 6.74927Z" fill="url(#paint25_radial_5524_102951)"/>
<path d="M109.132 6.74927C109.064 6.48297 108.988 6.21862 108.9 5.95804C108.739 5.47678 108.545 5.00513 108.302 4.557C107.898 3.81713 107.342 3.11363 106.578 2.72129C106.094 2.47428 105.549 2.37756 105.009 2.42639C102.934 2.61621 101.703 4.73255 101.401 7.54384C101.314 8.34431 101.302 9.20286 101.369 10.089C101.426 10.8525 101.549 11.6113 101.746 12.3515C101.984 13.252 102.35 14.8917 103.645 14.6048C104.409 14.4355 104.39 13.4677 104.097 12.9026C103.845 12.4143 103.536 12.0392 103.396 11.4941C103.268 10.989 103.231 10.4631 103.233 9.94178C103.236 9.13237 103.295 8.28064 103.424 7.50145C103.682 5.93134 104.219 4.65479 105.144 4.59529C105.741 4.55717 106.144 4.98717 106.384 5.48421C106.541 5.80475 106.644 6.15069 106.726 6.49652C106.795 6.78384 106.808 7.0832 106.886 7.36855C106.892 7.38941 106.897 7.41026 106.904 7.42941L109.314 7.37969C109.307 7.17614 109.173 6.90787 109.132 6.74759L109.132 6.74927Z" fill="url(#paint26_radial_5524_102951)"/>
<path d="M45.8674 30.627C43.5917 30.6326 41.3152 30.6373 39.0396 30.6429C37.953 30.6456 37.2031 29.8695 37.3472 28.9113C37.6503 26.9051 37.8986 24.9049 38.092 22.9117C38.1847 21.9595 39.1298 21.1877 40.2198 21.1849C42.5022 21.1791 44.7846 21.1733 47.0661 21.1668C48.1561 21.1639 48.976 21.9317 48.8799 22.884C48.6797 24.8783 48.4248 26.8795 48.1158 28.886C47.9682 29.8443 46.954 30.6243 45.8673 30.6262L45.8674 30.627ZM79.5536 42.5959C80.102 40.5795 80.5947 38.5693 81.0333 36.5644C81.2428 35.6073 80.5184 34.8354 79.4327 34.8381C77.1596 34.8435 74.8856 34.849 72.6117 34.8545C71.5259 34.8572 70.4921 35.6328 70.286 36.5898C69.8541 38.5937 69.3673 40.6037 68.8257 42.619C68.5673 43.5811 69.2208 44.3613 70.304 44.3587C72.5712 44.3534 74.8384 44.349 77.1056 44.3438C78.188 44.3412 79.2919 43.5581 79.5536 42.595L79.5536 42.5959Z" fill="url(#paint27_linear_5524_102951)"/>
</g>
<defs>
<linearGradient id="paint0_linear_5524_102951" x1="19.4289" y1="33.1637" x2="134.115" y2="52.3431" gradientUnits="userSpaceOnUse">
<stop stop-color="#C9B3F8"/>
<stop offset="0.18" stop-color="#6945A9"/>
<stop offset="0.26" stop-color="#6945A9"/>
<stop offset="0.83" stop-color="#6945A9"/>
<stop offset="0.85" stop-color="#6B46AC"/>
<stop offset="0.87" stop-color="#714CB5"/>
<stop offset="0.88" stop-color="#7D55C6"/>
<stop offset="0.89" stop-color="#8D61DD"/>
<stop offset="0.9" stop-color="#9A6CF0"/>
<stop offset="1" stop-color="#CF8AFF"/>
</linearGradient>
<linearGradient id="paint1_linear_5524_102951" x1="14.4204" y1="37.4763" x2="127.467" y2="55.8848" gradientUnits="userSpaceOnUse">
<stop stop-color="#C9B3F8"/>
<stop offset="0.18" stop-color="#A389F0"/>
<stop offset="0.25" stop-color="#9073D9"/>
<stop offset="0.34" stop-color="#7F5FC4"/>
<stop offset="0.44" stop-color="#7250B4"/>
<stop offset="0.56" stop-color="#6B47AB"/>
<stop offset="0.74" stop-color="#6945A9"/>
<stop offset="0.78" stop-color="#6B46AC"/>
<stop offset="0.82" stop-color="#714CB5"/>
<stop offset="0.85" stop-color="#7D55C6"/>
<stop offset="0.88" stop-color="#8D61DD"/>
<stop offset="0.9" stop-color="#9A6CF0"/>
<stop offset="1" stop-color="#CF8AFF"/>
</linearGradient>
<linearGradient id="paint2_linear_5524_102951" x1="18.9839" y1="35.0548" x2="121.521" y2="51.7527" gradientUnits="userSpaceOnUse">
<stop stop-color="#A6BBBE"/>
<stop offset="0.06" stop-color="#ECFCFF"/>
<stop offset="0.09" stop-color="#DEEEF1"/>
<stop offset="0.17" stop-color="#BCCCCF"/>
<stop offset="0.25" stop-color="#A1B0B3"/>
<stop offset="0.35" stop-color="#8B9A9D"/>
<stop offset="0.45" stop-color="#7C8A8D"/>
<stop offset="0.57" stop-color="#738184"/>
<stop offset="0.74" stop-color="#717F82"/>
<stop offset="0.78" stop-color="#738285"/>
<stop offset="0.81" stop-color="#7C8B8E"/>
<stop offset="0.84" stop-color="#8A9C9E"/>
<stop offset="0.87" stop-color="#9EB3B5"/>
<stop offset="0.9" stop-color="#BED8D9"/>
<stop offset="1" stop-color="#A6BBBE"/>
</linearGradient>
<linearGradient id="paint3_linear_5524_102951" x1="69.3484" y1="9.1682" x2="67.3372" y2="75.8865" gradientUnits="userSpaceOnUse">
<stop stop-color="#F3F8FB"/>
<stop offset="0.03" stop-color="#DCEAED"/>
<stop offset="0.06" stop-color="#C4DFE0"/>
<stop offset="0.84" stop-color="#C1DADB"/>
<stop offset="0.9" stop-color="#E7F0F1"/>
<stop offset="0.95" stop-color="white"/>
<stop offset="1" stop-color="#A6BBBE"/>
</linearGradient>
<radialGradient id="paint4_radial_5524_102951" cx="0" cy="0" r="1" gradientUnits="userSpaceOnUse" gradientTransform="translate(-36.9 10.3404) rotate(-1.9622) scale(152.936 152.06)">
<stop offset="0.41" stop-color="#F3F8FB"/>
<stop offset="0.47" stop-color="#DCEAED"/>
<stop offset="0.97" stop-color="#ECFCFF"/>
<stop offset="0.98" stop-color="#BED8D9"/>
<stop offset="1" stop-color="#A6BBBE"/>
</radialGradient>
<linearGradient id="paint5_linear_5524_102951" x1="63.6446" y1="7.84899" x2="63.6236" y2="68.7761" gradientUnits="userSpaceOnUse">
<stop stop-color="#F3F8FB"/>
<stop offset="0.03" stop-color="#DCEAED"/>
<stop offset="0.06" stop-color="#C4DFE0"/>
<stop offset="0.5" stop-color="#C1DADB"/>
<stop offset="0.75" stop-color="#E7F0F1"/>
<stop offset="0.94" stop-color="white"/>
<stop offset="1" stop-color="#A6BBBE"/>
</linearGradient>
<linearGradient id="paint6_linear_5524_102951" x1="62.5452" y1="18.8404" x2="62.8326" y2="60.1012" gradientUnits="userSpaceOnUse">
<stop offset="0.05" stop-color="#BED8D9"/>
<stop offset="0.09" stop-color="#B0C7CA"/>
<stop offset="0.13" stop-color="#A8BEC0"/>
<stop offset="0.18" stop-color="#A6BBBE"/>
<stop offset="0.21" stop-color="#A2B7BA"/>
<stop offset="0.25" stop-color="#99ACAF"/>
<stop offset="0.28" stop-color="#88999C"/>
<stop offset="0.3" stop-color="#728083"/>
<stop offset="0.31" stop-color="#717F82"/>
<stop offset="0.39" stop-color="#BED8D9"/>
<stop offset="0.42" stop-color="#B2CACC"/>
<stop offset="0.46" stop-color="#A9BEC1"/>
<stop offset="0.51" stop-color="#A6BBBE"/>
<stop offset="0.55" stop-color="#A3B8BB"/>
<stop offset="0.58" stop-color="#9CB0B3"/>
<stop offset="0.6" stop-color="#8FA1A4"/>
<stop offset="0.62" stop-color="#7D8D90"/>
<stop offset="0.63" stop-color="#717F82"/>
<stop offset="0.72" stop-color="#BED8D9"/>
<stop offset="0.74" stop-color="#B6CFD0"/>
<stop offset="0.8" stop-color="#AAC0C2"/>
<stop offset="0.84" stop-color="#A6BBBE"/>
<stop offset="0.89" stop-color="#A4B8BB"/>
<stop offset="0.91" stop-color="#9DB1B4"/>
<stop offset="0.93" stop-color="#91A3A6"/>
<stop offset="0.94" stop-color="#819194"/>
<stop offset="0.95" stop-color="#717F82"/>
</linearGradient>
<radialGradient id="paint7_radial_5524_102951" cx="0" cy="0" r="1" gradientUnits="userSpaceOnUse" gradientTransform="translate(32.5937 7.79818) rotate(6.66883) scale(9.51794 9.46588)">
<stop offset="0.74" stop-color="#A6BBBE"/>
<stop offset="0.85" stop-color="#A6BBBE"/>
<stop offset="0.98" stop-color="#A6BBBE"/>
</radialGradient>
<radialGradient id="paint8_radial_5524_102951" cx="0" cy="0" r="1" gradientUnits="userSpaceOnUse" gradientTransform="translate(49.6666 10.2296) rotate(-1.9622) scale(17.3377 17.2384)">
<stop offset="0.88" stop-color="#6945A9"/>
<stop offset="0.94" stop-color="#CF8AFF"/>
<stop offset="0.97" stop-color="#E8C7FC"/>
</radialGradient>
<radialGradient id="paint9_radial_5524_102951" cx="0" cy="0" r="1" gradientUnits="userSpaceOnUse" gradientTransform="translate(40.1457 8.84709) rotate(-1.9622) scale(5.42174 5.39068)">
<stop stop-color="#6125E5"/>
<stop offset="0.92" stop-color="#CF8AFF"/>
</radialGradient>
<radialGradient id="paint10_radial_5524_102951" cx="0" cy="0" r="1" gradientUnits="userSpaceOnUse" gradientTransform="translate(37.6175 3.73187) rotate(-1.9622) scale(5.42174 5.39068)">
<stop stop-color="#A389F0"/>
<stop offset="1" stop-color="#6945A9"/>
</radialGradient>
<radialGradient id="paint11_radial_5524_102951" cx="0" cy="0" r="1" gradientUnits="userSpaceOnUse" gradientTransform="translate(49.4576 7.42099) rotate(6.66883) scale(9.51794 9.46588)">
<stop offset="0.74" stop-color="#A6BBBE"/>
<stop offset="0.85" stop-color="#A6BBBE"/>
<stop offset="0.98" stop-color="#A6BBBE"/>
</radialGradient>
<radialGradient id="paint12_radial_5524_102951" cx="0" cy="0" r="1" gradientUnits="userSpaceOnUse" gradientTransform="translate(66.5287 9.85651) rotate(-1.9622) scale(17.3377 17.2384)">
<stop offset="0.88" stop-color="#6945A9"/>
<stop offset="0.94" stop-color="#CF8AFF"/>
<stop offset="0.97" stop-color="#E8C7FC"/>
</radialGradient>
<radialGradient id="paint13_radial_5524_102951" cx="0" cy="0" r="1" gradientUnits="userSpaceOnUse" gradientTransform="translate(57.0078 8.47317) rotate(-1.9622) scale(5.42173 5.39068)">
<stop stop-color="#6125E5"/>
<stop offset="0.92" stop-color="#CF8AFF"/>
</radialGradient>
<radialGradient id="paint14_radial_5524_102951" cx="0" cy="0" r="1" gradientUnits="userSpaceOnUse" gradientTransform="translate(54.4797 3.35879) rotate(-1.9622) scale(5.42173 5.39068)">
<stop stop-color="#A389F0"/>
<stop offset="1" stop-color="#6945A9"/>
</radialGradient>
<radialGradient id="paint15_radial_5524_102951" cx="0" cy="0" r="1" gradientUnits="userSpaceOnUse" gradientTransform="translate(66.3216 7.04295) rotate(6.66883) scale(9.51794 9.46588)">
<stop offset="0.74" stop-color="#A6BBBE"/>
<stop offset="0.85" stop-color="#A6BBBE"/>
<stop offset="0.98" stop-color="#A6BBBE"/>
</radialGradient>
<radialGradient id="paint16_radial_5524_102951" cx="0" cy="0" r="1" gradientUnits="userSpaceOnUse" gradientTransform="translate(83.391 9.48346) rotate(-1.9622) scale(17.3377 17.2384)">
<stop offset="0.88" stop-color="#6945A9"/>
<stop offset="0.94" stop-color="#CF8AFF"/>
<stop offset="0.97" stop-color="#E8C7FC"/>
</radialGradient>
<radialGradient id="paint17_radial_5524_102951" cx="0" cy="0" r="1" gradientUnits="userSpaceOnUse" gradientTransform="translate(73.8702 8.10013) rotate(-1.9622) scale(5.42173 5.39068)">
<stop stop-color="#6125E5"/>
<stop offset="0.92" stop-color="#CF8AFF"/>
</radialGradient>
<radialGradient id="paint18_radial_5524_102951" cx="0" cy="0" r="1" gradientUnits="userSpaceOnUse" gradientTransform="translate(71.342 2.98575) rotate(-1.9622) scale(5.42173 5.39068)">
<stop stop-color="#A389F0"/>
<stop offset="1" stop-color="#6945A9"/>
</radialGradient>
<radialGradient id="paint19_radial_5524_102951" cx="0" cy="0" r="1" gradientUnits="userSpaceOnUse" gradientTransform="translate(83.1876 6.70982) rotate(6.66884) scale(9.51794 9.46588)">
<stop offset="0.74" stop-color="#A6BBBE"/>
<stop offset="0.85" stop-color="#A6BBBE"/>
<stop offset="0.98" stop-color="#A6BBBE"/>
</radialGradient>
<radialGradient id="paint20_radial_5524_102951" cx="0" cy="0" r="1" gradientUnits="userSpaceOnUse" gradientTransform="translate(100.255 9.15534) rotate(-1.9622) scale(17.3377 17.2384)">
<stop offset="0.88" stop-color="#6945A9"/>
<stop offset="0.94" stop-color="#CF8AFF"/>
<stop offset="0.97" stop-color="#E8C7FC"/>
</radialGradient>
<radialGradient id="paint21_radial_5524_102951" cx="0" cy="0" r="1" gradientUnits="userSpaceOnUse" gradientTransform="translate(90.7344 7.77284) rotate(-1.9622) scale(5.42173 5.39068)">
<stop stop-color="#6125E5"/>
<stop offset="0.92" stop-color="#CF8AFF"/>
</radialGradient>
<radialGradient id="paint22_radial_5524_102951" cx="0" cy="0" r="1" gradientUnits="userSpaceOnUse" gradientTransform="translate(88.2063 2.65762) rotate(-1.9622) scale(5.42173 5.39068)">
<stop stop-color="#A389F0"/>
<stop offset="1" stop-color="#6945A9"/>
</radialGradient>
<radialGradient id="paint23_radial_5524_102951" cx="0" cy="0" r="1" gradientUnits="userSpaceOnUse" gradientTransform="translate(100.054 6.39304) rotate(6.66883) scale(9.51794 9.46588)">
<stop offset="0.74" stop-color="#A6BBBE"/>
<stop offset="0.85" stop-color="#A6BBBE"/>
<stop offset="0.98" stop-color="#A6BBBE"/>
</radialGradient>
<radialGradient id="paint24_radial_5524_102951" cx="0" cy="0" r="1" gradientUnits="userSpaceOnUse" gradientTransform="translate(117.119 8.84287) rotate(-1.9622) scale(17.3377 17.2384)">
<stop offset="0.88" stop-color="#6945A9"/>
<stop offset="0.94" stop-color="#CF8AFF"/>
<stop offset="0.97" stop-color="#E8C7FC"/>
</radialGradient>
<radialGradient id="paint25_radial_5524_102951" cx="0" cy="0" r="1" gradientUnits="userSpaceOnUse" gradientTransform="translate(107.599 7.4595) rotate(-1.9622) scale(5.42173 5.39068)">
<stop stop-color="#6125E5"/>
<stop offset="0.92" stop-color="#CF8AFF"/>
</radialGradient>
<radialGradient id="paint26_radial_5524_102951" cx="0" cy="0" r="1" gradientUnits="userSpaceOnUse" gradientTransform="translate(105.07 2.34515) rotate(-1.9622) scale(5.42173 5.39068)">
<stop stop-color="#A389F0"/>
<stop offset="1" stop-color="#6945A9"/>
</radialGradient>
<linearGradient id="paint27_linear_5524_102951" x1="59.0648" y1="7.80288" x2="59.2742" y2="44.39" gradientUnits="userSpaceOnUse">
<stop offset="0.36" stop-color="#F29E50"/>
<stop offset="0.39" stop-color="#F68C47"/>
<stop offset="0.44" stop-color="#F97D41"/>
<stop offset="0.48" stop-color="#FB793F"/>
<stop offset="0.53" stop-color="#F9753C"/>
<stop offset="0.57" stop-color="#F66A35"/>
<stop offset="0.61" stop-color="#F0592A"/>
<stop offset="0.62" stop-color="#F05C2B"/>
<stop offset="0.7" stop-color="#F18944"/>
<stop offset="0.74" stop-color="#F29A4D"/>
<stop offset="0.78" stop-color="#F78845"/>
<stop offset="0.81" stop-color="#FA7C40"/>
<stop offset="0.85" stop-color="#FB793F"/>
<stop offset="0.9" stop-color="#F9733B"/>
<stop offset="0.97" stop-color="#F46432"/>
<stop offset="1" stop-color="#F15B2C"/>
</linearGradient>
<clipPath id="clip0_5524_102951">
<rect width="148.824" height="99.5807" fill="white" transform="translate(0 5.0957) rotate(-1.9622)"/>
</clipPath>
</defs>
</svg>
