<svg width="26" height="28" viewBox="0 0 26 28" fill="none" xmlns="http://www.w3.org/2000/svg">
<path d="M22.9174 13.3782C22.9174 14.1419 22.9303 14.9056 22.9174 15.6694C22.8948 16.8333 23.3396 17.7338 24.2387 18.4308C25.7695 19.6148 25.8823 21.8593 24.4965 23.2167C23.997 23.707 23.4008 24.0038 22.7111 24.0171C21.2899 24.0438 19.8654 24.0405 18.4442 24.0338C18.1864 24.0338 18.0801 24.0905 18.0285 24.3773C17.5548 26.9787 15.2924 28.2261 13.1235 27.9659C11.1061 27.7258 9.59782 26.2817 9.30133 24.2673C9.26588 24.0238 9.12408 24.0372 8.9565 24.0372C7.62873 24.0372 6.30419 24.0472 4.97643 24.0372C3.42629 24.0238 2.28544 23.1033 1.96639 21.5825C1.70858 20.3485 2.04374 19.2713 3.02023 18.5142C4.01283 17.7438 4.47046 16.7733 4.43501 15.4959C4.39956 14.1119 4.42534 12.7278 4.42856 11.3437C4.43501 7.33828 6.63936 3.91646 10.2037 2.37564C15.4439 0.111099 21.6412 3.50624 22.6918 9.28264C22.9335 10.62 22.9399 13.3782 22.9109 13.3815L22.9174 13.3782ZM13.652 21.9094C16.488 21.9094 19.3208 21.9094 22.1568 21.9094C22.2954 21.9094 22.434 21.9094 22.5725 21.8927C22.9883 21.8427 23.2977 21.5392 23.375 21.1123C23.462 20.6387 23.2558 20.3118 22.9013 20.0384C21.87 19.2479 21.2158 18.2007 20.9708 16.8934C20.8967 16.5065 20.8742 16.1029 20.8677 15.7061C20.8387 13.9251 20.9354 12.1342 20.7839 10.3632C20.4262 6.191 16.4526 3.14605 12.4822 3.89978C8.9275 4.57347 6.49111 7.59841 6.48466 11.3404C6.48466 12.8245 6.49756 14.3087 6.47822 15.7894C6.47177 16.2497 6.42021 16.7199 6.31708 17.1668C6.02704 18.3842 5.35993 19.3513 4.38344 20.0884C4.06117 20.3319 3.90326 20.6454 3.96771 21.0622C4.0225 21.4291 4.20942 21.7093 4.55103 21.826C4.73794 21.8893 4.95064 21.9027 5.15045 21.9027C7.98646 21.906 10.8192 21.9027 13.6552 21.9027L13.652 21.9094ZM15.9692 24.0572H11.3832C11.5444 25.081 12.5144 25.8548 13.623 25.8681C14.7929 25.8815 15.7661 25.1411 15.9692 24.0572Z" fill="white"/>
<path d="M1.21067 11.3582C0.66603 11.3582 0.221293 10.908 0.214847 10.341C0.214847 10.1176 0.189066 4.82807 4.4753 1.84649C4.93293 1.52965 5.55169 1.65305 5.85785 2.12663C6.16401 2.60022 6.04477 3.24056 5.58714 3.5574C2.21294 5.90531 2.2065 10.271 2.2065 10.3143C2.20972 10.8813 1.77143 11.3482 1.22034 11.3549H1.21067V11.3582Z" fill="white"/>
<path d="M24.7881 11.3578H24.7752C24.2274 11.3511 23.7859 10.8842 23.7923 10.3139C23.7923 10.2538 23.7794 5.89819 20.4149 3.55361C19.9572 3.23678 19.838 2.59644 20.1442 2.12285C20.4503 1.64927 21.0691 1.52587 21.5267 1.8427C25.8097 4.82429 25.7872 10.1138 25.7839 10.3406C25.7775 10.9042 25.3328 11.3578 24.7881 11.3578Z" fill="white"/>
<circle cx="19.3915" cy="4.16888" r="4.16888" fill="#FF9A00"/>
</svg>
