<svg width="25" height="27" viewBox="0 0 25 27" fill="none" xmlns="http://www.w3.org/2000/svg">
<path d="M21.9174 12.3782C21.9174 13.1419 21.9303 13.9056 21.9174 14.6694C21.8948 15.8333 22.3396 16.7338 23.2387 17.4308C24.7695 18.6148 24.8823 20.8593 23.4965 22.2167C22.997 22.707 22.4008 23.0038 21.7111 23.0171C20.2899 23.0438 18.8654 23.0405 17.4442 23.0338C17.1864 23.0338 17.0801 23.0905 17.0285 23.3773C16.5548 25.9787 14.2924 27.2261 12.1235 26.9659C10.1061 26.7258 8.59782 25.2817 8.30133 23.2673C8.26588 23.0238 8.12408 23.0372 7.9565 23.0372C6.62873 23.0372 5.30419 23.0472 3.97643 23.0372C2.42629 23.0238 1.28544 22.1033 0.966394 20.5825C0.708575 19.3485 1.04374 18.2713 2.02023 17.5142C3.01283 16.7438 3.47046 15.7733 3.43501 14.4959C3.39956 13.1119 3.42534 11.7278 3.42856 10.3437C3.43501 6.33828 5.63936 2.91646 9.2037 1.37564C14.4439 -0.888901 20.6412 2.50624 21.6918 8.28264C21.9335 9.62002 21.9399 12.3782 21.9109 12.3815L21.9174 12.3782ZM12.652 20.9094C15.488 20.9094 18.3208 20.9094 21.1568 20.9094C21.2954 20.9094 21.434 20.9094 21.5725 20.8927C21.9883 20.8427 22.2977 20.5392 22.375 20.1123C22.462 19.6387 22.2558 19.3118 21.9013 19.0384C20.87 18.2479 20.2158 17.2007 19.9708 15.8934C19.8967 15.5065 19.8742 15.1029 19.8677 14.7061C19.8387 12.9251 19.9354 11.1342 19.7839 9.36322C19.4262 5.191 15.4526 2.14605 11.4822 2.89978C7.9275 3.57347 5.49111 6.59841 5.48466 10.3404C5.48466 11.8245 5.49756 13.3087 5.47822 14.7894C5.47177 15.2497 5.42021 15.7199 5.31708 16.1668C5.02704 17.3842 4.35993 18.3513 3.38344 19.0884C3.06117 19.3319 2.90326 19.6454 2.96771 20.0622C3.0225 20.4291 3.20942 20.7093 3.55103 20.826C3.73794 20.8893 3.95064 20.9027 4.15045 20.9027C6.98646 20.906 9.81924 20.9027 12.6552 20.9027L12.652 20.9094ZM14.9692 23.0572H10.3832C10.5444 24.081 11.5144 24.8548 12.623 24.8681C13.7929 24.8815 14.7661 24.1411 14.9692 23.0572Z" fill="white"/>
</svg>
