<svg width="20" height="20" viewBox="0 0 20 20" fill="none" xmlns="http://www.w3.org/2000/svg">
  <path
    d="M16 18.4004C17.1046 18.4004 18 17.505 18 16.4004C18 15.2958 17.1046 14.4004 16 14.4004C14.8954 14.4004 14 15.2958 14 16.4004C14 17.505 14.8954 18.4004 16 18.4004Z"
    stroke="#D8D8D8" stroke-width="1.4" stroke-linecap="round" stroke-linejoin="round" />
  <path
    d="M4.7998 18.4004C5.90437 18.4004 6.7998 17.505 6.7998 16.4004C6.7998 15.2958 5.90437 14.4004 4.7998 14.4004C3.69524 14.4004 2.7998 15.2958 2.7998 16.4004C2.7998 17.505 3.69524 18.4004 4.7998 18.4004Z"
    stroke="#D8D8D8" stroke-width="1.4" stroke-linecap="round" stroke-linejoin="round" />
  <path
    d="M1.9002 5.19922C1.9002 4.48125 2.48222 3.89922 3.2002 3.89922H12.0002C12.7182 3.89922 13.3002 4.48125 13.3002 5.19922V13.6992H3.2002C2.48223 13.6992 1.9002 13.1172 1.9002 12.3992V5.19922Z"
    fill="#D8D8D8" stroke="#D8D8D8" stroke-width="1.4" />
  <path
    d="M15.9002 7.19922H13.8002C13.6411 7.19922 13.4885 7.26665 13.3759 7.38667C13.2634 7.50669 13.2002 7.66948 13.2002 7.83922V12.9592C13.2002 13.129 13.2634 13.2917 13.3759 13.4118C13.4885 13.5318 13.6411 13.5992 13.8002 13.5992H17.4002C17.5593 13.5992 17.7119 13.5318 17.8245 13.4118C17.937 13.2917 18.0002 13.129 18.0002 12.9592V9.43922L15.9002 7.19922Z"
    stroke="#D8D8D8" stroke-width="1.4" stroke-linecap="round" stroke-linejoin="round" />
</svg>
  