<svg width="20" height="23" viewBox="0 0 20 23" fill="none" xmlns="http://www.w3.org/2000/svg">
<path d="M15.1532 4.5508H4.84739C4.45675 4.5508 4.13957 4.86539 4.13957 5.25286C4.13957 5.64032 4.45675 5.95491 4.84739 5.95491H15.1532C15.5439 5.95491 15.861 5.64032 15.861 5.25286C15.8612 4.8652 15.5439 4.5508 15.1532 4.5508ZM11.9368 8.81639H4.84704C4.45639 8.81639 4.13922 9.13098 4.13922 9.51845C4.13922 9.90591 4.45639 10.2205 4.84704 10.2205H11.9363C12.327 10.2205 12.6442 9.90591 12.6442 9.51845C12.6444 9.13098 12.3275 8.81639 11.9368 8.81639ZM16.4357 0.015625H3.56457C1.59972 0.015625 0 1.60232 0 3.55118V18.8675C0 19.8475 0.416121 20.7939 1.1409 21.4595C1.48632 21.7768 2.01855 21.7657 2.35547 21.4342L3.55582 20.2437L5.08461 21.76C5.41581 22.0885 5.9935 22.0885 6.32466 21.76L7.85344 20.2437L9.38223 21.76C9.71343 22.0885 10.2911 22.0885 10.6223 21.76L12.1511 20.2437L13.6798 21.76C13.844 21.9228 14.065 22.0156 14.3 22.0156C14.535 22.0156 14.753 21.9257 14.9172 21.76L16.4459 20.2437L17.6443 21.437C17.9813 21.7712 18.5135 21.7796 18.8589 21.4623C19.5837 20.7939 19.9998 19.8503 19.9998 18.8703L20 3.55444C20 1.60262 18.4006 0.015625 16.4357 0.015625ZM18.5847 18.8698C18.5847 19.2939 18.463 19.6955 18.2335 20.0381L17.0587 18.8728C16.716 18.5359 16.161 18.5359 15.8213 18.8728L14.2925 20.3891L12.7638 18.8728C12.5996 18.71 12.3786 18.6171 12.1436 18.6171C11.9086 18.6171 11.6906 18.7071 11.5235 18.8728L9.99468 20.3891L8.46589 18.8728C8.1262 18.5329 7.56828 18.5329 7.22858 18.8728L5.69979 20.3891L4.171 18.8728C3.82836 18.5359 3.27339 18.5359 2.93369 18.8728L1.76154 20.0354C1.53501 19.6928 1.41336 19.2912 1.41336 18.8671L1.41297 3.55378C1.41297 2.37709 2.37853 1.42234 3.5619 1.42234H16.4326C17.6189 1.42234 18.5815 2.38005 18.5815 3.55378V11.2117V18.8696L18.5847 18.8698Z" fill="#0D0D0D"/>
</svg>
