<svg width="21" height="22" viewBox="0 0 21 22" fill="none" xmlns="http://www.w3.org/2000/svg">
<path d="M11.0002 0.669922H13V1.66982H12.0001V2.66971H10V5.67015H8.00023V4.66996H9.00013V1.66982H11.0002V0.669922Z" fill="#0D0D0D"/>
<path d="M0 0.669922V7.67002H7.0001V0.669922H0ZM5.99998 6.6699H1.00012V1.67004H5.99998V6.6699Z" fill="#0D0D0D"/>
<path d="M14.0002 0.669922V7.67002H20.9999V0.669922H14.0002ZM19.9998 6.6699H15.0003V1.67004H20.0002L19.9998 6.6699Z" fill="#0D0D0D"/>
<path d="M1.99987 2.66972H5.00001V5.66985H1.99987V2.66972Z" fill="#0D0D0D"/>
<path d="M15.9997 2.66972H18.9998V5.66985H15.9997V2.66972Z" fill="#0D0D0D"/>
<path d="M11.0002 3.67006H12.0001V4.66996H11.0002V3.67006Z" fill="#0D0D0D"/>
<path d="M12.0001 4.66996L12.9998 4.67003V8.67014H12V6.6699H11.0001V7.6701H9.99986L10 5.67015L12 5.6703L12.0001 4.66996Z" fill="#0D0D0D"/>
<path d="M8.00023 6.6699H9.00013V7.6701L9.99986 7.6701L10 8.67014H9.00013V10.6699H10V9.67004H11.0002V8.67014H12L12.0001 11.6701H10V12.67H9.00013V11.6701H8.00023V9.67004H5.99999V8.67014H8.00023V6.6699Z" fill="#0D0D0D"/>
<path d="M1.99987 8.67014H3.99967V9.67034H1.99987V8.67014Z" fill="#0D0D0D"/>
<path d="M12.9998 8.67014L14.9999 8.67014V9.67004H14V10.6699H12.9997L12.9998 8.67014Z" fill="#0D0D0D"/>
<path d="M15.9997 8.67014H16.9999V9.67034H15.9997V8.67014Z" fill="#0D0D0D"/>
<path d="M0 9.66989L1.99987 9.67034L1.99979 10.6698H3.00014V11.67H1.99979V12.6699H0.999896V10.6698H0V9.66989Z" fill="#0D0D0D"/>
<path d="M3.99967 9.67034L5.99999 9.67004L5.99991 10.6698H5.00001V11.67H5.99991V12.6699H4.00012L3.99967 9.67034Z" fill="#0D0D0D"/>
<path d="M16.9999 9.67034L18.0002 9.66989V10.6698H19V13.6698H18.0002V12.6699H15.9996V13.6698H15V11.67H16.9998L16.9999 9.67034Z" fill="#0D0D0D"/>
<path d="M5.99991 10.6698L6.99989 10.6696V11.6698L5.99991 11.67V10.6698Z" fill="#0D0D0D"/>
<path d="M19.9998 10.6696H21V11.6698H19.9998V10.6696Z" fill="#0D0D0D"/>
<path d="M6.99989 11.6698L8.00023 11.6701L8.00015 13.6699H5.99991L5.99991 12.6699L7.0001 12.67L6.99989 11.6698Z" fill="#0D0D0D"/>
<path d="M12.0001 11.6701H13.0001V12.67H11.9999L12.0001 11.6701Z" fill="#0D0D0D"/>
<path d="M0 12.6699L0.999896 12.6699L0.999896 13.6701H0V12.6699Z" fill="#0D0D0D"/>
<path d="M1.99979 12.6699L2.99977 12.6699V13.6701H1.99987L1.99979 12.6699Z" fill="#0D0D0D"/>
<path d="M10 12.67H11.9999L11.9998 13.6698H10.9999V15.67H9.9997V17.6698H8.9998V15.67H7.9999L8.00015 13.6699L8.9998 13.6698V14.6698H9.9997L10 12.67Z" fill="#0D0D0D"/>
<path d="M13.0001 12.67L13.9999 12.6699V13.6701H12.9997L13.0001 12.67Z" fill="#0D0D0D"/>
<path d="M19.9998 12.6699H21V13.6701H19.9998V12.6699Z" fill="#0D0D0D"/>
<path d="M11.9998 13.6698L12.9997 13.6701L13.0001 15.6694H11.9999L11.9998 13.6698Z" fill="#0D0D0D"/>
<path d="M16.9998 13.6696L18.0002 13.6698L18 15.6694H16.9998V13.6696Z" fill="#0D0D0D"/>
<path d="M19 13.6698L19.9998 13.6701L19.9999 14.6695H19.0001L19 13.6698Z" fill="#0D0D0D"/>
<path d="M14.9999 14.6697H15.9995V15.6699L16.9998 15.6694L16.9997 17.6697H19.9996V18.6696H15.9995V20.6696H14.9999V18.6696H14V19.67H12.9996V20.6696H14V21.6698H8.99974V20.6696H11.9997V18.6696H12.9996V15.6699H14.9999L14.9999 14.6697Z" fill="#0D0D0D"/>
<path d="M0 14.6697V21.6698H7.0001V14.6697H0ZM5.99998 20.6697H1.00012V15.6702H5.99998V20.6697Z" fill="#0D0D0D"/>
<path d="M10.9999 15.67L11.9999 15.6694L12.0001 16.6698H11.0002L10.9999 15.67Z" fill="#0D0D0D"/>
<path d="M18 15.6694L19.9998 15.6699V16.6698H18.0003L18 15.6694Z" fill="#0D0D0D"/>
<path d="M1.99987 16.6696H5.00001V19.6698H1.99987V16.6696Z" fill="#0D0D0D"/>
<path d="M19.9998 16.6698L21 16.6696V17.6698L19.9996 17.6697L19.9998 16.6698Z" fill="#0D0D0D"/>
<path d="M8.00023 17.6697L8.9998 17.6698L9.00013 18.6696H10V19.67H8.00023V17.6697Z" fill="#0D0D0D"/>
<path d="M9.9997 17.6698L11.9995 17.6697L11.9997 18.6696L10 18.6696L9.9997 17.6698Z" fill="#0D0D0D"/>
<path d="M18.0003 19.67H19.0002V20.6699H18.0003V19.67Z" fill="#0D0D0D"/>
<path d="M19.9998 19.67H21V20.6699H19.9998V19.67Z" fill="#0D0D0D"/>
<path d="M15.9995 20.6696L16.9999 20.6697V21.6699H15.9997L15.9995 20.6696Z" fill="#0D0D0D"/>
</svg>
