<svg width="19" height="19" viewBox="0 0 19 19" fill="none" xmlns="http://www.w3.org/2000/svg">
<path d="M4.75 1.58331L2.375 4.74998V15.8333C2.375 16.2532 2.54181 16.656 2.83875 16.9529C3.13568 17.2498 3.53841 17.4166 3.95833 17.4166H15.0417C15.4616 17.4166 15.8643 17.2498 16.1613 16.9529C16.4582 16.656 16.625 16.2532 16.625 15.8333V4.74998L14.25 1.58331H4.75Z" stroke="#F40000" stroke-width="2" stroke-linecap="round" stroke-linejoin="round"/>
<path d="M2.375 4.75H16.625" stroke="#F40000" stroke-width="2" stroke-linecap="round" stroke-linejoin="round"/>
<path d="M12.6668 7.91669C12.6668 8.75654 12.3332 9.56199 11.7393 10.1559C11.1455 10.7497 10.34 11.0834 9.50016 11.0834C8.66031 11.0834 7.85486 10.7497 7.26099 10.1559C6.66713 9.56199 6.3335 8.75654 6.3335 7.91669" stroke="#F40000" stroke-width="2" stroke-linecap="round" stroke-linejoin="round"/>
</svg>
