<svg width="39" height="36" viewBox="0 0 39 36" fill="none" xmlns="http://www.w3.org/2000/svg">
<path d="M23.22 2.37123C22.9394 1.67115 22.4556 1.07112 21.8309 0.648496C21.2062 0.225868 20.4693 0 19.7151 0C18.9609 0 18.2239 0.225868 17.5993 0.648496C16.9746 1.07112 16.4908 1.67115 16.2102 2.37123L13.0305 10.1398L12.886 10.2482L4.52119 10.8625C4.0273 10.8956 3.54482 11.026 3.10147 11.2461C2.65811 11.4662 2.26261 11.7718 1.93769 12.1452C1.33626 12.837 1.00293 13.7217 0.99823 14.6384C0.998023 15.1901 1.11932 15.7351 1.3535 16.2347C1.58768 16.7343 1.929 17.1762 2.35322 17.529L8.76681 22.9489V23.0754L6.81563 31.2957C6.74492 31.6038 6.70857 31.9189 6.70724 32.2351C6.69902 32.7383 6.79601 33.2377 6.99201 33.7013C7.18801 34.1648 7.47869 34.5823 7.84542 34.927C8.45095 35.52 9.23914 35.8909 10.082 35.9794C10.9249 36.068 11.773 35.869 12.4885 35.4148L19.7151 30.9885H19.8958L26.9417 35.4148C27.6592 35.8667 28.5084 36.0627 29.3514 35.9708C30.1943 35.879 30.9814 35.5047 31.5848 34.909C31.9515 34.5643 32.2422 34.1468 32.4382 33.6832C32.6342 33.2197 32.7312 32.7203 32.723 32.217C32.7226 31.9068 32.6862 31.5976 32.6146 31.2957L30.555 23.0935V22.967L36.9686 17.5471C37.3575 17.2223 37.6774 16.823 37.9095 16.3726C38.1416 15.9223 38.2811 15.4299 38.3199 14.9248C38.3586 14.4196 38.2957 13.9118 38.135 13.4313C37.9743 12.9508 37.719 12.5073 37.3841 12.1271C37.0592 11.7537 36.6637 11.4481 36.2203 11.228C35.777 11.0079 35.2945 10.8775 34.8006 10.8444L26.4358 10.2301L26.2913 10.1217L23.1116 2.35317L23.22 2.37123ZM28.2244 20.1848C27.8063 20.5417 27.4704 20.9848 27.2396 21.4838C27.0088 21.9827 26.8887 22.5257 26.8875 23.0754C26.8867 23.3798 26.9231 23.6832 26.9959 23.9787L28.9832 32.0725V32.1628H28.8387H28.7483L21.6301 27.7366C21.0255 27.3698 20.3319 27.1758 19.6248 27.1758C18.9176 27.1758 18.224 27.3698 17.6194 27.7366L10.6819 32.3435H10.5373V32.2532L12.5427 24.0871C12.6155 23.7916 12.6519 23.4882 12.6511 23.1838C12.6499 22.6341 12.5297 22.0911 12.299 21.5922C12.0682 21.0932 11.7323 20.6501 11.3142 20.2932L4.90059 14.8732V14.7468V14.6203H5.00899L13.3918 14.006C14.0935 13.9531 14.7663 13.7051 15.3345 13.2901C15.9027 12.8751 16.3437 12.3096 16.6077 11.6574L19.5525 3.79848V3.70815H19.7693V3.79848L22.949 11.5671C23.213 12.2193 23.6539 12.7848 24.2221 13.1998C24.7903 13.6148 25.4632 13.8627 26.1648 13.9157L34.5477 14.53H34.6561V14.6564V14.7829L28.2244 20.1848Z" fill="#6D6D6D"/>
</svg>
