<svg width="38" height="37" viewBox="0 0 38 37" fill="none" xmlns="http://www.w3.org/2000/svg">
<path d="M22.8872 3.2599C22.6067 2.55982 22.1228 1.9598 21.4982 1.53717C20.8735 1.11454 20.1365 0.888672 19.3823 0.888672C18.6281 0.888672 17.8912 1.11454 17.2665 1.53717C16.6418 1.9598 16.158 2.55982 15.8774 3.2599L12.6977 11.0285L12.5532 11.1369L4.18843 11.7511C3.69454 11.7843 3.21206 11.9146 2.7687 12.1348C2.32534 12.3549 1.92985 12.6604 1.60492 13.0339C1.0035 13.7257 0.670162 14.6103 0.665467 15.527C0.665259 16.0788 0.786554 16.6238 1.02074 17.1234C1.25492 17.623 1.59624 18.0649 2.02045 18.4177L8.43405 23.8376V23.9641L6.48287 32.1843C6.41216 32.4925 6.37581 32.8076 6.37447 33.1238C6.36625 33.627 6.46325 34.1264 6.65925 34.59C6.85525 35.0535 7.14593 35.471 7.51266 35.8157C8.11818 36.4087 8.90638 36.7795 9.74926 36.8681C10.5921 36.9566 11.4402 36.7577 12.1557 36.3035L19.3823 31.8772H19.563L26.6089 36.3035C27.3264 36.7554 28.1756 36.9513 29.0186 36.8595C29.8615 36.7677 30.6487 36.3934 31.252 35.7976C31.6187 35.4529 31.9094 35.0354 32.1054 34.5719C32.3014 34.1083 32.3984 33.6089 32.3902 33.1057C32.3898 32.7954 32.3534 32.4862 32.2818 32.1843L30.2222 23.9821V23.8557L36.6358 18.4357C37.0247 18.111 37.3447 17.7117 37.5768 17.2613C37.8088 16.8109 37.9484 16.3186 37.9871 15.8134C38.0258 15.3083 37.963 14.8004 37.8023 14.3199C37.6415 13.8394 37.3862 13.396 37.0513 13.0158C36.7264 12.6424 36.3309 12.3368 35.8876 12.1167C35.4442 11.8966 34.9617 11.7662 34.4678 11.7331L26.1031 11.1188L25.9585 11.0104L22.7788 3.24184L22.8872 3.2599Z" fill="#F40000"/>
</svg>
