<svg width="38" height="35" viewBox="0 0 38 35" fill="none" xmlns="http://www.w3.org/2000/svg">
  <path
    d="M23.5238 21.7143C24.9636 21.7143 26.3443 21.1423 27.3624 20.1243C28.3804 19.1062 28.9524 17.7255 28.9524 16.2857V5.42857C28.9524 3.98882 28.3804 2.60805 27.3624 1.58999C26.3443 0.571937 24.9636 0 23.5238 0H5.42857C3.98882 0 2.60805 0.571937 1.58999 1.58999C0.571937 2.60805 0 3.98882 0 5.42857V16.2857C0 17.7255 0.571937 19.1062 1.58999 20.1243C2.60805 21.1423 3.98882 21.7143 5.42857 21.7143H7.2381V25.3333C7.23178 25.6535 7.31053 25.9696 7.46631 26.2493C7.62208 26.5291 7.8493 26.7625 8.12476 26.9257C8.39984 27.0845 8.71189 27.1681 9.02952 27.1681C9.34716 27.1681 9.6592 27.0845 9.93429 26.9257L18.5838 21.7143H23.5238ZM10.8571 22.1124V19.9048C10.8609 19.6636 10.8164 19.4241 10.7263 19.2003C10.6362 18.9766 10.5023 18.7731 10.3324 18.6019C9.98795 18.2698 9.52602 18.0876 9.04762 18.0952H5.42857C4.94866 18.0952 4.4884 17.9046 4.14905 17.5652C3.80969 17.2259 3.61905 16.7656 3.61905 16.2857V5.42857C3.61905 4.94866 3.80969 4.4884 4.14905 4.14904C4.4884 3.80969 4.94866 3.61905 5.42857 3.61905H23.5238C24.0037 3.61905 24.464 3.80969 24.8033 4.14904C25.1427 4.4884 25.3333 4.94866 25.3333 5.42857V16.2857C25.3333 16.7656 25.1427 17.2259 24.8033 17.5652C24.464 17.9046 24.0037 18.0952 23.5238 18.0952H18.0952C17.7705 18.0953 17.4517 18.1828 17.1724 18.3486L10.8571 22.1124ZM38 16.2857V23.5238C38 24.9636 37.4281 26.3443 36.41 27.3624C35.392 28.3804 34.0112 28.9524 32.5714 28.9524H30.7619V32.5714C30.7619 32.9075 30.6683 33.2369 30.4917 33.5228C30.315 33.8086 30.0622 34.0396 29.7616 34.1899C29.4611 34.3402 29.1246 34.4038 28.7899 34.3736C28.4552 34.3435 28.1355 34.2207 27.8667 34.019L21.1171 28.9524H18.0952C17.6153 28.9524 17.1551 28.7617 16.8157 28.4224C16.4764 28.083 16.2857 27.6228 16.2857 27.1429C16.2857 26.6629 16.4764 26.2027 16.8157 25.8633C17.1551 25.524 17.6153 25.3333 18.0952 25.3333H21.7143C21.9368 25.3404 22.1567 25.3832 22.3657 25.46L22.5467 25.5686L22.8 25.6952L27.1429 28.9524V27.1429C27.1429 26.6629 27.3335 26.2027 27.6729 25.8633C28.0122 25.524 28.4725 25.3333 28.9524 25.3333H32.5714C33.0513 25.3333 33.5116 25.1427 33.851 24.8033C34.1903 24.464 34.381 24.0037 34.381 23.5238V16.2857C34.381 15.8058 34.1903 15.3455 33.851 15.0062C33.5116 14.6668 33.0513 14.4762 32.5714 14.4762C32.0915 14.4762 31.6313 14.2855 31.2919 13.9462C30.9525 13.6068 30.7619 13.1466 30.7619 12.6667C30.7619 12.1868 30.9525 11.7265 31.2919 11.3871C31.6313 11.0478 32.0915 10.8571 32.5714 10.8571C34.0112 10.8571 35.392 11.4291 36.41 12.4471C37.4281 13.4652 38 14.846 38 16.2857Z"
    fill="#F40000" />
</svg>
  