<svg width="18" height="21" viewBox="0 0 18 21" fill="none" xmlns="http://www.w3.org/2000/svg">
<path d="M10 15.5V9.5C10 9.23478 10.1054 8.98043 10.2929 8.79289C10.4804 8.60536 10.7348 8.5 11 8.5C11.2652 8.5 11.5196 8.60536 11.7071 8.79289C11.8946 8.98043 12 9.23478 12 9.5V15.5C12 15.7652 11.8946 16.0196 11.7071 16.2071C11.5196 16.3946 11.2652 16.5 11 16.5C10.7348 16.5 10.4804 16.3946 10.2929 16.2071C10.1054 16.0196 10 15.7652 10 15.5ZM7 16.5C7.26522 16.5 7.51957 16.3946 7.70711 16.2071C7.89464 16.0196 8 15.7652 8 15.5V9.5C8 9.23478 7.89464 8.98043 7.70711 8.79289C7.51957 8.60536 7.26522 8.5 7 8.5C6.73478 8.5 6.48043 8.60536 6.29289 8.79289C6.10536 8.98043 6 9.23478 6 9.5V15.5C6 15.7652 6.10536 16.0196 6.29289 16.2071C6.48043 16.3946 6.73478 16.5 7 16.5ZM18 5.5C18 5.76522 17.8946 6.01957 17.7071 6.20711C17.5196 6.39464 17.2652 6.5 17 6.5H16V17.44C16 18.2356 15.6839 18.9987 15.1213 19.5613C14.5587 20.1239 13.7956 20.44 13 20.44H5C4.20435 20.44 3.44129 20.1239 2.87868 19.5613C2.31607 18.9987 2 18.2356 2 17.44V6.5H1C0.734784 6.5 0.48043 6.39464 0.292893 6.20711C0.105357 6.01957 0 5.76522 0 5.5C0 5.23478 0.105357 4.98043 0.292893 4.79289C0.48043 4.60536 0.734784 4.5 1 4.5H5V3.5C5 2.70435 5.31607 1.94129 5.87868 1.37868C6.44129 0.816071 7.20435 0.5 8 0.5H10C10.7956 0.5 11.5587 0.816071 12.1213 1.37868C12.6839 1.94129 13 2.70435 13 3.5V4.5H17C17.2652 4.5 17.5196 4.60536 17.7071 4.79289C17.8946 4.98043 18 5.23478 18 5.5ZM7 4.5H11V3.5C11 3.23478 10.8946 2.98043 10.7071 2.79289C10.5196 2.60536 10.2652 2.5 10 2.5H8C7.73478 2.5 7.48043 2.60536 7.29289 2.79289C7.10536 2.98043 7 3.23478 7 3.5V4.5ZM14 6.5H4V17.44C4 17.7052 4.10536 17.9596 4.29289 18.1471C4.48043 18.3346 4.73478 18.44 5 18.44H13C13.2652 18.44 13.5196 18.3346 13.7071 18.1471C13.8946 17.9596 14 17.7052 14 17.44V6.5Z" fill="#F40000"/>
</svg>
