<svg width="36" height="37" viewBox="0 0 36 37" fill="none" xmlns="http://www.w3.org/2000/svg">
<circle cx="18" cy="18.5" r="17.5" stroke="#FF4E16"/>
<path d="M16.0947 17.8262C15.816 17.8262 15.5898 18.0521 15.5898 18.3311V22.9009C15.5898 23.1798 15.816 23.4058 16.0947 23.4058C16.3737 23.4058 16.5996 23.1798 16.5996 22.9009V18.3311C16.5996 18.1971 16.5465 18.0687 16.4519 17.9739C16.3571 17.8794 16.2288 17.8262 16.0947 17.8262Z" fill="#FF4E16"/>
<path d="M19.5791 17.8262C19.3002 17.8262 19.0742 18.0521 19.0742 18.3311V22.9009C19.0742 23.1798 19.3002 23.4058 19.5791 23.4058C19.8579 23.4058 20.084 23.1798 20.084 22.9009V18.3311C20.084 18.1971 20.0308 18.0687 19.9361 17.9739C19.8415 17.8794 19.713 17.8262 19.5791 17.8262Z" fill="#FF4E16"/>
<path d="M19.377 9.5H16.2969C15.8282 9.5 15.3786 9.68633 15.0472 10.0178C14.7157 10.349 14.5296 10.7986 14.5296 11.2673V12.1256L12.1311 12.1258C11.7292 12.1258 11.3441 12.2854 11.0598 12.5694C10.7758 12.8535 10.6162 13.2389 10.6162 13.6406V14.3168C10.6169 14.6181 10.709 14.912 10.8802 15.16C11.0516 15.4079 11.2941 15.598 11.5757 15.7052V24.3398C11.5757 25.1432 11.8948 25.9139 12.4629 26.4821C13.0312 27.0502 13.8017 27.3695 14.6054 27.3695H21.0687C21.8723 27.3695 22.6428 27.0502 23.2111 26.4821C23.7793 25.9139 24.0984 25.1433 24.0984 24.3398V15.7052C24.38 15.598 24.6225 15.408 24.7939 15.16C24.965 14.912 25.0571 14.6181 25.0578 14.3168V13.6406C25.0578 13.2388 24.8983 12.8535 24.6142 12.5694C24.33 12.2854 23.9448 12.1258 23.5429 12.1258H21.1445V11.2673C21.1445 10.7986 20.9583 10.349 20.6269 10.0177C20.2954 9.6863 19.8457 9.5 19.377 9.5ZM15.5394 11.2673C15.5394 11.0665 15.6192 10.8738 15.7613 10.7317C15.9032 10.5898 16.0959 10.51 16.2969 10.51H19.377C19.578 10.51 19.7706 10.5898 19.9126 10.7317C20.0547 10.8738 20.1345 11.0665 20.1345 11.2673V12.1256L15.5395 12.1258L15.5394 11.2673ZM21.0686 26.3596H14.6052C14.0695 26.3596 13.5558 26.1468 13.177 25.768C12.7981 25.3892 12.5854 24.8755 12.5854 24.3399V15.8316H23.0883V24.3399C23.0883 24.8755 22.8756 25.3892 22.4968 25.768C22.1179 26.1469 21.6043 26.3596 21.0686 26.3596ZM24.0477 13.6405L24.0478 14.3167C24.0478 14.4506 23.9945 14.579 23.8999 14.6737C23.8052 14.7685 23.6768 14.8216 23.5428 14.8216H12.1309C11.852 14.8216 11.6259 14.5955 11.6259 14.3167V13.6405C11.6259 13.3617 11.852 13.1356 12.1309 13.1356H23.5428C23.6768 13.1356 23.8052 13.1888 23.8999 13.2836C23.9945 13.3783 24.0477 13.5067 24.0477 13.6405Z" fill="#FF4E16"/>
</svg>
