<svg width="70" height="56" viewBox="0 0 70 56" fill="none" xmlns="http://www.w3.org/2000/svg">
<rect opacity="0.99" width="70" height="56" rx="8" fill="#205EFB"/>
<g clip-path="url(#clip0_3330_6256)">
<path d="M28.0042 21.1233L28.1895 21.2738C28.4599 21.4936 28.6414 21.8248 28.6939 22.1944C28.7463 22.564 28.6656 22.9418 28.4693 23.2447L26.2793 26.6253L24.0544 24.8173L26.2445 21.4367C26.4407 21.1338 26.7363 20.9306 27.0664 20.8718C27.3964 20.813 27.7337 20.9035 28.0042 21.1233Z" fill="#4FD3B2"/>
<path d="M28.1895 21.2738L28.0042 21.1233C27.7337 20.9035 27.3964 20.813 27.0664 20.8718C26.7363 20.9306 26.4407 21.1338 26.2445 21.4367L25.4629 22.6432C25.6591 22.3403 25.9547 22.1371 26.2848 22.0783C26.6148 22.0195 26.9521 22.11 27.2226 22.3298L27.4079 22.4803C27.6783 22.7001 27.8598 23.0312 27.9123 23.4009C27.9648 23.7705 27.884 24.1483 27.6878 24.4512L28.4693 23.2447C28.6656 22.9418 28.7463 22.564 28.6939 22.1944C28.6414 21.8248 28.4599 21.4936 28.1895 21.2738Z" fill="#73FFD4"/>
<path d="M33.8157 20.4665L34.001 20.617C34.2714 20.8367 34.4528 21.1677 34.5053 21.5372C34.5579 21.9066 34.4773 22.2843 34.2813 22.5873L32.0915 25.9675L29.8666 24.1595L32.0564 20.7793C32.2527 20.4766 32.5483 20.2736 32.8782 20.2149C33.2081 20.1563 33.5453 20.2467 33.8157 20.4665Z" fill="#4FD3B2"/>
<path d="M34.001 20.617L33.8157 20.4665C33.5452 20.2467 33.2079 20.1562 32.8779 20.215C32.5479 20.2738 32.2522 20.477 32.056 20.7799L31.2744 21.9864C31.4706 21.6835 31.7663 21.4803 32.0963 21.4215C32.4263 21.3627 32.7636 21.4532 33.0341 21.6729L33.2194 21.8235C33.4899 22.0433 33.6713 22.3744 33.7238 22.744C33.7763 23.1137 33.6955 23.4915 33.4993 23.7944L34.2809 22.5879C34.4771 22.285 34.5579 21.9072 34.5054 21.5375C34.4529 21.1679 34.2715 20.8368 34.001 20.617Z" fill="#73FFD4"/>
<path d="M44.0254 41.0441L41.8005 39.2361L43.9903 35.8559C44.0874 35.7058 44.21 35.5786 44.351 35.4817C44.4921 35.3847 44.6488 35.3197 44.8122 35.2906C44.9756 35.2615 45.1426 35.2687 45.3036 35.3118C45.4645 35.3549 45.6163 35.4332 45.7502 35.542L45.9354 35.6924C46.2058 35.9122 46.3873 36.2434 46.4397 36.613C46.4922 36.9826 46.4115 37.3604 46.2152 37.6633L44.0252 41.0439L44.0254 41.0441Z" fill="#4FD3B2"/>
<path d="M45.7503 35.5443L45.9356 35.6948C46.0695 35.8037 46.1829 35.941 46.2695 36.0989C46.356 36.2569 46.414 36.4323 46.4399 36.6154C46.4659 36.7984 46.4595 36.9853 46.421 37.1656C46.3824 37.3458 46.3126 37.5157 46.2154 37.6657L45.4338 38.8722C45.531 38.7222 45.6009 38.5523 45.6394 38.3721C45.6779 38.1918 45.6843 38.0049 45.6584 37.8219C45.6324 37.6388 45.5744 37.4634 45.4879 37.3054C45.4014 37.1475 45.2879 37.0102 45.154 36.9013L44.9687 36.7508C44.6982 36.531 44.3609 36.4405 44.0309 36.4993C43.7008 36.5581 43.4052 36.7613 43.209 37.0642L43.9905 35.8577C44.1868 35.5548 44.4824 35.3516 44.8124 35.2928C45.1425 35.234 45.4798 35.3245 45.7503 35.5443Z" fill="#73FFD4"/>
<path d="M42.7803 34.6542L40.5554 32.8462L42.745 29.4662C42.9413 29.1632 43.2369 28.96 43.5669 28.9013C43.897 28.8425 44.2343 28.9329 44.5048 29.1527L44.69 29.3033C44.9605 29.5231 45.142 29.8542 45.1944 30.2238C45.2469 30.5934 45.1662 30.9712 44.9699 31.2742L42.7803 34.6542Z" fill="#4FD3B2"/>
<path d="M44.5052 29.1521L44.6904 29.3027C44.9609 29.5225 45.1423 29.8536 45.1948 30.2232C45.2473 30.5929 45.1666 30.9707 44.9703 31.2736L44.1887 32.4801C44.385 32.1772 44.4657 31.7993 44.4132 31.4297C44.3608 31.0601 44.1793 30.729 43.9088 30.5092L43.7236 30.3586C43.4531 30.1389 43.1158 30.0484 42.7857 30.1072C42.4557 30.166 42.1601 30.3692 41.9638 30.6721L42.7454 29.4656C42.9417 29.1627 43.2373 28.9595 43.5673 28.9007C43.8973 28.8419 44.2347 28.9324 44.5052 29.1521Z" fill="#73FFD4"/>
<path d="M42.5051 45.3259L44.6452 42.0223L41.9268 26.0198L37.0791 33.5028L42.5051 45.3259Z" fill="#2CCDF2"/>
<path d="M23.0926 24.5095L20.9525 27.8132L32.5691 29.9039L37.3932 22.4573L23.0926 24.5095Z" fill="#2CCDF2"/>
<path d="M41.9268 26.0198L40.7342 27.8607L43.4526 43.8633L44.6452 42.0223L41.9268 26.0198Z" fill="#69DCFF"/>
<path d="M23.0926 24.5095L21.9 26.3505L36.2005 24.2984L37.3932 22.4573L23.0926 24.5095Z" fill="#69DCFF"/>
<path d="M29.7175 34.3067L23.4678 37.3529L23.2318 39.776L28.1756 39.6766C27.5133 38.0227 28.2445 36.5805 29.7175 34.3067Z" fill="#2CCDF2"/>
<path d="M34.1992 37.9468C32.7957 40.1133 31.7967 41.3936 30.1196 41.2529L31.5691 46.5477L33.5532 45.5452L34.1992 37.9468Z" fill="#2CCDF2"/>
<path d="M28.3347 36.4413C28.3929 36.4154 28.4476 36.394 28.499 36.3765C28.867 35.6593 29.274 34.9681 29.7175 34.3067L23.4678 37.3529L23.3187 38.8862L28.3347 36.4413Z" fill="#69DCFF"/>
<path d="M32.8166 40.0811L32.2979 46.1791L33.5531 45.5446L34.1994 37.9465C33.7805 38.6177 33.3243 39.2588 32.8335 39.8659C32.8312 39.9313 32.826 40.0024 32.8166 40.0811Z" fill="#69DCFF"/>
<path d="M46.6401 13.4639C45.4026 12.4582 43.2992 13.3414 40.7199 17.3228L29.7182 34.3056C28.2452 36.5793 27.5141 38.0216 28.1764 39.6754L30.1195 41.2544C31.7965 41.3951 32.7958 40.1143 34.199 37.9483L45.201 20.9651C47.7806 16.9831 47.8776 14.4695 46.6401 13.4639Z" fill="white"/>
<path d="M46.7635 13.573C46.6355 14.8598 45.9674 16.5785 44.5775 18.724L33.5755 35.7073C32.5167 37.3416 31.6881 38.4717 30.6251 38.8678C30.3423 38.9699 30.042 38.9952 29.7487 38.9416C29.4555 38.8881 29.1779 38.7573 28.9387 38.5599L27.9962 37.794C27.8684 38.4258 27.932 39.0873 28.1772 39.6741L30.1203 41.2531C31.7973 41.3938 32.7966 40.113 34.1998 37.947L45.2015 20.9643C47.6919 17.12 47.8676 14.6444 46.7635 13.573Z" fill="#EDEBE8"/>
<path d="M43.6442 16.4539C44.0028 15.9004 44.8307 15.4945 45.1205 15.73C45.4104 15.9655 45.3221 16.973 44.9638 17.5261C44.9 17.6246 44.8737 17.7474 44.8908 17.8675C44.9079 17.9877 44.9668 18.0953 45.0547 18.1667C45.1426 18.2381 45.2523 18.2675 45.3595 18.2484C45.4668 18.2293 45.5629 18.1633 45.6267 18.0648C46.1432 17.2675 46.3964 15.6335 45.6012 14.9873C44.8059 14.341 43.4975 15.1176 42.981 15.9149C42.9172 16.0134 42.891 16.1362 42.908 16.2563C42.9251 16.3764 42.9841 16.484 43.072 16.5555C43.1599 16.6269 43.2695 16.6563 43.3768 16.6372C43.484 16.6181 43.5801 16.5521 43.6439 16.4536L43.6442 16.4539Z" fill="#17171D"/>
</g>
<defs>
<clipPath id="clip0_3330_6256">
<rect width="32.8009" height="36.1437" fill="white" transform="matrix(0.776067 0.63065 -0.543701 0.839279 34.0156 2.57031)"/>
</clipPath>
</defs>
</svg>
