<svg width="70" height="56" viewBox="0 0 70 56" fill="none" xmlns="http://www.w3.org/2000/svg">
<rect opacity="0.99" width="70" height="56" rx="8" fill="#44E28D"/>
<path d="M43.5 16.31H42.4375C42.4375 13.6081 40.531 11.41 38.1875 11.41C35.844 11.41 33.9375 13.6081 33.9375 16.31H32.875C32.875 12.9327 35.2582 10.185 38.1875 10.185C41.1168 10.185 43.5 12.9327 43.5 16.31Z" fill="#BCBF35"/>
<path d="M42.4375 16.31H46.6875C47.2743 16.31 47.75 16.8584 47.75 17.535V45.71C47.75 46.3866 47.2743 46.935 46.6875 46.935H40.3125C40.8993 46.935 41.375 46.3866 41.375 45.71V17.535C41.375 16.8584 41.8507 16.31 42.4375 16.31Z" fill="#A00000"/>
<path d="M44.5625 16.31H42.4375C41.8507 16.31 41.375 16.8584 41.375 17.535V45.71C41.375 46.3866 40.8993 46.935 40.3125 46.935H43.5C44.0868 46.935 44.5625 46.3866 44.5625 45.71V16.31Z" fill="#680000"/>
<path d="M40.3125 16.31H23.3125C22.7257 16.31 22.25 16.8584 22.25 17.535V45.71C22.25 46.3866 22.7257 46.935 23.3125 46.935H40.3125C40.8993 46.935 41.375 46.3866 41.375 45.71V17.535C41.375 16.8584 40.8993 16.31 40.3125 16.31Z" fill="#F40000"/>
<path d="M27.0312 22.435C27.9115 22.435 28.625 21.6123 28.625 20.5975C28.625 19.5827 27.9115 18.76 27.0312 18.76C26.151 18.76 25.4375 19.5827 25.4375 20.5975C25.4375 21.6123 26.151 22.435 27.0312 22.435Z" fill="#680000"/>
<path d="M36.5938 22.435C37.474 22.435 38.1875 21.6123 38.1875 20.5975C38.1875 19.5827 37.474 18.76 36.5938 18.76C35.7135 18.76 35 19.5827 35 20.5975C35 21.6123 35.7135 22.435 36.5938 22.435Z" fill="#680000"/>
<path d="M36.5938 21.21C36.3004 21.21 36.0625 20.9358 36.0625 20.5975V16.31C36.0625 13.6081 34.156 11.41 31.8125 11.41C29.469 11.41 27.5625 13.6081 27.5625 16.31V20.5975C27.5625 20.9358 27.3246 21.21 27.0312 21.21C26.7379 21.21 26.5 20.9358 26.5 20.5975V16.31C26.5 12.9327 28.8832 10.185 31.8125 10.185C34.7418 10.185 37.125 12.9327 37.125 16.31V20.5975C37.125 20.9358 36.8871 21.21 36.5938 21.21Z" fill="#FBFF46"/>
</svg>
