<svg width="70" height="56" viewBox="0 0 70 56" fill="none" xmlns="http://www.w3.org/2000/svg">
<rect opacity="0.99" width="70" height="56" rx="8" fill="#E346AE"/>
<path d="M28.2635 9.4668C23.818 7.46253 19.1093 12.3195 21.0743 16.6059C23.4322 21.0516 34.847 18.0581 34.847 18.0581C34.847 18.0581 31.7824 11.0561 28.2599 9.4668H28.2635ZM28.1373 17.0319C25.7145 16.7355 23.663 15.6834 24.503 13.8718C24.8672 13.1049 25.7902 12.538 26.861 12.664C28.8944 13.1642 31.4254 15.7278 33.138 17.3876C33.138 17.3876 29.8571 17.2357 28.1373 17.0282V17.0319Z" fill="#4C946C"/>
<path d="M27.0882 10.4597C29.3164 11.4637 34.8507 18.0581 34.8507 18.0581C34.8507 18.0581 31.7861 11.0561 28.2636 9.4668C25.9525 8.42576 23.5729 9.24081 22.0947 10.8635C23.5117 9.95583 25.318 9.66315 27.0882 10.4634V10.4597Z" fill="#76AF8F"/>
<path d="M24.55 13.7865C23.9948 13.9903 23.5513 14.3867 23.3278 14.8646C22.4877 16.6763 24.532 17.7988 26.962 18.0248C30.2105 18.3286 33.1381 17.3876 33.1381 17.3876C33.1381 17.3876 31.4977 17.2987 30.7982 17.2542C29.8752 17.1949 28.8657 17.1171 28.1374 17.0282C25.7146 16.7318 23.6631 15.6797 24.5032 13.868C24.5176 13.8384 24.5356 13.8125 24.55 13.7865Z" fill="#267F57"/>
<path d="M33.2354 18.0581C33.2354 18.0581 44.6501 21.0516 47.008 16.6059C48.9766 12.3195 44.2643 7.46253 39.8224 9.4668C36.2999 11.0561 33.2354 18.0581 33.2354 18.0581ZM34.9479 17.3876C36.6605 15.7241 39.1915 13.1642 41.2249 12.664C42.2957 12.538 43.2187 13.1049 43.5829 13.8718C44.4229 15.6834 42.3715 16.7355 39.9486 17.0319C38.2288 17.2357 34.9479 17.3913 34.9479 17.3913V17.3876Z" fill="#4C946C"/>
<path d="M40.9978 10.4597C38.7697 11.4637 33.2354 18.0581 33.2354 18.0581C33.2354 18.0581 36.2999 11.0561 39.8224 9.4668C42.1335 8.42576 44.5131 9.24081 45.9913 10.8635C44.5744 9.95583 42.768 9.66315 40.9978 10.4634V10.4597Z" fill="#76AF8F"/>
<path d="M43.5353 13.7865C44.0906 13.9903 44.534 14.3867 44.7576 14.8646C45.5976 16.6763 43.5534 17.7988 41.1233 18.0248C37.8749 18.3286 34.9473 17.3876 34.9473 17.3876C34.9473 17.3876 36.5877 17.2987 37.2872 17.2542C38.2102 17.1949 39.2197 17.1171 39.948 17.0282C42.3708 16.7318 44.4223 15.6797 43.5822 13.868C43.5678 13.8384 43.5498 13.8125 43.5353 13.7865Z" fill="#267F57"/>
<path d="M34.2162 20.6885C35.7455 20.6885 36.9852 19.4146 36.9852 17.8433C36.9852 16.2719 35.7455 14.998 34.2162 14.998C32.687 14.998 31.4473 16.2719 31.4473 17.8433C31.4473 19.4146 32.687 20.6885 34.2162 20.6885Z" fill="#267F57"/>
<path d="M49.8709 20.2291H18.5615V46.2328H49.8709V20.2291Z" fill="#FF9254"/>
<path d="M18.5615 20.2291V26.153H34.62C39.1087 26.153 42.743 29.8911 42.743 34.4999V46.2291H49.8709V20.2291H18.5615Z" fill="#F07A46"/>
<path d="M51.4316 17.8433H17V24.1784H51.4316V17.8433Z" fill="#FFBA7A"/>
<path d="M32.7629 17.8433H20.9912V24.1784H32.7629V17.8433Z" fill="#FFD983"/>
<path d="M25.123 17.8433H23.1328V24.1784H25.123V17.8433Z" fill="#FFE8AA"/>
<path d="M36.0294 17.8433H32.4023V46.2291H36.0294V17.8433Z" fill="#267F57"/>
<path d="M36.0294 27.7053L32.4023 29.5577V17.8433H36.0294V27.7053Z" fill="#4C946C"/>
<path d="M36.0294 17.8433H32.4023V19.5437H36.0294V17.8433Z" fill="#76AF8F"/>
<path d="M34.2159 14.998C33.2316 14.998 32.3699 15.5241 31.8796 16.3206C31.602 16.7689 31.9229 17.3876 32.4421 17.3876C32.4421 17.3876 32.4493 17.3876 32.4529 17.3876C33.4768 17.3876 34.3529 16.6874 34.6954 15.6982C34.8108 15.3648 34.5692 14.9943 34.2231 14.9943H34.2159V14.998Z" fill="#4C946C"/>
</svg>
